<svg width="566" height="376" viewBox="0 0 566 376" fill="none" xmlns="http://www.w3.org/2000/svg">
<g clip-path="url(#clip0_31_3)">
<path d="M286.731 105.679C281.684 97.3282 275.704 88.4124 266.339 85.6857C255.493 82.5281 244.351 88.8008 234.901 94.9908C206.639 113.503 179.422 133.565 153.374 155.085L153.403 155.409C173.682 154.01 193.96 152.611 214.239 151.212C228.891 150.201 244.045 149.05 256.993 142.116C261.906 139.485 266.696 135.97 272.263 135.726C279.181 135.421 285.212 140.254 289.952 145.304C317.989 175.172 326.102 220.849 357.557 247.091C337.723 198.154 314.04 150.869 286.731 105.679Z" fill="#717171"/>
<path d="M459.072 359.02C455.971 355.103 454.705 354.186 451.646 350.233C426.744 318.012 403.338 284.702 381.428 250.305C366.546 226.943 352.402 203.133 338.996 178.874C332.614 167.341 326.406 155.717 320.374 144.003C315.693 134.92 311.116 125.783 306.644 116.592C305.365 113.967 304.122 111.329 302.886 108.686C299.972 102.47 297.113 96.2237 294.042 90.092C290.544 83.1034 286.285 75.7769 279.86 71.0816C276.936 68.8571 273.44 67.5112 269.78 67.2011C264.55 66.8631 259.724 69.0237 255.187 71.3834C221.997 88.6979 190.924 110.406 162.818 135.108C134.641 159.864 109.456 187.834 87.7746 218.446C87.1113 219.393 85.5427 218.488 86.2122 217.534C88.8485 213.805 91.537 210.115 94.2777 206.466C128.357 161.122 170.143 122.129 217.726 91.2689C225.731 86.0787 233.887 81.132 242.193 76.4286C246.38 74.0569 250.584 71.7153 254.861 69.5185C259.054 67.364 263.506 65.4267 268.296 65.3543C284.595 65.1009 293.035 83.5681 298.832 95.9943C300.654 99.905 302.498 103.804 304.364 107.69C311.416 122.446 318.739 137.067 326.334 151.553C331.021 160.497 335.811 169.389 340.703 178.228C355.929 205.754 372.112 232.723 389.252 259.134C411.959 294.119 434.484 325.025 460.351 357.741C461.063 358.646 459.79 359.937 459.072 359.02Z" fill="#707070"/>
<path d="M161.208 125.989C160.261 124.932 159.319 123.876 158.366 122.82C150.85 114.504 142.785 106.284 132.463 101.516C127.542 99.1713 122.169 97.9254 116.718 97.8652C111.084 97.8833 105.576 99.3619 100.371 101.432C97.9093 102.416 95.5022 103.532 93.1316 104.721C90.4229 106.085 87.7625 107.539 85.1145 109.006C80.1436 111.758 75.2372 114.631 70.3953 117.624C60.7614 123.581 51.4291 129.992 42.3986 136.858C37.7173 140.418 33.1326 144.096 28.6445 147.89C24.4701 151.414 20.3801 155.033 16.3746 158.747C15.518 159.537 14.239 158.258 15.0956 157.467C16.1513 156.484 17.219 155.506 18.2868 154.54C21.303 151.813 24.3676 149.137 27.4804 146.514C33.1567 141.722 38.9801 137.115 44.9504 132.694C54.2344 125.814 63.838 119.4 73.7612 113.454C78.72 110.485 83.7471 107.64 88.8423 104.92C90.3808 104.099 91.9372 103.297 93.5116 102.536C97.084 100.734 100.796 99.2219 104.611 98.0161C110.016 96.2669 115.734 95.705 121.375 96.3685C126.822 97.1611 132.07 98.9774 136.843 101.722C146.977 107.389 154.837 116.151 162.487 124.703C163.259 125.572 161.986 126.858 161.208 125.989Z" fill="#707070"/>
<path d="M368.859 212.168L393.143 203.282L405.201 198.87C409.128 197.433 413.045 195.797 417.105 194.768C420.632 193.76 424.378 193.808 427.879 194.905C431.001 196.061 433.859 197.834 436.283 200.117C438.759 202.398 441.063 204.86 443.176 207.481C445.801 210.638 448.387 213.827 450.985 217.005C461.707 230.124 472.36 243.3 482.942 256.532C493.523 269.764 504.034 283.053 514.475 296.397C524.941 309.775 535.334 323.208 545.656 336.697C546.921 338.35 548.184 340.003 549.446 341.657C550.144 342.571 551.716 341.67 551.009 340.743C540.611 327.118 530.14 313.549 519.597 300.036C509.029 286.49 498.387 273.002 487.672 259.572C476.957 246.141 466.17 232.769 455.31 219.455C452.605 216.138 449.895 212.825 447.181 209.515C444.891 206.724 442.627 203.902 440.116 201.303C435.506 196.534 429.747 192.319 422.853 192.204C418.799 192.137 414.876 193.424 411.11 194.787C407.051 196.256 403 197.753 398.946 199.237L374.491 208.185L368.378 210.422C367.293 210.819 367.761 212.569 368.859 212.168Z" fill="#707070"/>
<path d="M129.267 111.981C116.926 105.635 101.122 106.878 89.7815 114.806C111.413 118.539 132.807 123.535 153.855 129.767C145.115 124.642 138.278 116.614 129.267 111.981Z" fill="#717171"/>
<path d="M89.6601 114.784L87.2843 116.716C88.0879 116.04 88.9233 115.406 89.7815 114.806C89.741 114.799 89.7006 114.791 89.6601 114.784Z" fill="#717171"/>
<path d="M435.368 212.256C432.978 209.345 430.393 206.297 426.818 205.115L423.479 205.246C448.892 250.17 483.212 289.423 524.335 320.598C494.68 284.484 465.024 248.37 435.368 212.256Z" fill="#717171"/>
<path d="M227.78 188.241C229.325 193.856 232.805 198.744 237.605 202.039C239.461 203.303 241.657 204.516 242.291 206.67C242.625 208.043 242.42 209.493 241.717 210.719C241.015 211.929 240.161 213.044 239.176 214.037L239.086 214.374C234.481 211.644 230.099 208.191 227.555 203.478C225.012 198.766 224.656 192.59 227.78 188.241Z" fill="#717171"/>
<path d="M381.103 321.881C382.648 327.496 386.128 332.383 390.928 335.678C392.784 336.943 394.98 338.155 395.615 340.31C395.948 341.683 395.743 343.132 395.04 344.358C394.338 345.568 393.484 346.684 392.499 347.677L392.409 348.014C387.804 345.284 383.422 341.83 380.879 337.118C378.335 332.406 377.979 326.23 381.103 321.881Z" fill="#717171"/>
<path d="M75.1149 312.664C76.6597 318.279 80.1401 323.167 84.9401 326.462C86.7959 327.726 88.9915 328.939 89.6264 331.093C89.9603 332.466 89.7546 333.916 89.0515 335.142C88.3497 336.352 87.4958 337.467 86.5107 338.46L86.4207 338.798C81.8155 336.067 77.4343 332.614 74.8904 327.902C72.3465 323.189 71.9913 317.014 75.1149 312.664Z" fill="#717171"/>
<path d="M427.231 67.149C445.766 67.149 460.791 52.1172 460.791 33.5745C460.791 15.0318 445.766 0 427.231 0C408.696 0 393.671 15.0318 393.671 33.5745C393.671 52.1172 408.696 67.149 427.231 67.149Z" fill="#34D399"/>
<path d="M487.794 7.81456C471.529 5.61514 452.961 14.4101 448.745 30.2789C447.683 27.4574 445.751 25.0468 443.23 23.3955C440.708 21.7441 437.727 20.9374 434.718 21.0919C431.708 21.2464 428.825 22.3541 426.486 24.255C424.147 26.156 422.472 28.7516 421.704 31.6671L423.566 33.0013C458.421 40.5419 494.501 40.3787 529.286 32.5231C517.972 20.6279 504.059 10.0139 487.794 7.81456Z" fill="#707070"/>
<path d="M418.042 52.5805C401.777 50.3811 383.208 59.1761 378.993 75.0448C377.931 72.2234 375.999 69.8128 373.478 68.1614C370.956 66.5101 367.975 65.7033 364.965 65.8579C361.956 66.0124 359.073 67.1201 356.734 69.021C354.394 70.9219 352.72 73.5176 351.952 76.4331L353.814 77.7673C388.668 85.3079 424.748 85.1447 459.534 77.2891C448.22 65.3939 434.306 54.7799 418.042 52.5805Z" fill="#707070"/>
<path d="M559.999 61.0451C559.931 61.0453 559.864 61.0349 559.8 61.0143C385.81 5.9665 232.462 13.165 134.457 28.8972C121.119 31.0374 107.746 33.5093 94.7088 36.2449C91.3803 36.9424 87.9272 37.6901 84.4455 38.4686C80.2875 39.395 76.1847 40.3491 72.2506 41.3032C70.5516 41.7056 68.8857 42.1113 67.253 42.5202C64.7799 43.1309 62.2705 43.7674 59.5805 44.4668C56.5746 45.2421 53.5206 46.0554 50.5013 46.8841C50.4902 46.888 50.479 46.8912 50.4675 46.8937L50.4679 46.8944C47.0575 47.8259 43.6651 48.7845 40.3846 49.7418C38.609 50.2548 36.8945 50.7608 35.2523 51.2603C35.0688 51.3111 34.9063 51.3599 34.7414 51.4101L34.3886 51.5174C34.1843 51.5798 33.9825 51.6409 33.7807 51.6987L33.7679 51.7026L33.7682 51.7033L33.2342 51.8692C32.5973 52.062 31.9759 52.2504 31.3648 52.4381C15.2133 57.4193 6.33425 60.9629 6.24654 60.9976C6.16633 61.0298 6.08057 61.0458 5.99416 61.0448C5.90775 61.0438 5.82238 61.0258 5.74293 60.9918C5.66347 60.9578 5.59149 60.9085 5.53108 60.8467C5.47068 60.7849 5.42305 60.7117 5.39089 60.6315C5.35874 60.5512 5.34271 60.4654 5.3437 60.379C5.34469 60.2925 5.36269 60.2071 5.39668 60.1276C5.43066 60.0482 5.47996 59.9761 5.54176 59.9157C5.60356 59.8553 5.67665 59.8076 5.75686 59.7755C5.84523 59.7407 14.7676 56.1791 30.978 51.1793C31.5913 50.991 32.2143 50.8026 32.8531 50.6091L33.3492 50.4548C33.3662 50.4484 33.3833 50.4432 33.4006 50.4381C33.6014 50.3809 33.8019 50.3198 34.0056 50.2581L34.3591 50.1507C34.5351 50.0973 34.7086 50.0446 34.8863 49.9958C36.5173 49.4994 38.2376 48.9922 40.0176 48.4772C43.2995 47.5193 46.6951 46.5608 50.108 45.6279C50.1186 45.6241 50.1295 45.6215 50.1401 45.6183C53.1701 44.787 56.2353 43.9699 59.2508 43.192C61.945 42.4919 64.4592 41.8541 66.9365 41.2421C68.5761 40.8339 70.2452 40.4273 71.9438 40.0225C75.8824 39.0672 79.9935 38.1119 84.1589 37.1835C87.6461 36.4043 91.105 35.6547 94.4389 34.9565C107.497 32.2165 120.891 29.7407 134.248 27.5973C232.394 11.8426 385.962 4.63248 560.196 59.7593C560.346 59.8066 560.474 59.906 560.557 60.0395C560.64 60.173 560.673 60.3318 560.649 60.4871C560.625 60.6425 560.546 60.7842 560.427 60.8865C560.308 60.9888 560.156 61.0451 559.999 61.0451Z" fill="#707070"/>
<path d="M173.057 276.39C172.829 275.724 172.445 275.121 171.938 274.633C171.751 274.459 171.548 274.302 171.333 274.165C169.615 273.02 167.049 272.763 165.417 274.165C165.253 274.308 165.101 274.464 164.963 274.633C164.476 275.232 163.976 275.818 163.463 276.39C162.62 277.352 161.758 278.28 160.857 279.182C160.6 279.432 160.344 279.689 160.08 279.939C159.929 280.09 159.778 280.235 159.626 280.38C159.047 280.933 158.455 281.466 157.856 281.993C157.54 282.276 157.224 282.552 156.902 282.822C156.422 283.224 155.941 283.625 155.454 284.014C155.408 284.047 155.362 284.08 155.316 284.119C155.303 284.126 155.296 284.139 155.283 284.145C155.277 284.145 155.27 284.145 155.263 284.159C155.246 284.166 155.23 284.177 155.217 284.192C155.073 284.29 154.974 284.356 154.902 284.415C154.928 284.402 154.954 284.382 154.981 284.369C154.862 284.461 154.737 284.554 154.619 284.646C153.467 285.495 152.289 286.311 151.085 287.075C148.106 288.983 144.976 290.645 141.728 292.045C141.51 292.131 141.287 292.223 141.063 292.309C132.558 295.795 123.331 297.155 114.182 296.272C113.248 296.199 112.313 296.101 111.379 295.976C110.3 295.818 109.227 295.627 108.161 295.409C104.103 294.599 100.132 293.4 96.3032 291.828C91.5141 289.634 86.9592 286.961 82.7081 283.849C82.0501 283.382 81.3855 282.914 80.7208 282.46C81.4776 280.604 82.2212 278.747 82.945 276.878C83.3069 275.976 83.6557 275.074 83.9979 274.165C86.6893 267.167 89.2161 260.104 91.6377 253.013C94.0856 245.831 96.3953 238.607 98.5669 231.341C98.7906 230.604 99.0078 229.867 99.2183 229.129C100.357 225.291 101.449 221.445 102.495 217.589C102.594 217.214 102.699 216.845 102.791 216.47C103.094 215.364 103.39 214.258 103.68 213.152C104.338 210.657 102.851 207.675 100.232 207.076C98.9707 206.752 97.6335 206.931 96.5017 207.574C95.37 208.218 94.5321 209.276 94.1646 210.525C93.8816 211.592 93.5987 212.652 93.3091 213.718C91.9207 218.873 90.4598 224.01 88.9266 229.129C88.7029 229.867 88.4791 230.604 88.2554 231.341C84.8731 242.493 81.1595 253.533 77.1148 264.462C76.6278 265.785 76.1343 267.104 75.6342 268.418C75.3907 269.063 75.1472 269.708 74.8972 270.354C74.4168 271.624 73.9233 272.895 73.4298 274.165C73.1468 274.909 72.8572 275.653 72.5677 276.39C72.3769 276.858 72.1927 277.325 72.0084 277.786C70.1322 277.112 68.1884 276.644 66.2111 276.39L65.8952 276.351C64.3623 276.166 62.8119 276.18 61.2824 276.39C58.9931 276.658 56.7904 277.425 54.8301 278.637C52.8698 279.85 51.1997 281.479 49.9378 283.408C46.7989 288.352 46.8384 295.423 51.2407 299.623C55.7746 303.948 62.6379 303.915 67.9746 301.209C70.8027 299.678 73.1874 297.443 74.8972 294.718C75.5522 293.731 76.1541 292.709 76.7002 291.657C76.8384 291.749 76.9766 291.841 77.1148 291.94C77.6412 292.309 78.1676 292.684 78.6875 293.053C81.7165 295.248 84.9084 297.209 88.2357 298.918C95.3898 302.476 103.091 304.806 111.017 305.811C111.195 305.831 111.366 305.857 111.543 305.877C112.419 305.989 113.3 306.074 114.182 306.147C126.831 307.1 139.495 304.511 150.756 298.668C151.71 298.174 152.655 297.656 153.592 297.114C155.046 296.272 156.468 295.376 157.856 294.428C158.613 293.915 159.35 293.395 160.08 292.848C163.272 290.497 166.247 287.864 168.97 284.982C170.004 283.895 170.993 282.774 171.938 281.617C172.832 280.671 173.347 279.43 173.386 278.128C173.381 277.534 173.269 276.945 173.057 276.39ZM64.0922 292.072C64.2304 291.973 64.3686 291.868 64.5002 291.762C64.4607 291.861 64.2698 291.973 64.0922 292.072ZM66.2045 289.945C66.0532 290.116 65.915 290.288 65.7636 290.459C65.3032 290.974 64.8085 291.458 64.283 291.907C64.2106 291.973 64.1317 292.039 64.0527 292.098C64.0518 292.098 64.051 292.098 64.0502 292.098C64.0494 292.099 64.0486 292.099 64.048 292.1C64.0474 292.101 64.0469 292.101 64.0466 292.102C64.0463 292.103 64.0461 292.104 64.0461 292.105C63.9511 292.147 63.8588 292.195 63.7697 292.249C63.4868 292.421 63.1972 292.579 62.9012 292.723C62.3214 292.937 61.7249 293.102 61.1179 293.217C60.6514 293.251 60.1833 293.256 59.7162 293.23H59.7031C59.3808 293.159 59.0623 293.071 58.7489 292.967C58.591 292.888 58.4396 292.796 58.2883 292.704C58.2291 292.651 58.1764 292.598 58.1435 292.565C58.0792 292.507 58.0198 292.443 57.9659 292.375C57.9659 292.374 57.9657 292.373 57.9654 292.372C57.9651 292.371 57.9646 292.37 57.964 292.37C57.9634 292.369 57.9626 292.369 57.9618 292.368C57.961 292.368 57.9602 292.368 57.9593 292.368C57.8869 292.236 57.8079 292.105 57.7356 291.973C57.7318 291.97 57.7295 291.965 57.729 291.96C57.6764 291.795 57.6303 291.624 57.5908 291.453C57.5765 291.152 57.5787 290.851 57.5974 290.551C57.6857 290.13 57.8044 289.717 57.9527 289.313C58.086 289.027 58.2376 288.75 58.4068 288.484C58.4199 288.457 58.4857 288.352 58.5581 288.234C58.5647 288.227 58.5647 288.227 58.5647 288.221C58.6634 288.109 58.7621 287.99 58.8674 287.885C59.0451 287.687 59.2359 287.516 59.4267 287.338C59.7979 287.095 60.1823 286.873 60.5783 286.673C61.2065 286.45 61.8511 286.276 62.5064 286.153C63.4726 286.077 64.4437 286.085 65.4083 286.18C66.322 286.338 67.2235 286.56 68.1063 286.845C67.5712 287.883 66.9621 288.882 66.2835 289.833C66.2571 289.873 66.2308 289.912 66.2045 289.945ZM58.8871 287.779C58.8291 287.872 58.7607 287.959 58.6831 288.036C58.7353 287.939 58.8044 287.852 58.8871 287.779Z" fill="#3F3D56"/>
<path d="M153.276 209.156C153.217 211.223 153.158 213.29 153.099 215.357C152.974 219.946 152.844 224.537 152.71 229.129C152.572 234.297 152.427 239.463 152.276 244.626C152.204 247.293 152.129 249.959 152.052 252.625C151.848 259.807 151.646 266.987 151.447 274.165C151.427 274.909 151.401 275.647 151.381 276.39C151.282 279.952 151.184 283.513 151.085 287.075C150.973 290.939 150.863 294.804 150.756 298.668C150.677 301.565 150.596 304.463 150.512 307.365C149.92 328.385 149.328 349.405 148.736 370.425C148.711 371.727 148.183 372.968 147.263 373.889C146.342 374.809 145.102 375.338 143.8 375.363C142.495 375.352 141.246 374.829 140.322 373.905C139.399 372.981 138.876 371.732 138.865 370.425C139.194 358.602 139.528 346.778 139.865 334.955C140.162 324.264 140.462 313.573 140.767 302.881C140.866 299.359 140.964 295.835 141.063 292.309C141.214 287.003 141.364 281.697 141.51 276.39C141.53 275.647 141.557 274.909 141.576 274.165C141.589 273.514 141.609 272.868 141.629 272.217C141.918 261.914 142.208 251.609 142.498 241.302C142.616 237.247 142.73 233.189 142.84 229.129C142.971 224.501 143.103 219.876 143.235 215.252C143.294 213.218 143.346 211.19 143.406 209.156C143.431 207.854 143.959 206.613 144.879 205.692C145.799 204.772 147.04 204.243 148.341 204.218C149.647 204.229 150.896 204.753 151.819 205.676C152.742 206.6 153.266 207.85 153.276 209.156Z" fill="#3F3D56"/>
<path d="M424.012 210.526C418.837 230.131 412.651 249.454 405.481 268.42C403.502 273.651 401.478 278.872 399.314 284.03L399.812 282.85C398.846 285.307 397.612 287.65 396.133 289.836C396.033 289.977 395.93 290.117 395.826 290.255C396.338 289.601 396.435 289.472 396.118 289.868C395.95 290.066 395.785 290.264 395.612 290.457C395.152 290.973 394.658 291.457 394.133 291.908C394 292.021 393.866 292.131 393.73 292.24L394.347 291.76C394.276 291.929 393.773 292.153 393.616 292.249C393.109 292.555 392.58 292.823 392.034 293.051L393.213 292.553C392.317 292.914 391.383 293.17 390.428 293.317L391.74 293.141C390.803 293.27 389.852 293.281 388.912 293.171L390.224 293.347C389.455 293.242 388.702 293.039 387.984 292.744L389.163 293.242C388.779 293.074 388.41 292.877 388.058 292.652C387.879 292.535 387.331 292.119 388.048 292.668C388.794 293.238 388.144 292.717 387.99 292.565C387.863 292.439 387.747 292.302 387.622 292.173C387.042 291.578 388.278 293.198 387.883 292.502C387.672 292.153 387.48 291.793 387.305 291.424L387.803 292.604C387.576 292.042 387.416 291.457 387.324 290.858L387.5 292.171C387.406 291.427 387.405 290.674 387.498 289.929L387.322 291.242C387.442 290.411 387.662 289.598 387.976 288.819L387.479 289.999C387.698 289.475 387.957 288.969 388.254 288.485C388.391 288.235 388.551 287.999 388.733 287.78C388.766 287.791 387.899 288.776 388.359 288.278C388.479 288.148 388.592 288.011 388.713 287.882C388.908 287.676 389.117 287.487 389.323 287.291C390.01 286.636 388.361 287.927 389.154 287.409C389.729 287.031 390.334 286.701 390.963 286.422L389.784 286.92C390.838 286.487 391.942 286.19 393.071 286.038L391.759 286.214C393.173 286.051 394.601 286.068 396.01 286.264L394.698 286.088C396.483 286.359 398.227 286.85 399.891 287.549L398.712 287.052C402.259 288.575 405.4 290.836 408.536 293.054C411.564 295.248 414.755 297.208 418.081 298.918C425.236 302.476 432.937 304.807 440.864 305.813C452.232 307.206 463.768 305.721 474.413 301.493C485.058 297.266 494.471 290.432 501.789 281.618C502.682 280.671 503.196 279.428 503.235 278.127C503.225 276.819 502.707 275.567 501.789 274.635C499.978 272.973 496.558 272.503 494.809 274.635C493.152 276.659 491.371 278.578 489.475 280.381C488.59 281.221 487.681 282.035 486.749 282.823C486.217 283.273 485.677 283.714 485.13 284.147C484.871 284.351 484.065 284.896 485.303 284.017C485.019 284.218 484.747 284.438 484.467 284.645C480.323 287.702 475.832 290.257 471.087 292.259L472.266 291.761C467.176 293.897 461.829 295.363 456.361 296.121L457.673 295.944C452.048 296.685 446.349 296.676 440.726 295.919L442.038 296.096C436.416 295.323 430.918 293.825 425.681 291.639L426.86 292.136C421.806 289.899 417.01 287.12 412.557 283.847C410.239 282.13 407.794 280.591 405.244 279.243C402.273 277.725 399.056 276.747 395.743 276.354C389.532 275.623 383.203 278.043 379.788 283.411C376.646 288.352 376.686 295.422 381.087 299.623C385.619 303.95 392.483 303.913 397.825 301.206C402.969 298.6 406.058 293.185 408.231 288.078C413.121 276.587 417.451 264.83 421.484 253.014C425.475 241.323 429.094 229.515 432.341 217.587C432.743 216.11 433.139 214.631 433.53 213.151C434.189 210.657 432.7 207.674 430.083 207.078C428.822 206.753 427.483 206.931 426.351 207.574C425.218 208.218 424.38 209.276 424.012 210.526Z" fill="#3F3D56"/>
<path d="M473.255 209.156L471.478 272.218L469.711 334.953L468.712 370.426C468.723 371.732 469.247 372.981 470.17 373.905C471.093 374.828 472.342 375.352 473.647 375.363C474.948 375.338 476.189 374.81 477.109 373.889C478.029 372.969 478.557 371.727 478.583 370.426L480.359 307.363L482.126 244.628L483.125 209.156C483.114 207.85 482.591 206.6 481.668 205.677C480.744 204.753 479.496 204.229 478.19 204.218C476.889 204.243 475.648 204.772 474.728 205.692C473.808 206.613 473.28 207.854 473.255 209.156Z" fill="#3F3D56"/>
<path opacity="0.2" d="M302.429 352.819H303.962V283.009H339.712V281.48H303.962V252.023H331.57C331.165 251.508 330.749 251 330.32 250.498H303.962V231.043C303.455 230.826 302.944 230.618 302.429 230.422V250.498H272.388V225.571C271.873 225.594 271.367 225.629 270.856 225.673V250.498H246.89V231.9C246.375 232.128 245.868 232.368 245.365 232.619V250.498H225.219V252.023H245.365V281.48H225.219V283.009H245.365V352.819H246.89V283.009C250.037 283.008 253.154 283.628 256.062 284.833C258.97 286.037 261.612 287.803 263.838 290.03C266.063 292.256 267.829 294.9 269.033 297.809C270.237 300.718 270.856 303.836 270.856 306.985V352.819H272.388V283.009H302.429V352.819ZM246.89 281.48V252.023H270.856V281.48H246.89ZM272.388 281.48V252.023H272.989C276.856 252.024 280.684 252.786 284.256 254.266C287.828 255.747 291.073 257.916 293.807 260.652C296.541 263.387 298.709 266.634 300.189 270.208C301.668 273.781 302.429 277.612 302.429 281.48H272.388Z" fill="black"/>
<path d="M293.07 331.887C291.141 340.497 286.519 348.268 279.876 354.073C279.389 354.494 278.902 354.902 278.396 355.304C277.165 355.416 275.943 355.53 274.73 355.646C273.724 355.738 272.73 355.837 271.743 355.929L271.565 355.949L271.44 354.869L270.94 350.498C269 347.329 267.798 343.764 267.422 340.067C267.046 336.371 267.506 332.637 268.769 329.142C270.506 324.455 273.651 320.314 276.744 316.206C281.015 310.531 285.167 304.922 285.318 298.003C287.42 300.693 289.167 303.643 290.517 306.779C289.243 307.379 288.099 308.222 287.148 309.26C286.878 309.557 286.608 309.971 286.792 310.327C286.95 310.63 287.345 310.702 287.687 310.742C288.51 310.827 289.339 310.913 290.161 310.998C290.82 311.071 291.478 311.137 292.136 311.209C292.932 313.823 293.472 316.509 293.748 319.227C294.191 323.457 293.962 327.729 293.07 331.887Z" fill="#3F3D56"/>
<path d="M314.917 314.632C311.035 317.457 308.764 321.519 307.001 325.995C305.193 326.574 303.567 327.613 302.283 329.01C302.013 329.306 301.743 329.721 301.927 330.077C302.085 330.38 302.48 330.452 302.822 330.491C303.645 330.577 304.474 330.663 305.296 330.748C303.533 336.041 301.914 341.518 298.795 345.988C296.721 348.94 294.017 351.393 290.879 353.171C290.023 353.658 289.14 354.096 288.233 354.481C284.891 354.737 281.611 355.012 278.396 355.304C277.165 355.416 275.943 355.53 274.73 355.646C273.724 355.738 272.73 355.837 271.743 355.929C271.736 355.567 271.736 355.205 271.743 354.843C271.951 345.198 275.498 335.923 281.778 328.602C282.074 328.26 282.377 327.924 282.686 327.588C285.868 324.188 289.609 321.36 293.748 319.228C300.269 315.836 307.577 314.249 314.917 314.632Z" fill="#34D399"/>
<path d="M275.869 352.269L275.112 354.507L274.731 355.646C273.724 355.738 272.73 355.837 271.743 355.929L271.565 355.949C270.473 356.061 269.387 356.173 268.301 356.285C268.018 355.955 267.736 355.62 267.459 355.277C260.591 346.956 257.294 336.254 258.289 325.508C259.284 314.763 264.49 304.848 272.77 297.931C271.901 302.48 272.914 306.838 274.579 311.163C274.401 311.235 274.23 311.308 274.066 311.387C272.792 311.987 271.648 312.83 270.697 313.869C270.427 314.165 270.157 314.58 270.341 314.935C270.499 315.238 270.894 315.31 271.236 315.35C272.059 315.436 272.888 315.521 273.711 315.607C274.369 315.679 275.027 315.745 275.685 315.817C275.994 315.85 276.303 315.883 276.612 315.916C276.659 316.015 276.698 316.107 276.744 316.206C278.62 320.274 280.64 324.362 281.778 328.602C282.064 329.666 282.288 330.745 282.449 331.834C282.956 335.516 282.628 339.265 281.488 342.802C280.349 346.34 278.429 349.575 275.869 352.269Z" fill="#34D399"/>
<path d="M342.106 256.786C336.441 245.731 327.664 236.43 317.342 229.595C306.987 222.769 295.105 218.612 282.754 217.495C281.135 217.348 279.512 217.262 277.885 217.236C275.963 217.208 247.046 225.552 237.359 232.366C227.677 239.097 219.712 248.01 214.108 258.388C208.514 268.821 205.762 280.544 206.129 292.379C206.609 304.285 209.926 315.904 215.804 326.267C221.602 336.596 229.835 345.353 239.786 351.774C249.879 358.217 260.017 375.3 271.934 375.903C283.94 376.51 297.633 360.396 308.583 355.503C319.534 350.57 329.001 342.851 336.04 333.117C342.881 323.577 347.307 312.52 348.937 300.893C350.631 288.989 349.842 276.711 345.778 265.333C344.735 262.41 343.509 259.555 342.106 256.786C340.935 254.478 337.502 253.629 335.353 255.015C334.246 255.697 333.445 256.779 333.115 258.037C332.785 259.295 332.953 260.632 333.583 261.77C334.271 263.125 334.91 264.503 335.501 265.903L335.004 264.723C337.241 270.105 338.762 275.757 339.529 281.536L339.352 280.223C340.168 286.492 340.153 292.841 339.309 299.105L339.485 297.793C338.632 304.057 336.961 310.182 334.514 316.011L335.012 314.832C333.753 317.806 332.286 320.688 330.621 323.455C329.778 324.853 328.883 326.218 327.936 327.551C327.521 328.135 327.092 328.71 326.66 329.283C326.097 330.03 327.428 328.306 326.846 329.04C326.747 329.165 326.648 329.29 326.549 329.414C326.25 329.788 325.947 330.159 325.639 330.525C323.588 332.974 321.349 335.26 318.943 337.361C318.344 337.885 317.734 338.396 317.115 338.896C316.807 339.145 316.502 339.405 316.18 339.636C316.192 339.627 317.219 338.847 316.611 339.3C316.42 339.442 316.231 339.587 316.039 339.729C314.763 340.675 313.452 341.573 312.108 342.423C309.013 344.374 305.766 346.072 302.398 347.501L303.577 347.003C297.768 349.449 291.662 351.121 285.417 351.974L286.729 351.798C280.488 352.642 274.161 352.653 267.917 351.831L269.229 352.008C263.553 351.245 258.001 349.744 252.715 347.541L253.894 348.039C250.832 346.745 247.879 345.206 245.066 343.437C243.673 342.559 242.317 341.627 240.997 340.64C240.808 340.5 240.621 340.357 240.434 340.215C239.831 339.761 240.867 340.551 240.875 340.556C240.525 340.305 240.188 340.036 239.865 339.75C239.227 339.231 238.6 338.699 237.982 338.156C235.511 335.978 233.203 333.622 231.077 331.105C230.545 330.476 230.024 329.838 229.515 329.189C229.294 328.909 228.892 328.34 229.781 329.538C229.664 329.38 229.543 329.225 229.424 329.069C229.141 328.692 228.861 328.313 228.585 327.931C227.619 326.593 226.7 325.223 225.829 323.819C223.861 320.643 222.144 317.317 220.693 313.873L221.19 315.053C218.816 309.4 217.192 303.46 216.36 297.385L216.536 298.698C215.786 293.098 215.776 287.424 216.505 281.821L216.328 283.134C217.076 277.708 218.535 272.405 220.668 267.361L220.17 268.54C221.512 265.383 223.095 262.333 224.905 259.418C225.811 257.96 226.771 256.537 227.786 255.149C228.016 254.834 228.249 254.521 228.485 254.209C228.698 253.928 229.284 253.226 228.284 254.465C228.382 254.344 228.476 254.219 228.573 254.096C229.13 253.391 229.7 252.696 230.284 252.013C232.493 249.425 234.887 247 237.445 244.757C238.092 244.19 238.749 243.636 239.416 243.092C239.719 242.846 240.024 242.602 240.331 242.36C240.454 242.263 240.578 242.168 240.701 242.071C239.386 243.118 240.336 242.356 240.634 242.132C242.009 241.102 243.42 240.123 244.869 239.195C248.088 237.135 251.475 235.35 254.994 233.858L253.815 234.355C258.921 232.21 281.545 227.147 285.66 227.7L284.348 227.524C290.396 228.368 296.307 230.002 301.93 232.383L300.751 231.886C303.601 233.096 306.371 234.488 309.043 236.052C310.378 236.835 311.687 237.661 312.97 238.529C313.577 238.94 314.177 239.361 314.771 239.79C315.068 240.005 315.364 240.222 315.657 240.441C315.821 240.563 315.982 240.686 316.145 240.808C316.829 241.321 315.203 240.066 315.92 240.633C318.319 242.519 320.598 244.553 322.743 246.725C323.796 247.798 324.813 248.905 325.794 250.046C326.297 250.631 326.79 251.226 327.272 251.828C327.512 252.128 328.328 253.211 327.328 251.884C327.572 252.208 327.819 252.531 328.061 252.858C330.14 255.673 331.987 258.654 333.583 261.77C334.763 264.073 338.18 264.931 340.335 263.541C341.443 262.86 342.245 261.777 342.575 260.519C342.904 259.261 342.736 257.924 342.106 256.786Z" fill="#3F3D56"/>
<path d="M284.6 337.361C284.09 337.385 283.586 337.251 283.155 336.978C282.724 336.705 282.388 336.306 282.191 335.836C281.994 335.365 281.947 334.845 282.055 334.347C282.164 333.848 282.423 333.395 282.797 333.049C282.86 332.799 282.905 332.62 282.968 332.371C282.945 332.316 282.923 332.262 282.9 332.208C280.61 326.745 265.998 341.973 265.366 347.107C265.088 349.376 265.206 351.677 265.713 353.906C260.98 343.577 258.523 332.35 258.507 320.988C258.506 318.137 258.664 315.287 258.981 312.454C259.243 310.131 259.606 307.824 260.071 305.534C262.608 293.11 268.055 281.464 275.964 271.554C280.487 271.807 284.451 271.117 284.834 262.347C284.902 260.787 286.059 259.436 286.314 257.9C285.882 257.956 285.443 257.992 285.011 258.02C284.876 258.027 284.735 258.034 284.6 258.041L284.55 258.044C284.075 258.065 283.605 257.948 283.195 257.708C282.785 257.468 282.453 257.115 282.239 256.69C282.025 256.266 281.938 255.789 281.989 255.316C282.04 254.844 282.226 254.396 282.526 254.027C282.712 253.797 282.899 253.568 283.085 253.339C283.369 252.985 283.659 252.638 283.942 252.283C283.975 252.25 284.005 252.214 284.034 252.177C284.36 251.773 284.685 251.377 285.011 250.973C284.417 250.05 283.617 249.277 282.675 248.714C279.411 246.802 274.909 248.126 272.552 251.079C270.187 254.033 269.741 258.176 270.562 261.866C271.37 265.005 272.706 267.985 274.513 270.676C274.336 270.903 274.152 271.122 273.975 271.349C270.739 275.511 267.92 279.98 265.556 284.692C266.225 279.466 258.047 260.592 254.884 256.594C251.085 251.792 243.295 253.888 242.626 259.975C242.62 260.034 242.613 260.093 242.607 260.152C243.077 260.417 243.537 260.698 243.987 260.996C244.552 261.374 244.99 261.914 245.243 262.545C245.496 263.176 245.553 263.869 245.406 264.533C245.259 265.197 244.915 265.801 244.419 266.266C243.923 266.73 243.298 267.035 242.626 267.138L242.557 267.149C236.269 276.131 256.427 299.509 261.473 294.26C259.098 300.993 257.608 308.006 257.041 315.124C256.72 319.323 256.739 323.541 257.098 327.737L257.077 327.588C255.956 318.449 236.723 304.861 231.106 305.993C227.871 306.645 224.684 306.497 225.176 309.762C225.183 309.814 225.191 309.866 225.199 309.918C226.071 310.274 226.92 310.683 227.741 311.144C228.211 311.409 228.67 311.69 229.12 311.988C229.685 312.366 230.123 312.905 230.377 313.536C230.63 314.168 230.687 314.86 230.54 315.524C230.393 316.188 230.049 316.792 229.553 317.257C229.057 317.722 228.432 318.027 227.76 318.13L227.691 318.141C227.642 318.148 227.599 318.155 227.55 318.162C224.687 328.015 245.914 343.916 258.818 338.856H258.825C260.104 344.416 261.957 349.827 264.354 355.004H284.105C284.176 354.784 284.239 354.557 284.303 354.338C282.475 354.453 280.64 354.343 278.838 354.012C280.303 352.213 281.769 350.4 283.234 348.601C283.267 348.568 283.298 348.532 283.326 348.495C284.069 347.574 284.82 346.661 285.563 345.74L285.564 345.739C285.603 342.917 285.279 340.101 284.6 337.362L284.6 337.361ZM261.983 292.85L261.993 292.836L261.983 292.864V292.85ZM257.608 332.305L257.438 331.923C257.445 331.647 257.445 331.37 257.438 331.087C257.438 331.009 257.424 330.931 257.424 330.853C257.487 331.342 257.544 331.831 257.615 332.319L257.608 332.305Z" fill="#3F3D56"/>
<path d="M62.6774 296.245C66.6751 296.245 69.9158 293.003 69.9158 289.004C69.9158 285.004 66.6751 281.762 62.6774 281.762C58.6797 281.762 55.439 285.004 55.439 289.004C55.439 293.003 58.6797 296.245 62.6774 296.245Z" fill="#3F3D56"/>
<path d="M149.539 375.244C153.536 375.244 156.777 372.002 156.777 368.003C156.777 364.003 153.536 360.761 149.539 360.761C145.541 360.761 142.3 364.003 142.3 368.003C142.3 372.002 145.541 375.244 149.539 375.244Z" fill="#3F3D56"/>
<path d="M479.216 375.244C483.214 375.244 486.455 372.002 486.455 368.003C486.455 364.003 483.214 360.761 479.216 360.761C475.218 360.761 471.978 364.003 471.978 368.003C471.978 372.002 475.218 375.244 479.216 375.244Z" fill="#3F3D56"/>
<path d="M496.983 283.079C500.981 283.079 504.222 279.837 504.222 275.837C504.222 271.838 500.981 268.596 496.983 268.596C492.986 268.596 489.745 271.838 489.745 275.837C489.745 279.837 492.986 283.079 496.983 283.079Z" fill="#3F3D56"/>
<path d="M475.926 215.93C479.924 215.93 483.164 212.688 483.164 208.688C483.164 204.689 479.924 201.447 475.926 201.447C471.928 201.447 468.688 204.689 468.688 208.688C468.688 212.688 471.928 215.93 475.926 215.93Z" fill="#3F3D56"/>
<path d="M173.886 275.837C173.882 277.687 173.167 279.464 171.889 280.801C170.611 282.139 168.869 282.933 167.022 283.02C165.175 283.108 163.365 282.482 161.967 281.271C160.569 280.061 159.689 278.359 159.51 276.518C159.331 274.677 159.867 272.837 161.006 271.38C162.145 269.923 163.8 268.96 165.629 268.69C167.458 268.42 169.321 268.863 170.832 269.929C172.344 270.995 173.387 272.601 173.748 274.415C173.841 274.884 173.887 275.36 173.886 275.837Z" fill="#3F3D56"/>
<path d="M318.655 236.996C322.652 236.996 325.893 233.754 325.893 229.755C325.893 225.755 322.652 222.513 318.655 222.513C314.657 222.513 311.416 225.755 311.416 229.755C311.416 233.754 314.657 236.996 318.655 236.996Z" fill="#3F3D56"/>
<path d="M246.928 229.755C246.924 231.605 246.209 233.382 244.931 234.719C243.654 236.056 241.911 236.85 240.064 236.938C238.217 237.025 236.407 236.399 235.009 235.189C233.611 233.978 232.731 232.276 232.552 230.435C232.374 228.594 232.909 226.755 234.048 225.298C235.187 223.841 236.842 222.877 238.671 222.607C240.501 222.337 242.364 222.781 243.875 223.847C245.386 224.912 246.43 226.519 246.79 228.333C246.883 228.801 246.929 229.277 246.928 229.755Z" fill="#3F3D56"/>
<path d="M153.487 208.688C153.482 210.538 152.767 212.316 151.49 213.653C150.212 214.99 148.469 215.784 146.622 215.871C144.776 215.959 142.966 215.333 141.568 214.122C140.169 212.912 139.29 211.21 139.111 209.369C138.932 207.528 139.467 205.688 140.606 204.231C141.745 202.774 143.401 201.811 145.23 201.541C147.059 201.271 148.922 201.714 150.433 202.78C151.944 203.846 152.988 205.452 153.349 207.266C153.441 207.735 153.488 208.211 153.487 208.688Z" fill="#3F3D56"/>
<path d="M394.329 298.879C398.327 298.879 401.568 295.637 401.568 291.637C401.568 287.638 398.327 284.396 394.329 284.396C390.331 284.396 387.091 287.638 387.091 291.637C387.091 295.637 390.331 298.879 394.329 298.879Z" fill="#3F3D56"/>
<path d="M280.488 233.046C286.303 233.046 291.017 228.331 291.017 222.513C291.017 216.696 286.303 211.98 280.488 211.98C274.674 211.98 269.96 216.696 269.96 222.513C269.96 228.331 274.674 233.046 280.488 233.046Z" fill="#3F3D56"/>
<path d="M565.216 375.798L0.78351 376C0.680617 376 0.578729 375.98 0.483669 375.94C0.388609 375.901 0.30224 375.843 0.229484 375.77C0.156728 375.698 0.0990081 375.611 0.0596328 375.516C0.0202575 375.421 0 375.319 0 375.216C0 375.113 0.0202575 375.011 0.0596328 374.916C0.0990081 374.821 0.156728 374.735 0.229484 374.662C0.30224 374.589 0.388609 374.531 0.483669 374.492C0.578729 374.453 0.680617 374.432 0.78351 374.432L565.216 374.23C565.424 374.231 565.623 374.313 565.769 374.46C565.916 374.607 565.998 374.806 565.998 375.014C565.998 375.221 565.916 375.42 565.769 375.567C565.623 375.714 565.424 375.797 565.216 375.798Z" fill="#CACACA"/>
</g>
<defs>
<clipPath id="clip0_31_3">
<rect width="566" height="376" fill="white"/>
</clipPath>
</defs>
</svg>
