<svg width="711" height="607" viewBox="0 0 711 607" fill="none" xmlns="http://www.w3.org/2000/svg">
<g clip-path="url(#clip0_28_9)">
<path d="M504.512 142.039H501.226V52.071C501.226 45.2329 499.878 38.4618 497.259 32.1443C494.641 25.8267 490.803 20.0865 485.964 15.2512C481.126 10.416 475.382 6.58049 469.06 3.96368C462.738 1.34687 455.962 5.39277e-06 449.12 1.45738e-10H258.382C251.54 -1.61777e-05 244.764 1.34682 238.442 3.96362C232.12 6.58041 226.376 10.4159 221.538 15.2511C216.699 20.0864 212.861 25.8266 210.243 32.1441C207.624 38.4616 206.276 45.2327 206.276 52.0708V545.641C206.276 559.451 211.766 572.696 221.538 582.461C231.309 592.226 244.563 597.712 258.382 597.712H449.12C462.939 597.712 476.192 592.226 485.964 582.461C495.736 572.696 501.226 559.451 501.226 545.641V206.079H504.512L504.512 142.039Z" fill="#3F3D56"/>
<path d="M451.222 13.5471H426.325C427.47 16.3523 427.907 19.3958 427.597 22.4096C427.288 25.4234 426.242 28.3149 424.551 30.8294C422.86 33.3439 420.576 35.4042 417.9 36.8289C415.225 38.2536 412.24 38.9989 409.208 38.9991H299.937C296.905 38.9989 293.92 38.2536 291.245 36.8289C288.569 35.4042 286.285 33.3439 284.594 30.8294C282.903 28.3149 281.857 25.4234 281.548 22.4096C281.239 19.3958 281.676 16.3522 282.821 13.547H259.566C249.246 13.547 239.349 17.6439 232.051 24.9364C224.754 32.229 220.654 42.1197 220.654 52.4329V545.279C220.654 550.386 221.66 555.442 223.616 560.16C225.571 564.878 228.438 569.165 232.051 572.776C235.664 576.386 239.954 579.251 244.675 581.205C249.396 583.159 254.456 584.165 259.566 584.165H451.222C456.332 584.165 461.392 583.159 466.113 581.205C470.834 579.251 475.124 576.387 478.737 572.776C482.351 569.165 485.217 564.878 487.172 560.16C489.128 555.442 490.134 550.386 490.134 545.279V52.433C490.134 47.3264 489.128 42.2698 487.172 37.552C485.217 32.8341 482.351 28.5473 478.737 24.9365C475.124 21.3256 470.834 18.4612 466.113 16.507C461.392 14.5529 456.332 13.547 451.222 13.5471Z" fill="#222222"/>
<path d="M687.646 253.806C683.617 265.725 677.44 276.585 664.851 276.585C652.261 276.585 642.765 266.366 642.056 253.806C641.149 237.755 651.971 230.96 664.851 231.026C680.066 231.105 692.426 239.66 687.646 253.806Z" fill="#2F2E41"/>
<path d="M687.046 253.293H642.056V310.242H687.046V253.293Z" fill="#2F2E41"/>
<path d="M688.367 295.72H692.193C695.021 299.748 696.942 304.341 697.823 309.183C698.704 314.024 698.524 318.998 697.296 323.764C693.044 339.91 696.445 342.884 696.445 342.884C696.445 342.884 701.98 360.369 696.028 386.713C690.075 413.056 701.547 420.216 701.547 420.216L690.918 398.971L684.965 342.884L688.367 295.72Z" fill="#888888"/>
<path d="M674.973 275.113C674.973 275.113 671.572 288.71 673.273 288.71C674.973 288.71 680.926 295.933 680.926 295.933L684.753 309.954L681.776 320.152L671.572 318.027L658.816 304.006L654.99 300.182L651.588 287.86C651.588 287.86 655.84 282.761 652.864 278.512C649.888 274.263 674.973 275.113 674.973 275.113Z" fill="#FBBEBE"/>
<path d="M572.079 312.929L562.725 297.632C562.725 297.632 552.627 275.306 545.399 283.379C538.171 291.453 556.347 307.83 556.347 307.83L565.701 320.152L572.079 312.929Z" fill="#FBBEBE"/>
<path d="M696.233 445.922L689.43 495.635C689.43 495.635 690.28 499.459 681.776 513.481C673.273 527.502 650.313 558.095 650.313 558.095L643.51 545.348C643.51 545.348 651.588 504.983 665.619 496.485L663.919 435.299L696.233 445.922Z" fill="#FBBEBE"/>
<path d="M643.51 540.249L652.864 558.095C652.864 558.095 645.21 568.833 648.187 570.957C651.163 573.082 654.99 592.202 646.911 590.078C638.833 587.953 632.455 579.455 632.455 578.181C632.455 576.906 637.132 569.992 634.581 565.743C632.03 561.494 630.329 560.22 630.329 560.22L625.238 566.984L623.112 565.709L632.455 551.722C632.455 551.722 633.73 548.323 638.833 546.198L643.51 540.249Z" fill="#2F2E41"/>
<path d="M664.018 438.869C664.018 438.869 667.32 485.862 660.092 498.184V559.37L650.313 560.644C650.313 560.644 630.564 528.251 637.792 496.384C645.02 464.517 630.329 435.299 630.329 435.299L664.018 438.869Z" fill="#FBBEBE"/>
<path d="M661.58 285.523C671.443 285.523 679.438 277.533 679.438 267.677C679.438 257.821 671.443 249.831 661.58 249.831C651.718 249.831 643.722 257.821 643.722 267.677C643.722 277.533 651.718 285.523 661.58 285.523Z" fill="#FBBEBE"/>
<path d="M679.65 314.628L661.793 292.109L651.588 285.31L647.336 290.834L635.431 294.233C635.431 294.233 627.778 295.933 619.699 305.281C611.621 314.628 597.165 320.152 597.165 320.152C597.165 320.152 571.228 311.654 571.228 309.955C571.228 308.255 558.898 321.427 561.874 326.526C564.851 331.624 579.036 347.202 599.87 344.228C620.704 341.253 628.628 338.423 628.628 338.423C628.628 338.423 632.455 357.968 643.51 361.792C654.565 365.616 690.705 368.166 690.705 368.166L698.359 342.672C698.359 342.672 706.862 331.624 695.382 315.478C695.382 315.478 695.162 306.448 693.928 300.439C693.448 298.102 692.814 296.222 691.981 295.508C689.005 292.959 673.273 288.71 673.273 288.71C673.273 288.71 675.824 297.208 677.099 297.632C678.375 298.057 681.351 312.504 679.65 314.628Z" fill="#888888"/>
<path d="M625.037 490.977C646.449 489.489 658.916 492.995 664.477 495.667C665.511 496.135 669.368 497.116 669.368 497.277C669.368 498.552 697.348 501.756 707.978 499.206C718.608 496.657 698.146 392.597 693.469 387.923C688.792 383.249 691.313 366.143 691.313 366.143C691.313 366.143 648.399 360.305 644.573 359.455C642.863 359.077 642 359.714 641.571 360.539C640.902 361.775 639.893 362.794 638.663 363.475C629.636 368.671 622.391 404.6 616.936 424.465C610.983 446.134 625.037 490.977 625.037 490.977Z" fill="#2F2E41"/>
<path d="M661.793 555.546C661.793 555.546 666.794 573.802 669.871 588.263C669.871 588.263 671.997 593.282 679.65 597.106C687.304 600.93 678.352 607.28 671.124 606.856C663.896 606.431 657.093 607.28 656.242 605.156C655.392 603.031 652.864 593.787 652.864 593.787L651.468 606.575L647.216 607L648.612 590.387C648.612 590.387 645.21 584.014 649.887 573.391L648.707 557.086C648.707 557.086 660.517 559.795 661.793 555.546Z" fill="#2F2E41"/>
<path opacity="0.1" d="M661.903 446.151C662.937 446.619 663.911 447.21 664.803 447.91C665.028 443.895 666.329 419.612 664.769 420.003L661.903 446.151Z" fill="black"/>
<path d="M654.187 243.103C654.187 243.103 653.99 242.002 646.255 244.901C638.52 247.799 633.884 269.19 637.751 281.75C639.31 286.812 638.042 290.461 635.973 293.015C628.207 302.597 631.264 316.99 642.575 321.917C642.894 322.057 643.22 322.194 643.552 322.33L648.386 325.229C648.386 325.229 642.224 317.125 645.308 306.76C647.986 297.928 648.317 288.552 646.267 279.553C645.914 278.035 645.512 276.471 645.055 274.874C641.188 261.347 643.069 262.909 656.605 249.383C656.605 249.383 664.339 255.18 671.107 258.078C677.875 260.977 683.676 263.876 678.842 273.537C674.008 283.199 662.406 291.895 670.14 304.455C677.875 317.016 678.842 312.185 677.875 317.016L676.908 321.847L682.709 316.05L678.842 323.779C678.842 323.779 691.411 323.779 695.278 314.117L697.212 316.05C697.212 316.05 704.947 302.523 690.444 289.963C690.444 289.963 685.61 287.064 692.378 277.402C699.145 267.74 693.948 246.967 685.246 243.103C676.545 239.238 654.187 243.103 654.187 243.103Z" fill="#2F2E41"/>
<path d="M52.7242 267.132L52.0112 285.508L66.3133 286.063L67.0264 267.686L52.7242 267.132Z" fill="#6C63FF"/>
<path d="M117.241 331.489C117.241 331.489 137.047 322.033 136.731 330.2C136.414 338.367 116.766 343.74 116.766 343.74L117.241 331.489Z" fill="#FFB9B9"/>
<path d="M106.375 400.594C106.375 400.594 115.719 423.449 119.171 439.942C122.624 456.434 127.882 479.132 121.119 495.228C114.355 511.325 95.1264 558.634 94.9284 563.739C94.7303 568.843 96.5754 574.027 92.4891 573.868C88.4027 573.71 66.1656 566.714 65.2629 563.612C64.3601 560.509 72.8497 552.659 72.8497 552.659L93.8132 487.013L71.941 444.246L56.1647 508.048L53.0747 587.678C53.0747 587.678 37.9094 583 35.7078 587.004C35.7078 587.004 28.9133 577.539 28.0501 573.416C27.187 569.293 31.259 490.724 31.259 490.724C31.259 490.724 17.3386 401.233 28.576 401.668C39.8134 402.104 83.8291 375.182 106.375 400.594Z" fill="#2F2E41"/>
<path d="M92.6475 569.785C92.6475 569.785 103.013 592.68 103.995 593.74C104.977 594.801 111.732 605.287 106.624 605.089C101.516 604.891 89.4555 599.312 80.5782 590.788C71.7009 582.265 59.9965 567.497 61.0577 566.516C62.1189 565.534 69.3888 562.749 69.3888 562.749L92.6475 569.785Z" fill="#2F2E41"/>
<path d="M51.2296 582.494C51.2296 582.494 51.855 592.742 53.7398 596.905C55.6245 601.068 55.3868 607.193 50.2788 606.995C45.1709 606.797 31.9696 606.813 31.9696 606.813C31.9696 606.813 31.1857 600.648 32.2469 599.667C33.3081 598.686 37.8302 585.042 35.9059 581.9C33.9816 578.758 51.2296 582.494 51.2296 582.494Z" fill="#2F2E41"/>
<path d="M43.6729 249.911C43.6729 249.911 32.7836 266.871 28.5388 270.796C24.294 274.721 36.2361 283.363 36.2361 283.363L57.6101 286.237C57.6101 286.237 57.3412 266.8 58.442 264.798C59.5428 262.796 43.6729 249.911 43.6729 249.911Z" fill="#FFB9B9"/>
<path d="M62.251 272.102C62.251 272.102 57.8478 280.111 53.7614 279.953C49.6751 279.794 28.5388 270.796 27.6361 267.694C26.7333 264.591 20.635 289.916 20.635 289.916L72.3541 380.871L84.9696 372.158L78.8569 318.755L73.8366 289.933L62.251 272.102Z" fill="#888888"/>
<path d="M25.7284 353.504C27.8646 357.65 28.9539 362.255 28.9013 366.918C28.8934 367.123 28.8855 367.327 28.8673 367.53C28.3779 376.979 24.8948 387.907 23.6451 395.854C22.7384 401.555 22.9964 405.716 26.3348 406.694C34.4282 409.052 25.1547 410.738 56.4672 421.153C87.7797 431.568 93.2442 422.578 93.3234 420.536C93.4027 418.495 88.889 402.983 89.9502 402.002C91.0114 401.021 104.799 414.847 108.964 412.963C113.13 411.08 109.439 400.712 109.439 400.712C109.439 400.712 100.056 378.878 100.254 373.773C100.452 368.669 86.0391 344.594 86.0391 344.594L76.2363 280.824C76.2363 280.824 72.4668 272.498 67.3985 271.279C64.2056 270.616 60.8799 271.221 58.125 272.965L66.6062 291.697L75.5544 324.762L74.0575 336.973C74.0575 336.973 63.6519 315.099 56.8178 306.654C49.9836 298.21 35.4126 278.219 35.4126 278.219C35.4126 278.219 32.0108 266.749 34.5788 263.321C37.1473 259.883 23.8667 259.368 18.2042 273.463C15.203 280.933 10.3304 292.073 7.27806 302.444C4.5581 311.633 3.27325 320.223 5.96797 325.132C10.0865 332.633 20.4467 342.492 25.7284 353.504Z" fill="#3F3D56"/>
<path opacity="0.1" d="M5.96794 325.132C10.0865 332.633 20.4467 342.492 25.7284 353.504C27.1079 348.537 28.7909 343.398 28.7909 343.398C28.7909 343.398 35.2457 308.886 16.1526 299.966C12.9889 299.661 9.82489 300.544 7.27804 302.444C4.55807 311.633 3.27326 320.223 5.96794 325.132Z" fill="black"/>
<path d="M81.7631 322.958L97.95 327.675L120.425 328.546L122.737 348.061L85.8014 350.72C85.8014 350.72 76.576 324.801 81.7631 322.958Z" fill="#3F3D56"/>
<path d="M55.3682 388.576C55.3682 388.576 77.023 392.166 72.0805 398.678C67.138 405.19 47.9545 398.344 47.9545 398.344L55.3682 388.576Z" fill="#FFB9B9"/>
<path opacity="0.1" d="M28.8673 367.53C28.3779 376.979 24.8947 387.907 23.6451 395.854C30.5435 402.378 37.1035 408.133 39.5757 408.229C44.6836 408.427 52.8959 407.723 55.921 408.863C58.9462 410.002 60.7204 390.645 60.7204 390.645C60.7204 390.645 58.9149 384.44 50.8611 381.061C45.425 378.775 35.0047 372.574 28.8673 367.53Z" fill="black"/>
<path d="M16.3903 293.841C16.3903 293.841 -0.897417 291.126 0.0365268 319.79C0.97047 348.455 -1.78577 366.752 5.16725 372.133C12.1203 377.515 34.7055 401.906 39.8134 402.104C44.9214 402.302 53.1336 401.598 56.1587 402.737C59.1839 403.877 60.9582 384.52 60.9582 384.52C60.9582 384.52 59.1527 378.315 51.0989 374.936C43.0451 371.556 24.0708 359.574 24.2292 355.491C24.3876 351.407 29.0286 337.273 29.0286 337.273C29.0286 337.273 35.4834 302.76 16.3903 293.841Z" fill="#3F3D56"/>
<path d="M58.9174 275.024C71.3392 275.024 81.4091 264.96 81.4091 252.547C81.4091 240.134 71.3392 230.07 58.9174 230.07C46.4956 230.07 36.4257 240.134 36.4257 252.547C36.4257 264.96 46.4956 275.024 58.9174 275.024Z" fill="#FFB9B9"/>
<path d="M74.0616 220.332C74.6041 220.799 75.2538 221.124 75.9527 221.28C76.3036 221.342 76.665 221.264 76.958 221.061C77.251 220.858 77.4518 220.548 77.5166 220.197C77.9209 221.319 78.6726 222.282 79.6624 222.948C80.7131 223.495 82.3377 223.036 82.4891 221.862C82.6425 222.753 83.0372 223.586 83.6304 224.269C83.9397 224.596 84.3655 224.788 84.8155 224.803C85.2654 224.818 85.7031 224.655 86.0335 224.35C85.5734 226.862 85.8574 229.447 85.7129 231.997C85.5684 234.547 84.8878 237.251 82.9597 238.928C80.1477 241.374 75.9191 240.77 72.2202 240.307C71.6608 240.19 71.0804 240.221 70.5372 240.399C69.1522 240.989 69.215 242.915 69.1963 244.42C69.0833 247.059 68.038 249.573 66.2458 251.515C64.4537 253.458 62.0307 254.702 59.4073 255.029C57.9391 255.255 56.441 254.89 55.2423 254.013C54.192 253.123 53.6556 251.673 52.4521 251.005C50.4946 249.918 48.1204 251.503 46.6892 253.225C45.2579 254.946 43.8473 257.063 41.6302 257.378C38.6978 257.795 36.4644 254.809 35.3686 252.059C33.8568 248.205 33.1325 244.087 33.2385 239.949C33.3444 235.81 34.2783 231.735 35.9853 227.963C42.1082 214.625 63.024 212.516 74.0616 220.332Z" fill="#2F2E41"/>
<path d="M139.531 319.047C146.898 310.756 159.243 311.375 168.775 315.092C180.572 319.692 189.107 329.924 198.633 337.822C203.533 342.029 209.034 345.481 214.955 348.064C220.859 350.515 227.13 351.971 233.511 352.372C245.931 353.207 258.275 349.884 268.595 342.927C278.267 336.339 285.726 326.987 289.994 316.095C290.509 314.766 290.967 313.416 291.377 312.051C291.834 310.529 289.455 309.879 288.999 311.396C285.615 322.473 278.82 332.202 269.582 339.197C259.75 346.612 247.667 350.425 235.356 349.998C229.017 349.79 222.76 348.503 216.854 346.193C210.908 343.748 205.39 340.372 200.509 336.19C190.945 328.282 182.442 318.226 170.799 313.277C161.357 309.263 149.178 308.04 140.588 314.687C139.575 315.471 138.638 316.347 137.788 317.305C136.738 318.487 138.475 320.236 139.531 319.047Z" fill="#2F2E41"/>
<path d="M538.629 274.957C537.084 264.732 528.087 258.025 518.78 255.049C506.432 251.102 493.611 254.093 481.176 255.997C474.482 257.021 467.693 257.697 460.934 256.92C452.084 255.852 443.628 252.646 436.296 247.579C428.964 242.513 422.977 235.738 418.852 227.841C413.294 216.847 411.568 204.314 413.946 192.229C414.253 190.713 414.629 189.214 415.063 187.729C415.137 187.418 415.088 187.091 414.925 186.816C414.762 186.541 414.499 186.339 414.191 186.254C413.882 186.169 413.553 186.207 413.272 186.36C412.992 186.513 412.781 186.769 412.685 187.074C409.261 199.009 409.789 211.731 414.19 223.342C418.504 234.671 426.378 244.297 436.63 250.775C447.03 257.339 459.252 260.424 471.524 259.581C478.662 259.111 485.685 257.678 492.749 256.631C499.024 255.701 505.54 254.972 511.855 255.95C521.267 257.409 532.001 262.395 535.372 272.011C535.777 273.181 536.072 274.387 536.252 275.612C536.488 277.175 538.864 276.511 538.629 274.957Z" fill="#2F2E41"/>
<path d="M355.394 434.976C352.876 432.459 349.886 430.463 346.596 429.101C343.306 427.739 339.779 427.038 336.218 427.038C332.657 427.038 329.13 427.739 325.84 429.101C322.55 430.463 319.56 432.459 317.042 434.976C314.524 437.492 312.526 440.48 311.163 443.768C309.8 447.056 309.099 450.58 309.099 454.139C309.099 457.698 309.8 461.222 311.163 464.51C312.526 467.798 314.524 470.786 317.042 473.302L355.394 511.629L393.747 473.302C396.266 470.786 398.265 467.798 399.629 464.51C400.993 461.221 401.695 457.697 401.696 454.137C401.696 450.577 400.995 447.052 399.632 443.764C398.27 440.475 396.272 437.486 393.753 434.969C391.234 432.452 388.244 430.456 384.953 429.094C381.662 427.732 378.134 427.031 374.572 427.032C371.01 427.032 367.483 427.734 364.192 429.097C360.902 430.46 357.912 432.458 355.394 434.976Z" fill="#34D399"/>
<path d="M561.381 124.394H325.109V171.011H561.381V124.394Z" fill="#282828"/>
<path d="M330.146 165.977H556.344V129.427H330.146V165.977Z" fill="#3A3A3A"/>
<path d="M349.948 161.324C357.644 161.324 363.882 155.09 363.882 147.399C363.882 139.709 357.644 133.475 349.948 133.475C342.253 133.475 336.014 139.709 336.014 147.399C336.014 155.09 342.253 161.324 349.948 161.324Z" fill="#34D399"/>
<path d="M520.791 141.951H383.269V144.978H520.791V141.951Z" fill="#282828"/>
<path d="M520.791 149.821H383.269V152.848H520.791V149.821Z" fill="#282828"/>
<path d="M411.807 245.943H175.535V292.561H411.807V245.943Z" fill="#282828"/>
<path d="M180.572 287.527H406.77V250.977H180.572V287.527Z" fill="#3A3A3A"/>
<path d="M200.374 282.874C208.069 282.874 214.308 276.64 214.308 268.949C214.308 261.259 208.069 255.025 200.374 255.025C192.678 255.025 186.44 261.259 186.44 268.949C186.44 276.64 192.678 282.874 200.374 282.874Z" fill="#34D399"/>
<path d="M371.216 263.501H233.694V266.528H371.216V263.501Z" fill="#282828"/>
<path d="M371.216 271.371H233.694V274.398H371.216V271.371Z" fill="#282828"/>
</g>
<defs>
<clipPath id="clip0_28_9">
<rect width="711" height="607" fill="white"/>
</clipPath>
</defs>
</svg>
