<svg width="241" height="27" viewBox="0 0 241 27" fill="none" xmlns="http://www.w3.org/2000/svg">
<path d="M1.12583 26C0.861828 26 0.633828 25.904 0.441828 25.712C0.249828 25.52 0.153828 25.292 0.153828 25.028V1.772C0.153828 1.508 0.249828 1.28 0.441828 1.088C0.633828 0.895998 0.861828 0.799998 1.12583 0.799998H6.81383C7.29383 0.799998 7.65383 0.931999 7.89383 1.196C8.13383 1.46 8.28983 1.652 8.36183 1.772L13.5818 10.412L18.8018 1.772C18.8738 1.652 19.0298 1.46 19.2698 1.196C19.5098 0.931999 19.8698 0.799998 20.3498 0.799998H26.0378C26.3018 0.799998 26.5298 0.895998 26.7218 1.088C26.9138 1.28 27.0098 1.508 27.0098 1.772V25.028C27.0098 25.292 26.9138 25.52 26.7218 25.712C26.5298 25.904 26.3018 26 26.0378 26H19.5218C19.2578 26 19.0298 25.904 18.8378 25.712C18.6458 25.52 18.5498 25.292 18.5498 25.028V15.164L16.1738 19.052C16.0538 19.244 15.8858 19.448 15.6698 19.664C15.4778 19.856 15.2018 19.952 14.8418 19.952H12.3218C11.9618 19.952 11.6738 19.856 11.4578 19.664C11.2658 19.448 11.1098 19.244 10.9898 19.052L8.61383 15.164V25.028C8.61383 25.292 8.51783 25.52 8.32583 25.712C8.13383 25.904 7.90583 26 7.64183 26H1.12583ZM25.4978 1.808C25.2578 1.664 25.0178 1.712 24.7778 1.952C24.6818 2.048 24.6458 2.144 24.6698 2.24C24.7178 2.312 24.7778 2.42 24.8498 2.564C24.9218 2.684 24.9698 2.78 24.9938 2.852C25.0418 2.924 25.1378 2.948 25.2818 2.924C25.4498 2.9 25.5698 2.864 25.6418 2.816C25.7378 2.768 25.7978 2.66 25.8218 2.492C25.8698 2.18 25.7618 1.952 25.4978 1.808ZM20.1698 2.276C20.0018 2.204 19.8698 2.204 19.7738 2.276C19.7018 2.348 19.6058 2.456 19.4858 2.6C19.3898 2.72 19.3538 2.828 19.3778 2.924C19.4018 2.996 19.4498 3.092 19.5218 3.212C19.6418 3.404 19.8098 3.476 20.0258 3.428C20.2418 3.356 20.3618 3.212 20.3858 2.996C20.3858 2.804 20.3858 2.66 20.3858 2.564C20.4098 2.444 20.3378 2.348 20.1698 2.276ZM1.80983 2.564L1.34183 2.708L0.981828 3.068L1.44983 3.356L1.91783 3.14L1.80983 2.564ZM23.0138 4.832C22.7258 4.76 22.5458 4.808 22.4738 4.976C22.4258 5.144 22.3298 5.336 22.1858 5.552C22.0418 5.792 21.9218 5.972 21.8258 6.092C21.7298 6.212 21.7658 6.38 21.9338 6.596C22.1258 6.812 22.2938 6.932 22.4378 6.956C22.5818 6.956 22.7978 6.896 23.0858 6.776C23.3258 6.68 23.4698 6.572 23.5178 6.452C23.5898 6.308 23.6138 6.104 23.5898 5.84C23.5658 5.552 23.5298 5.336 23.4818 5.192C23.4338 5.024 23.2778 4.904 23.0138 4.832ZM3.14183 5.84C3.09383 5.624 3.04583 5.468 2.99783 5.372C2.94983 5.276 2.81783 5.228 2.60183 5.228C2.38583 5.228 2.22983 5.264 2.13383 5.336C2.06183 5.384 1.97783 5.516 1.88183 5.732C1.80983 5.9 1.80983 6.032 1.88183 6.128C1.95383 6.2 2.06183 6.296 2.20583 6.416C2.42183 6.608 2.64983 6.62 2.88983 6.452C3.12983 6.308 3.21383 6.104 3.14183 5.84ZM6.95783 5.732C6.90983 5.564 6.76583 5.492 6.52583 5.516C6.40583 5.516 6.29783 5.528 6.20183 5.552C6.12983 5.552 6.06983 5.612 6.02183 5.732C5.99783 5.876 6.02183 5.96 6.09383 5.984C6.18983 6.008 6.29783 6.056 6.41783 6.128C6.51383 6.2 6.58583 6.272 6.63383 6.344C6.70583 6.392 6.80183 6.368 6.92183 6.272C7.01783 6.2 7.05383 6.128 7.02983 6.056C7.02983 5.96 7.00583 5.852 6.95783 5.732ZM20.2778 6.56C20.0858 6.56 19.9298 6.56 19.8098 6.56C19.7138 6.536 19.6298 6.62 19.5578 6.812C19.4858 7.028 19.4618 7.196 19.4858 7.316C19.5098 7.412 19.6058 7.532 19.7738 7.676C19.9418 7.82 20.0738 7.856 20.1698 7.784C20.2658 7.712 20.3978 7.616 20.5658 7.496C20.7338 7.4 20.8538 7.316 20.9258 7.244C20.9978 7.172 21.0098 7.04 20.9618 6.848C20.9138 6.68 20.8298 6.596 20.7098 6.596C20.6138 6.572 20.4698 6.56 20.2778 6.56ZM9.36983 8.072C9.17783 7.88 9.00983 7.76 8.86583 7.712C8.74583 7.64 8.57783 7.664 8.36183 7.784C8.09783 7.928 7.91783 8.072 7.82183 8.216C7.74983 8.336 7.74983 8.552 7.82183 8.864C7.86983 9.128 7.95383 9.296 8.07383 9.368C8.21783 9.416 8.43383 9.464 8.72183 9.512C8.93783 9.536 9.08183 9.5 9.15383 9.404C9.22583 9.284 9.30983 9.128 9.40583 8.936C9.50183 8.744 9.56183 8.588 9.58583 8.468C9.60983 8.348 9.53783 8.216 9.36983 8.072ZM5.62583 8.144C4.97783 7.904 4.48583 7.856 4.14983 8C3.81383 8.12 3.42983 8.444 2.99783 8.972C2.78183 9.284 2.69783 9.536 2.74583 9.728C2.79383 9.92 2.91383 10.124 3.10583 10.34C3.29783 10.556 3.48983 10.82 3.68183 11.132C3.96983 11.54 4.19783 11.876 4.36583 12.14C4.53383 12.38 4.85783 12.428 5.33783 12.284C5.84183 12.14 6.10583 11.924 6.12983 11.636C6.17783 11.348 6.21383 10.94 6.23783 10.412C6.26183 10.028 6.29783 9.692 6.34583 9.404C6.39383 9.116 6.36983 8.876 6.27383 8.684C6.20183 8.468 5.98583 8.288 5.62583 8.144ZM24.2378 8.216C24.0698 8.192 23.9378 8.18 23.8418 8.18C23.7458 8.18 23.6618 8.264 23.5898 8.432C23.5178 8.576 23.5298 8.672 23.6258 8.72C23.7218 8.768 23.8298 8.84 23.9498 8.936C24.0458 9.056 24.1178 9.164 24.1658 9.26C24.2138 9.356 24.3098 9.368 24.4538 9.296C24.7178 9.176 24.8258 8.948 24.7778 8.612C24.7538 8.468 24.6938 8.372 24.5978 8.324C24.5258 8.276 24.4058 8.24 24.2378 8.216ZM23.0498 10.556C22.9298 10.412 22.8098 10.352 22.6898 10.376C22.5698 10.376 22.4138 10.412 22.2218 10.484C22.0778 10.532 22.0058 10.604 22.0058 10.7C22.0058 10.796 22.0058 10.916 22.0058 11.06C22.0058 11.3 22.1018 11.444 22.2938 11.492C22.5098 11.564 22.6778 11.636 22.7978 11.708C22.9178 11.78 23.0378 11.72 23.1578 11.528C23.3018 11.336 23.3618 11.18 23.3378 11.06C23.3138 10.916 23.2178 10.748 23.0498 10.556ZM16.8218 10.988C16.5098 10.796 16.2578 10.724 16.0658 10.772C15.8738 10.796 15.6338 10.928 15.3458 11.168C14.9618 11.48 14.6258 11.72 14.3378 11.888C14.0738 12.032 14.0258 12.332 14.1938 12.788C14.3858 13.292 14.6138 13.58 14.8778 13.652C15.1658 13.724 15.5858 13.748 16.1378 13.724C16.5698 13.7 16.8458 13.592 16.9658 13.4C17.1098 13.208 17.2538 12.896 17.3978 12.464C17.4938 12.104 17.4938 11.828 17.3978 11.636C17.3258 11.444 17.1338 11.228 16.8218 10.988ZM20.3858 11.6C20.2178 11.432 20.0618 11.384 19.9178 11.456C19.7498 11.552 19.6778 11.708 19.7018 11.924C19.7258 12.068 19.7498 12.188 19.7738 12.284C19.8218 12.356 19.9178 12.404 20.0618 12.428C20.2058 12.452 20.2898 12.428 20.3138 12.356C20.3618 12.26 20.4218 12.152 20.4938 12.032C20.5658 11.888 20.5298 11.744 20.3858 11.6ZM9.83783 11.6C9.76583 11.504 9.64583 11.504 9.47783 11.6C9.35783 11.648 9.26183 11.684 9.18983 11.708C9.14183 11.732 9.11783 11.792 9.11783 11.888C9.14183 12.08 9.27383 12.2 9.51383 12.248C9.75383 12.296 9.90983 12.236 9.98183 12.068C10.0538 11.972 10.0658 11.9 10.0178 11.852C9.99383 11.78 9.93383 11.696 9.83783 11.6ZM22.9778 13.04C22.9778 12.872 22.9898 12.74 23.0138 12.644C23.0618 12.548 23.0138 12.476 22.8698 12.428C22.7018 12.38 22.5818 12.392 22.5098 12.464C22.4618 12.536 22.3778 12.632 22.2578 12.752C22.1618 12.92 22.1738 13.1 22.2938 13.292C22.3898 13.412 22.4618 13.496 22.5098 13.544C22.5818 13.592 22.6898 13.592 22.8338 13.544C22.9538 13.52 23.0018 13.472 22.9778 13.4C22.9778 13.304 22.9778 13.184 22.9778 13.04ZM12.6458 12.932C12.3578 12.812 12.1418 12.812 11.9978 12.932C11.8538 13.052 11.6858 13.244 11.4938 13.508C11.2778 13.772 11.1098 13.988 10.9898 14.156C10.8698 14.3 10.9058 14.516 11.0978 14.804C11.3138 15.14 11.5178 15.344 11.7098 15.416C11.9018 15.464 12.1778 15.44 12.5378 15.344C12.8738 15.248 13.0418 15.104 13.0418 14.912C13.0658 14.72 13.0898 14.456 13.1138 14.12C13.1378 13.808 13.1378 13.568 13.1138 13.4C13.1138 13.208 12.9578 13.052 12.6458 12.932ZM1.95383 13.292L1.70183 13.076L1.59383 13.4L1.70183 13.616L1.98983 13.58L1.95383 13.292ZM25.6418 14.948C25.4978 14.492 25.3178 14.204 25.1018 14.084C24.8858 13.94 24.5378 13.868 24.0578 13.868C23.6018 13.868 23.2778 13.952 23.0858 14.12C22.9178 14.264 22.7618 14.552 22.6178 14.984C22.4978 15.392 22.4858 15.692 22.5818 15.884C22.6778 16.076 22.9058 16.304 23.2658 16.568C23.5538 16.784 23.7938 16.856 23.9858 16.784C24.1778 16.712 24.4178 16.568 24.7058 16.352C25.0418 16.112 25.3058 15.92 25.4978 15.776C25.7138 15.608 25.7618 15.332 25.6418 14.948ZM7.64183 13.868L7.46183 14.012L7.42583 14.264L7.71383 14.3L7.78583 14.048L7.64183 13.868ZM3.50183 15.2C3.21383 15.008 2.98583 14.864 2.81783 14.768C2.64983 14.648 2.43383 14.684 2.16983 14.876C1.88183 15.092 1.74983 15.296 1.77383 15.488C1.79783 15.68 1.86983 15.944 1.98983 16.28C2.08583 16.616 2.19383 16.856 2.31383 17C2.43383 17.12 2.66183 17.18 2.99783 17.18C3.42983 17.18 3.76583 17.168 4.00583 17.144C4.26983 17.096 4.46183 16.868 4.58183 16.46C4.70183 16.052 4.62983 15.8 4.36583 15.704C4.12583 15.608 3.83783 15.44 3.50183 15.2ZM7.31783 15.272L6.92183 15.02L6.74183 15.416L6.84983 15.704L7.31783 15.74V15.272ZM14.4098 15.74C14.2178 15.644 14.0738 15.632 13.9778 15.704C13.8818 15.776 13.7618 15.884 13.6178 16.028C13.4258 16.22 13.4018 16.448 13.5458 16.712C13.6178 16.856 13.6778 16.964 13.7258 17.036C13.7978 17.108 13.9298 17.132 14.1218 17.108C14.3138 17.084 14.4578 17.048 14.5538 17C14.6498 16.928 14.7218 16.796 14.7698 16.604C14.7938 16.364 14.7818 16.184 14.7338 16.064C14.7098 15.944 14.6018 15.836 14.4098 15.74ZM22.6178 18.08C22.3298 17.84 22.1018 17.792 21.9338 17.936C21.7658 18.056 21.5258 18.212 21.2138 18.404C20.8778 18.62 20.5778 18.776 20.3138 18.872C20.0738 18.968 20.0138 19.22 20.1338 19.628C20.2298 20.06 20.3858 20.324 20.6018 20.42C20.8418 20.492 21.1898 20.54 21.6458 20.564C22.0058 20.588 22.2338 20.516 22.3298 20.348C22.4498 20.156 22.5698 19.892 22.6898 19.556C22.8338 19.22 22.9298 18.956 22.9778 18.764C23.0258 18.548 22.9058 18.32 22.6178 18.08ZM24.7778 18.224L24.3098 18.332L24.1658 18.836L24.6338 18.908L24.9938 18.692L24.7778 18.224ZM4.79783 19.664C4.79783 19.472 4.79783 19.328 4.79783 19.232C4.79783 19.136 4.71383 19.064 4.54583 19.016C4.37783 18.968 4.25783 18.992 4.18583 19.088C4.13783 19.16 4.06583 19.268 3.96983 19.412C3.87383 19.58 3.89783 19.748 4.04183 19.916C4.18583 20.132 4.35383 20.204 4.54583 20.132C4.71383 20.06 4.79783 19.904 4.79783 19.664ZM24.7778 22.724C24.6098 22.436 24.4658 22.22 24.3458 22.076C24.2498 21.932 24.0338 21.896 23.6978 21.968C23.3618 22.04 23.1338 22.148 23.0138 22.292C22.8938 22.436 22.8098 22.688 22.7618 23.048C22.7378 23.384 22.7738 23.624 22.8698 23.768C22.9658 23.912 23.1698 24.056 23.4818 24.2C23.8418 24.368 24.1298 24.5 24.3458 24.596C24.5618 24.668 24.8018 24.548 25.0658 24.236C25.3298 23.972 25.3898 23.744 25.2458 23.552C25.1258 23.336 24.9698 23.06 24.7778 22.724ZM5.33783 22.22L4.97783 22.004L4.47383 21.968L4.50983 22.58H5.04983L5.33783 22.22ZM20.2058 22.76L19.8458 22.94V23.372L20.2778 23.516L20.5298 23.084L20.2058 22.76ZM42.3619 26.36C40.0099 26.36 37.9459 26 36.1699 25.28C34.4179 24.56 33.0259 23.48 31.9939 22.04C30.9859 20.576 30.4339 18.776 30.3379 16.64C30.2659 14.576 30.2659 12.464 30.3379 10.304C30.4339 8.192 30.9859 6.404 31.9939 4.94C33.0019 3.476 34.3939 2.36 36.1699 1.592C37.9459 0.823999 40.0099 0.439999 42.3619 0.439999C44.7139 0.439999 46.7779 0.823999 48.5539 1.592C50.3299 2.36 51.7219 3.476 52.7299 4.94C53.7619 6.404 54.3139 8.192 54.3859 10.304C54.4579 12.464 54.4579 14.576 54.3859 16.64C54.2899 18.776 53.7259 20.576 52.6939 22.04C51.6859 23.48 50.2939 24.56 48.5179 25.28C46.7659 26 44.7139 26.36 42.3619 26.36ZM44.1619 2.816C43.6579 2.6 43.2619 2.408 42.9739 2.24C42.6859 2.072 42.3739 2.192 42.0379 2.6C41.6779 3.008 41.5939 3.344 41.7859 3.608C42.0019 3.872 42.2419 4.232 42.5059 4.688C42.7459 5.072 42.9499 5.348 43.1179 5.516C43.2859 5.66 43.5859 5.684 44.0179 5.588C44.4499 5.492 44.6899 5.336 44.7379 5.12C44.8099 4.88 44.8699 4.544 44.9179 4.112C44.9419 3.728 44.9059 3.452 44.8099 3.284C44.7139 3.116 44.4979 2.96 44.1619 2.816ZM48.4459 3.032C48.2299 2.912 48.0499 2.912 47.9059 3.032C47.7859 3.128 47.6899 3.212 47.6179 3.284C47.5699 3.356 47.5699 3.464 47.6179 3.608C47.6899 3.776 47.7619 3.872 47.8339 3.896C47.9299 3.896 48.0619 3.896 48.2299 3.896C48.3499 3.896 48.4219 3.86 48.4459 3.788C48.4699 3.716 48.5059 3.62 48.5539 3.5C48.6019 3.284 48.5659 3.128 48.4459 3.032ZM39.0139 4.22C38.9659 3.884 38.8339 3.704 38.6179 3.68C38.4019 3.656 38.1259 3.62 37.7899 3.572C37.4539 3.524 37.1779 3.488 36.9619 3.464C36.7699 3.44 36.6019 3.584 36.4579 3.896C36.2899 4.208 36.2779 4.436 36.4219 4.58C36.5899 4.7 36.8059 4.88 37.0699 5.12C37.2859 5.336 37.4659 5.48 37.6099 5.552C37.7539 5.624 37.9579 5.588 38.2219 5.444C38.5339 5.276 38.7619 5.12 38.9059 4.976C39.0499 4.832 39.0859 4.58 39.0139 4.22ZM48.1579 4.796L47.7979 4.652L47.6539 4.976L47.7619 5.264L48.1219 5.192L48.1579 4.796ZM50.3179 5.336C50.1019 5.264 49.9339 5.204 49.8139 5.156C49.7179 5.108 49.5979 5.168 49.4539 5.336C49.3099 5.504 49.2499 5.648 49.2739 5.768C49.2979 5.864 49.3699 6.008 49.4899 6.2C49.5619 6.368 49.6459 6.464 49.7419 6.488C49.8619 6.488 50.0059 6.476 50.1739 6.452C50.3419 6.404 50.4379 6.344 50.4619 6.272C50.4859 6.2 50.5099 6.08 50.5339 5.912C50.5579 5.768 50.5579 5.66 50.5339 5.588C50.5099 5.492 50.4379 5.408 50.3179 5.336ZM35.5219 5.912C35.3059 5.912 35.1499 5.924 35.0539 5.948C34.9579 5.972 34.8739 6.08 34.8019 6.272C34.7299 6.464 34.7179 6.608 34.7659 6.704C34.8379 6.776 34.9579 6.872 35.1259 6.992C35.3179 7.16 35.4619 7.304 35.5579 7.424C35.6779 7.52 35.8459 7.496 36.0619 7.352C36.2779 7.208 36.3739 7.064 36.3499 6.92C36.3259 6.776 36.2779 6.572 36.2059 6.308C36.1579 6.116 36.0739 6.008 35.9539 5.984C35.8579 5.936 35.7139 5.912 35.5219 5.912ZM47.5459 6.38L47.2219 6.452L47.2579 6.776L47.5459 6.884L47.7619 6.632L47.5459 6.38ZM42.3619 19.34C43.1539 19.34 43.7899 19.112 44.2699 18.656C44.7499 18.176 45.0019 17.432 45.0259 16.424C45.0979 14.36 45.0979 12.344 45.0259 10.376C45.0019 9.368 44.7379 8.636 44.2339 8.18C43.7539 7.7 43.1299 7.46 42.3619 7.46C41.5939 7.46 40.9699 7.7 40.4899 8.18C40.0099 8.636 39.7459 9.368 39.6979 10.376C39.6259 12.344 39.6259 14.36 39.6979 16.424C39.7459 17.432 39.9979 18.176 40.4539 18.656C40.9339 19.112 41.5699 19.34 42.3619 19.34ZM48.7339 8.756C48.4459 8.66 48.2299 8.672 48.0859 8.792C47.9659 8.888 47.8099 9.056 47.6179 9.296C47.4259 9.536 47.2939 9.728 47.2219 9.872C47.1499 10.016 47.1979 10.22 47.3659 10.484C47.5339 10.748 47.7019 10.904 47.8699 10.952C48.0379 10.976 48.2779 10.952 48.5899 10.88C48.9259 10.784 49.1779 10.7 49.3459 10.628C49.5379 10.532 49.6459 10.304 49.6699 9.944C49.6939 9.56 49.6339 9.308 49.4899 9.188C49.3459 9.044 49.0939 8.9 48.7339 8.756ZM50.4259 8.684L50.1379 8.828L50.1739 9.152L50.4979 9.26L50.5699 8.936L50.4259 8.684ZM36.9979 9.476C36.8299 9.452 36.6979 9.416 36.6019 9.368C36.5059 9.296 36.4099 9.332 36.3139 9.476C36.2179 9.62 36.1939 9.74 36.2419 9.836C36.2899 9.908 36.3739 10.016 36.4939 10.16C36.6139 10.28 36.7099 10.376 36.7819 10.448C36.8539 10.496 36.9619 10.496 37.1059 10.448C37.2739 10.376 37.3459 10.292 37.3219 10.196C37.3219 10.1 37.3219 9.968 37.3219 9.8C37.3219 9.656 37.2139 9.548 36.9979 9.476ZM34.5139 10.016C34.4659 9.848 34.3459 9.764 34.1539 9.764C34.0339 9.764 33.9379 9.776 33.8659 9.8C33.7939 9.8 33.7459 9.86 33.7219 9.98C33.6499 10.196 33.6979 10.376 33.8659 10.52C34.0339 10.616 34.2139 10.604 34.4059 10.484C34.5499 10.364 34.5859 10.208 34.5139 10.016ZM37.6459 12.104C37.5499 11.816 37.4179 11.66 37.2499 11.636C37.1059 11.612 36.8779 11.6 36.5659 11.6C36.3499 11.6 36.2059 11.648 36.1339 11.744C36.0859 11.84 36.0259 11.996 35.9539 12.212C35.8819 12.428 35.8219 12.608 35.7739 12.752C35.7499 12.872 35.8339 13.004 36.0259 13.148C36.2179 13.292 36.3739 13.34 36.4939 13.292C36.6139 13.244 36.7699 13.148 36.9619 13.004C37.2019 12.86 37.3939 12.74 37.5379 12.644C37.6819 12.548 37.7179 12.368 37.6459 12.104ZM47.6179 11.708C47.3059 11.588 47.0659 11.648 46.8979 11.888C46.7059 12.128 46.6939 12.38 46.8619 12.644C46.9579 12.788 47.0539 12.86 47.1499 12.86C47.2459 12.86 47.3779 12.836 47.5459 12.788C47.6899 12.764 47.7739 12.716 47.7979 12.644C47.8219 12.548 47.8339 12.428 47.8339 12.284C47.8339 12.14 47.8339 12.02 47.8339 11.924C47.8339 11.828 47.7619 11.756 47.6179 11.708ZM51.6139 11.852C51.4219 11.804 51.2899 11.828 51.2179 11.924C51.1699 11.996 51.0979 12.116 51.0019 12.284C50.8819 12.476 50.8939 12.668 51.0379 12.86C51.1819 13.004 51.2899 13.136 51.3619 13.256C51.4339 13.352 51.5539 13.352 51.7219 13.256C51.9379 13.184 52.0699 13.1 52.1179 13.004C52.1659 12.884 52.1779 12.716 52.1539 12.5C52.1299 12.14 51.9499 11.924 51.6139 11.852ZM50.8219 14.264C50.6539 14.24 50.5339 14.252 50.4619 14.3C50.4139 14.348 50.3659 14.444 50.3179 14.588C50.2459 14.708 50.1979 14.816 50.1739 14.912C50.1739 14.984 50.2219 15.068 50.3179 15.164C50.4139 15.284 50.4979 15.332 50.5699 15.308C50.6659 15.26 50.7739 15.212 50.8939 15.164C51.1099 15.044 51.2059 14.9 51.1819 14.732C51.1579 14.588 51.1219 14.48 51.0739 14.408C51.0499 14.336 50.9659 14.288 50.8219 14.264ZM47.6539 14.696C47.3179 14.552 47.0419 14.612 46.8259 14.876C46.5859 15.14 46.5619 15.416 46.7539 15.704C46.8499 15.896 46.9459 16.004 47.0419 16.028C47.1619 16.052 47.3179 16.052 47.5099 16.028C47.7019 15.98 47.8219 15.908 47.8699 15.812C47.9179 15.716 47.9539 15.572 47.9779 15.38C48.0019 15.188 47.9899 15.044 47.9419 14.948C47.9179 14.852 47.8219 14.768 47.6539 14.696ZM34.0099 15.524C33.8659 15.308 33.7219 15.236 33.5779 15.308C33.4339 15.38 33.2299 15.452 32.9659 15.524C32.7499 15.596 32.5819 15.656 32.4619 15.704C32.3419 15.752 32.2819 15.896 32.2819 16.136C32.2819 16.424 32.3059 16.652 32.3539 16.82C32.4019 16.964 32.5699 17.084 32.8579 17.18C33.1459 17.252 33.3499 17.252 33.4699 17.18C33.6139 17.084 33.7699 16.916 33.9379 16.676C34.1059 16.436 34.2019 16.244 34.2259 16.1C34.2739 15.956 34.2019 15.764 34.0099 15.524ZM52.2619 16.892C51.9259 16.772 51.6739 16.76 51.5059 16.856C51.3379 16.952 51.1459 17.144 50.9299 17.432C50.7139 17.72 50.5819 17.96 50.5339 18.152C50.5099 18.344 50.6059 18.584 50.8219 18.872C51.0139 19.16 51.2059 19.292 51.3979 19.268C51.5899 19.244 51.8539 19.184 52.1899 19.088C52.4299 18.992 52.5619 18.872 52.5859 18.728C52.6099 18.584 52.6219 18.38 52.6219 18.116C52.6219 17.804 52.6339 17.552 52.6579 17.36C52.7059 17.144 52.5739 16.988 52.2619 16.892ZM38.4019 17.288C38.3539 17.096 38.2699 16.988 38.1499 16.964C38.0539 16.94 37.9099 16.928 37.7179 16.928C37.4539 16.904 37.2739 17.024 37.1779 17.288C37.1059 17.432 37.0699 17.552 37.0699 17.648C37.0939 17.744 37.1659 17.84 37.2859 17.936C37.4299 18.056 37.5379 18.104 37.6099 18.08C37.7059 18.032 37.8259 17.972 37.9699 17.9C38.1139 17.78 38.2339 17.696 38.3299 17.648C38.4259 17.576 38.4499 17.456 38.4019 17.288ZM47.1859 17.756L46.8259 17.396L46.5019 17.864L46.7899 18.188H47.2579L47.1859 17.756ZM35.0899 17.756L34.8379 17.612L34.7659 17.864L34.8739 18.152L35.1619 18.008L35.0899 17.756ZM37.3939 19.484C37.2739 19.316 37.1059 19.256 36.8899 19.304C36.7219 19.352 36.5779 19.388 36.4579 19.412C36.3379 19.436 36.2779 19.532 36.2779 19.7C36.2779 19.892 36.3139 20.036 36.3859 20.132C36.4579 20.204 36.5899 20.276 36.7819 20.348C36.9259 20.396 37.0219 20.384 37.0699 20.312C37.1179 20.216 37.2019 20.108 37.3219 19.988C37.4659 19.796 37.4899 19.628 37.3939 19.484ZM47.1139 19.988C47.1139 19.676 46.9819 19.484 46.7179 19.412C46.5739 19.364 46.4779 19.388 46.4299 19.484C46.4059 19.556 46.3459 19.652 46.2499 19.772C46.1539 19.892 46.0699 19.988 45.9979 20.06C45.9259 20.132 45.9259 20.24 45.9979 20.384C46.1179 20.504 46.2139 20.564 46.2859 20.564C46.3819 20.54 46.5139 20.492 46.6819 20.42C46.8259 20.372 46.9339 20.324 47.0059 20.276C47.0779 20.228 47.1139 20.132 47.1139 19.988ZM49.3819 19.736C49.1899 19.592 49.0339 19.532 48.9139 19.556C48.7939 19.58 48.6379 19.652 48.4459 19.772C48.2539 19.892 48.1459 20.012 48.1219 20.132C48.0979 20.228 48.1219 20.384 48.1939 20.6C48.2659 20.912 48.4699 21.08 48.8059 21.104C49.1419 21.128 49.3699 20.984 49.4899 20.672C49.5619 20.456 49.6099 20.288 49.6339 20.168C49.6579 20.024 49.5739 19.88 49.3819 19.736ZM33.1459 19.808C33.0259 19.688 32.8699 19.664 32.6779 19.736C32.5819 19.784 32.4979 19.832 32.4259 19.88C32.3779 19.904 32.3539 19.976 32.3539 20.096C32.3539 20.24 32.3659 20.348 32.3899 20.42C32.4379 20.492 32.5339 20.54 32.6779 20.564C32.8459 20.612 32.9779 20.636 33.0739 20.636C33.1699 20.636 33.2659 20.564 33.3619 20.42C33.4579 20.276 33.4699 20.168 33.3979 20.096C33.3259 20.024 33.2419 19.928 33.1459 19.808ZM44.1979 20.708L43.9819 20.456L43.6219 20.492L43.6939 20.852L43.9819 20.996L44.1979 20.708ZM39.1939 20.672L38.9779 20.744L39.0139 20.996L39.2659 21.068L39.1939 20.672ZM40.8859 20.888C40.6699 20.84 40.5019 20.9 40.3819 21.068C40.2859 21.212 40.2019 21.332 40.1299 21.428C40.0819 21.524 40.1059 21.644 40.2019 21.788C40.3219 21.932 40.4299 21.992 40.5259 21.968C40.6459 21.92 40.7899 21.86 40.9579 21.788C41.1259 21.716 41.2579 21.668 41.3539 21.644C41.4499 21.596 41.4979 21.476 41.4979 21.284C41.4979 21.116 41.4379 21.02 41.3179 20.996C41.1979 20.972 41.0539 20.936 40.8859 20.888ZM42.5059 21.104L42.0739 21.032L42.1099 21.464L42.3979 21.644L42.5779 21.392L42.5059 21.104ZM36.4579 21.572C36.1459 21.428 35.8939 21.344 35.7019 21.32C35.5339 21.296 35.3299 21.416 35.0899 21.68C34.8499 21.92 34.7419 22.136 34.7659 22.328C34.7899 22.496 34.8859 22.736 35.0539 23.048C35.1979 23.336 35.3419 23.528 35.4859 23.624C35.6299 23.696 35.8579 23.708 36.1699 23.66C36.5059 23.588 36.7339 23.492 36.8539 23.372C36.9979 23.252 37.0939 23.024 37.1419 22.688C37.1899 22.376 37.1539 22.148 37.0339 22.004C36.9379 21.86 36.7459 21.716 36.4579 21.572ZM47.4739 22.328L47.1139 22.508L46.8619 22.868L47.3299 22.94L47.6539 22.76L47.4739 22.328ZM43.4059 22.364C42.9979 22.316 42.6979 22.352 42.5059 22.472C42.3139 22.592 42.1219 22.844 41.9299 23.228C41.7619 23.612 41.6899 23.924 41.7139 24.164C41.7619 24.38 41.9539 24.62 42.2899 24.884C42.6019 25.172 42.8659 25.328 43.0819 25.352C43.3219 25.376 43.6219 25.28 43.9819 25.064C44.3419 24.848 44.5579 24.644 44.6299 24.452C44.7259 24.236 44.7259 23.924 44.6299 23.516C44.5579 23.108 44.4379 22.832 44.2699 22.688C44.1259 22.52 43.8379 22.412 43.4059 22.364ZM38.5099 23.804C38.3419 23.78 38.2099 23.78 38.1139 23.804C38.0419 23.804 37.9699 23.864 37.8979 23.984C37.7539 24.2 37.7659 24.416 37.9339 24.632C38.1019 24.848 38.3059 24.908 38.5459 24.812C38.8339 24.716 38.9659 24.536 38.9419 24.272C38.9419 24.128 38.9059 24.032 38.8339 23.984C38.7619 23.912 38.6539 23.852 38.5099 23.804ZM58.6766 26C58.4126 26 58.1846 25.904 57.9926 25.712C57.8006 25.52 57.7046 25.292 57.7046 25.028V1.772C57.7046 1.508 57.8006 1.28 57.9926 1.088C58.1846 0.895998 58.4126 0.799998 58.6766 0.799998H70.6286C74.0606 0.799998 76.5806 1.436 78.1886 2.708C79.7966 3.956 80.6006 5.84 80.6006 8.36C80.6006 9.128 80.4326 9.824 80.0966 10.448C79.7846 11.048 79.4006 11.552 78.9446 11.96C78.5126 12.368 78.1046 12.668 77.7206 12.86C78.6326 13.244 79.4246 13.916 80.0966 14.876C80.7926 15.812 81.1406 16.88 81.1406 18.08C81.1406 20.768 80.2646 22.76 78.5126 24.056C76.7606 25.352 74.2526 26 70.9886 26H58.6766ZM67.1006 1.952L66.7046 2.096L66.8126 2.348L67.0646 2.24L67.1006 1.952ZM63.5366 2.384C63.3926 2.216 63.2606 2.144 63.1406 2.168C63.0206 2.192 62.8646 2.24 62.6726 2.312C62.3846 2.456 62.2526 2.684 62.2766 2.996C62.3006 3.308 62.4686 3.5 62.7806 3.572C63.0206 3.62 63.2126 3.668 63.3566 3.716C63.5006 3.74 63.6326 3.644 63.7526 3.428C63.8966 3.188 63.9446 3.008 63.8966 2.888C63.8486 2.744 63.7286 2.576 63.5366 2.384ZM74.3366 2.312C74.1926 2.192 74.0726 2.168 73.9766 2.24C73.8806 2.312 73.7606 2.396 73.6166 2.492C73.4966 2.588 73.4126 2.672 73.3646 2.744C73.3406 2.816 73.3526 2.924 73.4006 3.068C73.4486 3.236 73.4966 3.38 73.5446 3.5C73.5926 3.596 73.7126 3.644 73.9046 3.644C74.1206 3.644 74.2646 3.608 74.3366 3.536C74.4326 3.464 74.5166 3.32 74.5886 3.104C74.7086 2.768 74.6246 2.504 74.3366 2.312ZM72.3206 3.176C72.3206 2.936 72.3206 2.744 72.3206 2.6C72.3446 2.456 72.2486 2.348 72.0326 2.276C71.7926 2.204 71.6126 2.204 71.4926 2.276C71.3726 2.348 71.2406 2.492 71.0966 2.708C70.9766 2.876 70.9406 3.02 70.9886 3.14C71.0366 3.236 71.1206 3.368 71.2406 3.536C71.3606 3.704 71.4566 3.824 71.5286 3.896C71.6246 3.968 71.7686 3.968 71.9606 3.896C72.1526 3.824 72.2606 3.74 72.2846 3.644C72.3086 3.524 72.3206 3.368 72.3206 3.176ZM76.1726 2.996C76.1246 2.852 76.0886 2.744 76.0646 2.672C76.0646 2.576 75.9926 2.528 75.8486 2.528C75.6806 2.552 75.5726 2.6 75.5246 2.672C75.4766 2.72 75.4286 2.828 75.3806 2.996C75.3326 3.212 75.4166 3.392 75.6326 3.536C75.8486 3.68 76.0526 3.668 76.2446 3.5C76.3406 3.428 76.3646 3.356 76.3166 3.284C76.2686 3.212 76.2206 3.116 76.1726 2.996ZM68.5046 2.852L68.1446 2.708L67.8926 3.032L68.1806 3.32L68.4686 3.176L68.5046 2.852ZM69.6566 3.644C69.4646 3.62 69.3206 3.728 69.2246 3.968C69.1286 4.184 69.1646 4.352 69.3326 4.472C69.4286 4.568 69.5126 4.628 69.5846 4.652C69.6806 4.676 69.7886 4.652 69.9086 4.58C70.1246 4.436 70.2086 4.232 70.1606 3.968C70.1126 3.824 70.0526 3.74 69.9806 3.716C69.9086 3.668 69.8006 3.644 69.6566 3.644ZM65.8766 4.652C65.7086 4.436 65.5646 4.28 65.4446 4.184C65.3246 4.088 65.1326 4.088 64.8686 4.184C64.5566 4.304 64.3286 4.424 64.1846 4.544C64.0406 4.64 63.9686 4.856 63.9686 5.192C63.9926 5.528 64.0886 5.732 64.2566 5.804C64.4246 5.876 64.6646 5.96 64.9766 6.056C65.2166 6.128 65.3846 6.116 65.4806 6.02C65.5766 5.924 65.6966 5.768 65.8406 5.552C65.9606 5.36 66.0326 5.204 66.0566 5.084C66.0806 4.964 66.0206 4.82 65.8766 4.652ZM75.3086 4.544C75.1166 4.472 74.9606 4.412 74.8406 4.364C74.7446 4.292 74.6366 4.34 74.5166 4.508C74.3966 4.652 74.3726 4.772 74.4446 4.868C74.5406 4.964 74.6486 5.096 74.7686 5.264C74.8646 5.432 74.9366 5.564 74.9846 5.66C75.0566 5.756 75.1886 5.78 75.3806 5.732C75.6206 5.66 75.7646 5.576 75.8126 5.48C75.8846 5.384 75.9206 5.216 75.9206 4.976C75.9206 4.784 75.8606 4.676 75.7406 4.652C75.6446 4.628 75.5006 4.592 75.3086 4.544ZM77.6486 5.804C77.3846 5.756 77.1806 5.864 77.0366 6.128C76.9406 6.32 76.8686 6.476 76.8206 6.596C76.7726 6.692 76.8206 6.812 76.9646 6.956C77.1086 7.124 77.2406 7.22 77.3606 7.244C77.4806 7.244 77.6486 7.196 77.8646 7.1C78.0326 7.028 78.1046 6.932 78.0806 6.812C78.0566 6.692 78.0326 6.536 78.0086 6.344C77.9846 6.2 77.9606 6.092 77.9366 6.02C77.9126 5.924 77.8166 5.852 77.6486 5.804ZM72.4286 6.092H72.0326L72.0686 6.56L72.4286 6.632L72.8246 6.344L72.4286 6.092ZM66.7046 10.268H69.7286C70.2566 10.268 70.6286 10.1 70.8446 9.764C71.0846 9.404 71.2046 9.032 71.2046 8.648C71.2046 8.264 71.0846 7.892 70.8446 7.532C70.6286 7.172 70.2566 6.992 69.7286 6.992H66.7046V10.268ZM63.6446 8.36C63.4766 7.904 63.2966 7.616 63.1046 7.496C62.9126 7.352 62.5766 7.28 62.0966 7.28C61.6166 7.28 61.2686 7.352 61.0526 7.496C60.8366 7.616 60.6566 7.904 60.5126 8.36C60.3926 8.792 60.4046 9.104 60.5486 9.296C60.7166 9.488 60.9926 9.704 61.3766 9.944C61.6886 10.16 61.9406 10.268 62.1326 10.268C62.3246 10.244 62.5766 10.112 62.8886 9.872C63.2246 9.608 63.4646 9.392 63.6086 9.224C63.7526 9.032 63.7646 8.744 63.6446 8.36ZM75.5606 9.908C75.4646 9.644 75.2726 9.512 74.9846 9.512C74.7446 9.512 74.5886 9.656 74.5166 9.944C74.4446 10.16 74.3846 10.328 74.3366 10.448C74.2886 10.568 74.3606 10.688 74.5526 10.808C74.7446 10.952 74.9006 11.024 75.0206 11.024C75.1646 11 75.3446 10.916 75.5606 10.772C75.7286 10.628 75.7886 10.496 75.7406 10.376C75.6926 10.256 75.6326 10.1 75.5606 9.908ZM73.0766 10.196C72.9566 10.1 72.8486 10.076 72.7526 10.124C72.6566 10.148 72.5366 10.208 72.3926 10.304C72.1766 10.448 72.0926 10.628 72.1406 10.844C72.1886 11.036 72.2246 11.18 72.2486 11.276C72.2966 11.348 72.4166 11.396 72.6086 11.42C72.8006 11.444 72.9326 11.42 73.0046 11.348C73.0766 11.276 73.1486 11.144 73.2206 10.952C73.2926 10.784 73.3166 10.652 73.2926 10.556C73.2926 10.46 73.2206 10.34 73.0766 10.196ZM63.0686 11.744L62.6726 11.528L62.3126 11.6V12.032L62.7806 12.176L63.0686 11.744ZM70.8086 12.176C70.7846 11.912 70.6286 11.744 70.3406 11.672C70.1486 11.648 69.9926 11.624 69.8726 11.6C69.7766 11.576 69.6806 11.648 69.5846 11.816C69.4886 11.984 69.4766 12.116 69.5486 12.212C69.6206 12.284 69.7166 12.392 69.8366 12.536C69.9566 12.68 70.0526 12.776 70.1246 12.824C70.1966 12.872 70.3166 12.872 70.4846 12.824C70.6526 12.752 70.7486 12.668 70.7726 12.572C70.8206 12.476 70.8326 12.344 70.8086 12.176ZM75.5606 12.248L75.3086 11.924L74.9126 12.068L75.0566 12.464L75.3806 12.572L75.5606 12.248ZM60.1166 13.328C60.0446 13.112 59.9966 12.932 59.9726 12.788C59.9726 12.644 59.8526 12.572 59.6126 12.572C59.3726 12.572 59.2406 12.644 59.2166 12.788C59.2166 12.932 59.1806 13.112 59.1086 13.328C59.0366 13.568 58.9526 13.76 58.8566 13.904C58.7846 14.024 58.8446 14.156 59.0366 14.3C59.2526 14.444 59.4206 14.48 59.5406 14.408C59.6606 14.312 59.8166 14.192 60.0086 14.048C60.1526 13.952 60.2246 13.856 60.2246 13.76C60.2246 13.664 60.1886 13.52 60.1166 13.328ZM66.2366 13.796C66.0686 13.604 65.9246 13.46 65.8046 13.364C65.7086 13.268 65.5286 13.268 65.2646 13.364C65.0246 13.436 64.9046 13.556 64.9046 13.724C64.9286 13.868 64.9406 14.072 64.9406 14.336C64.9406 14.624 64.9286 14.864 64.9046 15.056C64.8806 15.224 65.0126 15.356 65.3006 15.452C65.5646 15.524 65.7206 15.464 65.7686 15.272C65.8406 15.08 65.9606 14.876 66.1286 14.66C66.2486 14.468 66.3326 14.324 66.3806 14.228C66.4286 14.108 66.3806 13.964 66.2366 13.796ZM62.7806 14.228L62.3846 14.552L62.5286 14.948L62.9966 15.092V14.624L62.7806 14.228ZM71.7446 14.912L71.2406 14.984L71.3486 15.488L71.7446 15.596L71.9246 15.272L71.7446 14.912ZM74.3006 15.74C74.2526 15.5 74.1806 15.344 74.0846 15.272C73.9886 15.2 73.8326 15.152 73.6166 15.128C73.4006 15.104 73.2686 15.152 73.2206 15.272C73.1726 15.392 73.1126 15.536 73.0406 15.704C72.9446 15.944 73.0046 16.148 73.2206 16.316C73.3406 16.412 73.4366 16.484 73.5086 16.532C73.6046 16.58 73.7366 16.556 73.9046 16.46C74.0726 16.364 74.1926 16.268 74.2646 16.172C74.3366 16.076 74.3486 15.932 74.3006 15.74ZM61.8806 15.524L61.4846 15.596L61.5926 15.992H61.9526L62.0606 15.74L61.8806 15.524ZM77.0006 15.812L76.6406 15.848L76.6766 16.172L76.9646 16.388L77.2526 16.1L77.0006 15.812ZM66.7046 19.808H70.0526C70.6526 19.808 71.0726 19.616 71.3126 19.232C71.5766 18.824 71.7086 18.428 71.7086 18.044C71.7086 17.612 71.5646 17.216 71.2766 16.856C71.0126 16.472 70.6046 16.28 70.0526 16.28H66.7046V19.808ZM74.9126 17.828C74.7206 17.78 74.5766 17.78 74.4806 17.828C74.4086 17.876 74.3246 17.984 74.2286 18.152C74.0846 18.392 74.1086 18.62 74.3006 18.836C74.4926 19.076 74.7086 19.148 74.9486 19.052C75.2126 18.956 75.3326 18.752 75.3086 18.44C75.2846 18.248 75.2486 18.104 75.2006 18.008C75.1766 17.912 75.0806 17.852 74.9126 17.828ZM63.8966 18.62C63.6806 18.548 63.5006 18.536 63.3566 18.584C63.2366 18.608 63.1166 18.716 62.9966 18.908C62.8526 19.124 62.7806 19.304 62.7806 19.448C62.7806 19.568 62.8526 19.724 62.9966 19.916C63.1406 20.084 63.2726 20.168 63.3926 20.168C63.5366 20.168 63.7166 20.132 63.9326 20.06C64.1246 19.988 64.2566 19.904 64.3286 19.808C64.4006 19.712 64.4366 19.556 64.4366 19.34C64.4366 19.124 64.4006 18.968 64.3286 18.872C64.2566 18.752 64.1126 18.668 63.8966 18.62ZM76.7486 19.016L76.4966 18.98L76.4246 19.196L76.5686 19.448L76.8206 19.268L76.7486 19.016ZM78.2966 18.98L77.8286 19.088L77.7926 19.592H78.2246L78.5846 19.34L78.2966 18.98ZM61.0886 19.232C60.6806 19.136 60.3566 19.076 60.1166 19.052C59.8766 19.028 59.6606 19.196 59.4686 19.556C59.2286 19.94 59.1326 20.252 59.1806 20.492C59.2286 20.732 59.4086 21.02 59.7206 21.356C60.0086 21.668 60.2606 21.836 60.4766 21.86C60.7166 21.884 61.0286 21.812 61.4126 21.644C61.8206 21.452 62.1086 21.272 62.2766 21.104C62.4446 20.936 62.5046 20.624 62.4566 20.168C62.4086 19.76 62.2646 19.52 62.0246 19.448C61.8086 19.376 61.4966 19.304 61.0886 19.232ZM76.9646 20.888L76.6406 20.744L76.4246 20.924L76.5326 21.176L76.8566 21.248L76.9646 20.888ZM70.7366 22.004C70.4006 21.644 70.1246 21.38 69.9086 21.212C69.7166 21.02 69.4046 21.032 68.9726 21.248C68.5166 21.488 68.2526 21.74 68.1806 22.004C68.1086 22.268 68.1206 22.652 68.2166 23.156C68.2886 23.66 68.3966 24.032 68.5406 24.272C68.7086 24.488 69.0446 24.632 69.5486 24.704C70.1246 24.8 70.5686 24.812 70.8806 24.74C71.1926 24.668 71.4806 24.38 71.7446 23.876C71.9846 23.396 71.9726 23.06 71.7086 22.868C71.4446 22.652 71.1206 22.364 70.7366 22.004ZM78.5126 22.184L78.2966 22.004L78.0806 22.292L78.2966 22.508H78.6206L78.5126 22.184ZM76.0646 22.22C75.7766 22.052 75.5126 22.064 75.2726 22.256C75.1286 22.4 75.0206 22.52 74.9486 22.616C74.9006 22.712 74.9246 22.856 75.0206 23.048C75.0926 23.24 75.1766 23.348 75.2726 23.372C75.3926 23.372 75.5486 23.36 75.7406 23.336C75.9326 23.312 76.0766 23.288 76.1726 23.264C76.2686 23.216 76.3286 23.108 76.3526 22.94C76.4006 22.748 76.4006 22.604 76.3526 22.508C76.3046 22.412 76.2086 22.316 76.0646 22.22ZM64.6166 22.076L64.1486 22.22L64.0406 22.688L64.5086 22.76L64.7966 22.508L64.6166 22.076ZM61.8446 22.688C61.6526 22.52 61.4726 22.496 61.3046 22.616C61.0886 22.76 61.0046 22.94 61.0526 23.156C61.1246 23.396 61.2806 23.528 61.5206 23.552C61.7366 23.576 61.8926 23.468 61.9886 23.228C62.0846 23.012 62.0366 22.832 61.8446 22.688ZM66.8486 23.192L66.5246 23.372L66.5606 23.624L66.7766 23.84L67.0646 23.552L66.8486 23.192ZM64.2206 23.66L63.8966 23.768L63.8246 24.056L64.1126 24.344L64.2926 23.984L64.2206 23.66ZM85.1141 26C84.8501 26 84.6221 25.904 84.4301 25.712C84.2381 25.52 84.1421 25.292 84.1421 25.028V1.772C84.1421 1.508 84.2381 1.28 84.4301 1.088C84.6221 0.895998 84.8501 0.799998 85.1141 0.799998H91.9901C92.2541 0.799998 92.4821 0.895998 92.6741 1.088C92.8661 1.28 92.9621 1.508 92.9621 1.772V8.9L97.0301 1.592C97.1501 1.4 97.3181 1.22 97.5341 1.052C97.7741 0.883999 98.0861 0.799998 98.4701 0.799998H106.426C106.642 0.799998 106.822 0.883999 106.966 1.052C107.134 1.196 107.218 1.376 107.218 1.592C107.218 1.736 107.182 1.868 107.11 1.988L100.63 12.86L107.722 24.812C107.794 24.908 107.83 25.04 107.83 25.208C107.83 25.424 107.746 25.616 107.578 25.784C107.434 25.928 107.254 26 107.038 26H98.8301C98.3501 26 97.9901 25.892 97.7501 25.676C97.5341 25.436 97.4021 25.268 97.3541 25.172L92.9621 17.324V25.028C92.9621 25.292 92.8661 25.52 92.6741 25.712C92.4821 25.904 92.2541 26 91.9901 26H85.1141ZM105.31 2.312C105.214 2.192 105.142 2.096 105.094 2.024C105.046 1.952 104.95 1.952 104.806 2.024C104.566 2.144 104.47 2.348 104.518 2.636C104.542 2.78 104.59 2.876 104.662 2.924C104.758 2.948 104.878 2.972 105.022 2.996C105.142 3.02 105.214 2.996 105.238 2.924C105.262 2.852 105.298 2.768 105.346 2.672C105.418 2.504 105.406 2.384 105.31 2.312ZM101.854 2.348C101.71 2.204 101.53 2.18 101.314 2.276C101.098 2.372 101.002 2.528 101.026 2.744C101.05 2.864 101.086 2.936 101.134 2.96C101.206 2.96 101.302 2.972 101.422 2.996C101.542 3.02 101.626 3.032 101.674 3.032C101.746 3.032 101.806 2.984 101.854 2.888C101.974 2.672 101.974 2.492 101.854 2.348ZM99.3701 2.852C99.1301 2.78 98.9621 2.792 98.8661 2.888C98.7701 2.984 98.6621 3.14 98.5421 3.356C98.4221 3.572 98.3501 3.74 98.3261 3.86C98.3261 3.98 98.4101 4.124 98.5781 4.292C98.7221 4.46 98.8421 4.52 98.9381 4.472C99.0581 4.424 99.2261 4.364 99.4421 4.292C99.5861 4.22 99.6701 4.148 99.6941 4.076C99.7181 3.98 99.7181 3.86 99.6941 3.716C99.6701 3.476 99.6701 3.284 99.6941 3.14C99.7181 2.996 99.6101 2.9 99.3701 2.852ZM104.086 3.428C103.942 3.428 103.834 3.44 103.762 3.464C103.69 3.488 103.63 3.572 103.582 3.716C103.534 3.836 103.546 3.92 103.618 3.968C103.69 4.016 103.774 4.076 103.87 4.148C104.014 4.244 104.146 4.244 104.266 4.148C104.386 4.076 104.482 4.028 104.554 4.004C104.65 3.956 104.674 3.872 104.626 3.752C104.602 3.584 104.542 3.488 104.446 3.464C104.374 3.44 104.254 3.428 104.086 3.428ZM90.3341 4.724C90.0701 4.484 89.8541 4.352 89.6861 4.328C89.5181 4.28 89.2781 4.34 88.9661 4.508C88.6301 4.7 88.3781 4.88 88.2101 5.048C88.0661 5.192 88.0301 5.456 88.1021 5.84C88.1741 6.224 88.3061 6.452 88.4981 6.524C88.7141 6.572 89.0141 6.62 89.3981 6.668C89.8541 6.716 90.2261 6.788 90.5141 6.884C90.8021 6.956 91.0421 6.776 91.2341 6.344C91.4261 5.912 91.4021 5.612 91.1621 5.444C90.9461 5.276 90.6701 5.036 90.3341 4.724ZM102.142 5.876C102.118 5.732 102.058 5.648 101.962 5.624C101.866 5.6 101.734 5.588 101.566 5.588C101.398 5.588 101.278 5.6 101.206 5.624C101.134 5.648 101.074 5.732 101.026 5.876C100.978 5.996 100.978 6.092 101.026 6.164C101.098 6.212 101.182 6.284 101.278 6.38C101.47 6.524 101.638 6.548 101.782 6.452C101.926 6.356 102.034 6.284 102.106 6.236C102.178 6.164 102.19 6.044 102.142 5.876ZM98.9381 6.236C98.7221 6.14 98.5541 6.152 98.4341 6.272C98.3141 6.392 98.3021 6.56 98.3981 6.776C98.4701 6.896 98.5181 7.004 98.5421 7.1C98.5901 7.172 98.6981 7.196 98.8661 7.172C99.0101 7.148 99.0941 7.1 99.1181 7.028C99.1661 6.932 99.2021 6.812 99.2261 6.668C99.2501 6.5 99.1541 6.356 98.9381 6.236ZM86.7701 6.56C86.6981 6.344 86.5301 6.224 86.2661 6.2C86.0261 6.176 85.8581 6.284 85.7621 6.524C85.6661 6.764 85.7021 6.956 85.8701 7.1C86.0621 7.268 86.2661 7.28 86.4821 7.136C86.7221 6.992 86.8181 6.8 86.7701 6.56ZM88.2461 8.18C88.0301 7.988 87.8501 7.844 87.7061 7.748C87.5861 7.628 87.4061 7.64 87.1661 7.784C86.9021 7.952 86.7581 8.12 86.7341 8.288C86.7101 8.456 86.7341 8.684 86.8061 8.972C86.8541 9.26 86.9381 9.452 87.0581 9.548C87.1781 9.644 87.3821 9.704 87.6701 9.728C87.9341 9.752 88.1261 9.728 88.2461 9.656C88.3661 9.56 88.4861 9.38 88.6061 9.116C88.7021 8.9 88.7141 8.732 88.6421 8.612C88.5701 8.492 88.4381 8.348 88.2461 8.18ZM95.6621 7.964L95.3021 8.18L95.3381 8.504L95.6621 8.648L95.9861 8.36L95.6621 7.964ZM97.3901 9.584C97.3661 9.368 97.3421 9.2 97.3181 9.08C97.2941 8.96 97.1741 8.876 96.9581 8.828C96.7421 8.78 96.5861 8.804 96.4901 8.9C96.4181 8.972 96.3341 9.104 96.2381 9.296C96.1421 9.44 96.1181 9.56 96.1661 9.656C96.2141 9.728 96.2861 9.824 96.3821 9.944C96.5501 10.136 96.7421 10.184 96.9581 10.088C97.1261 10.016 97.2461 9.956 97.3181 9.908C97.3901 9.836 97.4141 9.728 97.3901 9.584ZM93.2501 10.412C93.0581 10.364 92.9261 10.4 92.8541 10.52C92.8061 10.64 92.7221 10.784 92.6021 10.952C92.4821 11.144 92.3741 11.288 92.2781 11.384C92.2061 11.48 92.2301 11.612 92.3501 11.78C92.4941 11.948 92.6261 12.008 92.7461 11.96C92.8661 11.912 93.0341 11.852 93.2501 11.78C93.4181 11.708 93.5381 11.648 93.6101 11.6C93.6821 11.528 93.7181 11.396 93.7181 11.204C93.6941 10.964 93.6581 10.784 93.6101 10.664C93.5861 10.544 93.4661 10.46 93.2501 10.412ZM95.9141 11.024C95.8901 10.712 95.7461 10.52 95.4821 10.448C95.3141 10.4 95.1821 10.412 95.0861 10.484C95.0141 10.532 94.9301 10.628 94.8341 10.772C94.7621 10.892 94.7381 10.988 94.7621 11.06C94.7861 11.132 94.8461 11.228 94.9421 11.348C95.0381 11.492 95.1221 11.6 95.1941 11.672C95.2661 11.72 95.3741 11.72 95.5181 11.672C95.8061 11.552 95.9381 11.336 95.9141 11.024ZM100.09 11.492L99.6221 11.312L99.4781 11.744L99.5501 12.212L100.09 12.032V11.492ZM90.3701 12.788C90.1541 12.548 89.9621 12.404 89.7941 12.356C89.6501 12.284 89.4341 12.308 89.1461 12.428C88.8101 12.572 88.5461 12.692 88.3541 12.788C88.1621 12.884 88.0781 13.124 88.1021 13.508C88.1261 14.036 88.1501 14.456 88.1741 14.768C88.2221 15.056 88.4981 15.272 89.0021 15.416C89.5541 15.56 89.9501 15.548 90.1901 15.38C90.4301 15.188 90.7061 14.864 91.0181 14.408C91.2581 14.024 91.2701 13.748 91.0541 13.58C90.8621 13.388 90.6341 13.124 90.3701 12.788ZM97.9661 12.68C97.7741 12.536 97.6181 12.476 97.4981 12.5C97.3781 12.524 97.2221 12.608 97.0301 12.752C96.7181 12.968 96.6221 13.244 96.7421 13.58C96.8141 13.82 96.8861 14.012 96.9581 14.156C97.0301 14.276 97.1981 14.336 97.4621 14.336C97.7021 14.336 97.8461 14.276 97.8941 14.156C97.9421 14.012 98.0021 13.82 98.0741 13.58C98.1461 13.364 98.1941 13.196 98.2181 13.076C98.2421 12.956 98.1581 12.824 97.9661 12.68ZM99.2981 15.092C99.1061 14.9 98.9381 14.78 98.7941 14.732C98.6741 14.684 98.4941 14.708 98.2541 14.804C98.0381 14.924 97.9421 15.056 97.9661 15.2C97.9901 15.32 98.0141 15.5 98.0381 15.74C98.0621 15.908 98.1101 16.016 98.1821 16.064C98.2781 16.088 98.3981 16.124 98.5421 16.172C98.7821 16.22 98.9621 16.28 99.0821 16.352C99.2261 16.4 99.3581 16.328 99.4781 16.136C99.5981 15.896 99.6341 15.716 99.5861 15.596C99.5621 15.452 99.4661 15.284 99.2981 15.092ZM96.5621 15.416C96.3461 15.128 96.1301 15.032 95.9141 15.128C95.7221 15.224 95.4581 15.32 95.1221 15.416C94.8101 15.512 94.5461 15.584 94.3301 15.632C94.1381 15.68 94.0421 15.872 94.0421 16.208C94.0421 16.592 94.1021 16.856 94.2221 17C94.3661 17.144 94.6181 17.276 94.9781 17.396C95.2661 17.492 95.4701 17.468 95.5901 17.324C95.7101 17.18 95.8541 16.988 96.0221 16.748C96.2381 16.46 96.4301 16.244 96.5981 16.1C96.7661 15.932 96.7541 15.704 96.5621 15.416ZM90.2261 16.712L89.9741 16.928L90.0101 17.216L90.2981 17.252L90.5141 16.964L90.2261 16.712ZM101.062 17.072C100.918 16.952 100.798 16.928 100.702 17C100.606 17.072 100.474 17.156 100.306 17.252C100.138 17.348 100.018 17.432 99.9461 17.504C99.8741 17.552 99.8501 17.66 99.8741 17.828C99.9461 18.068 100.006 18.26 100.054 18.404C100.102 18.524 100.246 18.596 100.486 18.62C100.726 18.644 100.894 18.608 100.99 18.512C101.086 18.392 101.182 18.224 101.278 18.008C101.374 17.792 101.41 17.624 101.386 17.504C101.362 17.384 101.254 17.24 101.062 17.072ZM88.6061 18.152C88.2941 18.056 88.0421 18.02 87.8501 18.044C87.6821 18.068 87.5021 18.224 87.3101 18.512C87.1421 18.752 87.1061 18.944 87.2021 19.088C87.2981 19.232 87.4301 19.436 87.5981 19.7C87.7661 19.892 87.9101 20.024 88.0301 20.096C88.1501 20.168 88.3301 20.168 88.5701 20.096C88.9301 19.976 89.2301 19.892 89.4701 19.844C89.7101 19.796 89.8301 19.58 89.8301 19.196C89.8301 18.788 89.7221 18.548 89.5061 18.476C89.2901 18.404 88.9901 18.296 88.6061 18.152ZM102.61 19.628C102.466 19.58 102.358 19.616 102.286 19.736C102.214 19.832 102.142 19.916 102.07 19.988C101.998 20.036 101.998 20.108 102.07 20.204C102.166 20.3 102.25 20.348 102.322 20.348C102.394 20.348 102.49 20.336 102.61 20.312C102.73 20.264 102.826 20.228 102.898 20.204C102.97 20.156 103.006 20.06 103.006 19.916C103.006 19.796 102.97 19.736 102.898 19.736C102.826 19.712 102.73 19.676 102.61 19.628ZM99.2261 20.024C99.0101 19.832 98.7821 19.808 98.5421 19.952C98.2781 20.12 98.1821 20.336 98.2541 20.6C98.3021 20.816 98.3501 20.972 98.3981 21.068C98.4701 21.164 98.6021 21.224 98.7941 21.248C99.0101 21.272 99.1301 21.224 99.1541 21.104C99.2021 20.984 99.2621 20.828 99.3341 20.636C99.3821 20.492 99.4061 20.384 99.4061 20.312C99.4061 20.216 99.3461 20.12 99.2261 20.024ZM90.7301 22.076C90.6341 21.812 90.5261 21.644 90.4061 21.572C90.2861 21.5 90.0821 21.464 89.7941 21.464C89.5781 21.464 89.4341 21.524 89.3621 21.644C89.2901 21.74 89.2181 21.908 89.1461 22.148C89.0501 22.46 89.1341 22.712 89.3981 22.904C89.6621 23.096 89.9261 23.108 90.1901 22.94C90.3821 22.796 90.5381 22.676 90.6581 22.58C90.7781 22.484 90.8021 22.316 90.7301 22.076ZM101.062 22.148L100.594 22.22L100.666 22.4H100.882L101.062 22.148ZM86.5541 22.22C86.4101 22.196 86.2901 22.184 86.1941 22.184C86.1221 22.16 86.0501 22.208 85.9781 22.328C85.8821 22.472 85.8461 22.592 85.8701 22.688C85.8941 22.76 85.9541 22.856 86.0501 22.976C86.1461 23.072 86.2301 23.12 86.3021 23.12C86.3741 23.096 86.4701 23.06 86.5901 23.012C86.7101 22.964 86.8061 22.928 86.8781 22.904C86.9501 22.856 86.9861 22.76 86.9861 22.616C86.9861 22.472 86.9501 22.388 86.8781 22.364C86.8061 22.316 86.6981 22.268 86.5541 22.22ZM104.374 22.436C104.254 22.268 104.146 22.184 104.05 22.184C103.954 22.184 103.822 22.22 103.654 22.292C103.462 22.364 103.318 22.424 103.222 22.472C103.126 22.52 103.078 22.64 103.078 22.832C103.078 23.048 103.126 23.18 103.222 23.228C103.342 23.252 103.498 23.288 103.69 23.336C103.906 23.408 104.074 23.492 104.194 23.588C104.338 23.66 104.482 23.588 104.626 23.372C104.77 23.18 104.794 23.024 104.698 22.904C104.626 22.784 104.518 22.628 104.374 22.436ZM91.8821 23.192L91.6661 22.976L91.4861 23.264L91.5941 23.516L91.8461 23.444L91.8821 23.192ZM110.848 26C110.584 26 110.356 25.904 110.164 25.712C109.972 25.52 109.876 25.292 109.876 25.028V1.772C109.876 1.508 109.972 1.28 110.164 1.088C110.356 0.895998 110.584 0.799998 110.848 0.799998H129.316C129.58 0.799998 129.808 0.895998 130 1.088C130.192 1.28 130.288 1.508 130.288 1.772V6.848C130.288 7.112 130.192 7.34 130 7.532C129.808 7.724 129.58 7.82 129.316 7.82H118.516V10.088H128.524C128.788 10.088 129.016 10.184 129.208 10.376C129.4 10.568 129.496 10.796 129.496 11.06V15.74C129.496 16.004 129.4 16.232 129.208 16.424C129.016 16.616 128.788 16.712 128.524 16.712H118.516V18.98H129.604C129.868 18.98 130.096 19.076 130.288 19.268C130.48 19.46 130.576 19.688 130.576 19.952V25.028C130.576 25.292 130.48 25.52 130.288 25.712C130.096 25.904 129.868 26 129.604 26H110.848ZM122.944 2.348C122.848 2.156 122.728 2.084 122.584 2.132C122.464 2.18 122.308 2.216 122.116 2.24C121.9 2.264 121.72 2.264 121.576 2.24C121.432 2.216 121.348 2.312 121.324 2.528C121.276 2.744 121.3 2.888 121.396 2.96C121.492 3.032 121.648 3.128 121.864 3.248C122.056 3.344 122.2 3.428 122.296 3.5C122.416 3.548 122.56 3.5 122.728 3.356C122.92 3.188 123.028 3.044 123.052 2.924C123.076 2.78 123.04 2.588 122.944 2.348ZM112.756 2.564C112.588 2.396 112.432 2.3 112.288 2.276C112.168 2.228 112 2.252 111.784 2.348C111.496 2.492 111.268 2.612 111.1 2.708C110.932 2.78 110.86 2.972 110.884 3.284C110.932 3.596 111.052 3.764 111.244 3.788C111.436 3.812 111.688 3.86 112 3.932C112.264 3.98 112.468 4.004 112.612 4.004C112.78 4.004 112.924 3.884 113.044 3.644C113.188 3.404 113.224 3.224 113.152 3.104C113.08 2.96 112.948 2.78 112.756 2.564ZM127.012 2.708C126.844 2.54 126.688 2.48 126.544 2.528C126.424 2.552 126.256 2.624 126.04 2.744C125.8 2.864 125.608 2.96 125.464 3.032C125.344 3.08 125.296 3.236 125.32 3.5C125.368 3.764 125.464 3.908 125.608 3.932C125.752 3.956 125.956 3.992 126.22 4.04C126.46 4.088 126.652 4.124 126.796 4.148C126.964 4.172 127.108 4.064 127.228 3.824C127.348 3.584 127.384 3.392 127.336 3.248C127.312 3.104 127.204 2.924 127.012 2.708ZM120.64 3.104C120.64 2.936 120.616 2.816 120.568 2.744C120.544 2.672 120.46 2.624 120.316 2.6C120.148 2.552 120.016 2.54 119.92 2.564C119.848 2.564 119.764 2.624 119.668 2.744C119.524 2.984 119.536 3.224 119.704 3.464C119.8 3.584 119.884 3.644 119.956 3.644C120.052 3.62 120.172 3.584 120.316 3.536C120.532 3.464 120.64 3.32 120.64 3.104ZM118.48 3.068L118.264 2.888L118.084 3.068V3.356L118.408 3.392L118.48 3.068ZM128.56 3.428L128.236 3.284L127.948 3.392L128.02 3.752H128.38L128.56 3.428ZM116.86 3.788C116.572 3.692 116.368 3.704 116.248 3.824C116.152 3.944 116.02 4.124 115.852 4.364C115.684 4.604 115.564 4.796 115.492 4.94C115.42 5.06 115.468 5.24 115.636 5.48C115.828 5.72 115.996 5.876 116.14 5.948C116.308 5.996 116.536 5.972 116.824 5.876C117.112 5.78 117.268 5.66 117.292 5.516C117.316 5.348 117.328 5.12 117.328 4.832C117.328 4.544 117.316 4.316 117.292 4.148C117.268 3.98 117.124 3.86 116.86 3.788ZM113.98 4.256L113.764 4.436L113.836 4.688L114.16 4.796L114.232 4.436L113.98 4.256ZM122.044 4.976C121.948 4.904 121.864 4.892 121.792 4.94C121.72 4.988 121.636 5.06 121.54 5.156C121.444 5.228 121.36 5.288 121.288 5.336C121.216 5.36 121.204 5.432 121.252 5.552C121.3 5.696 121.348 5.804 121.396 5.876C121.444 5.948 121.552 5.984 121.72 5.984C121.96 5.984 122.128 5.852 122.224 5.588C122.32 5.348 122.26 5.144 122.044 4.976ZM126.364 5.804C126.244 5.756 126.16 5.768 126.112 5.84C126.088 5.912 126.028 5.996 125.932 6.092C125.86 6.188 125.8 6.272 125.752 6.344C125.728 6.392 125.752 6.464 125.824 6.56C125.92 6.68 126.076 6.716 126.292 6.668C126.412 6.62 126.508 6.584 126.58 6.56C126.676 6.536 126.724 6.464 126.724 6.344C126.748 6.08 126.628 5.9 126.364 5.804ZM113.188 7.1C113.02 6.98 112.888 6.884 112.792 6.812C112.72 6.716 112.6 6.728 112.432 6.848C112.24 6.968 112.12 7.088 112.072 7.208C112.024 7.328 112.036 7.496 112.108 7.712C112.156 7.928 112.228 8.06 112.324 8.108C112.444 8.132 112.612 8.144 112.828 8.144C113.068 8.144 113.248 8.144 113.368 8.144C113.488 8.12 113.596 8 113.692 7.784C113.764 7.592 113.74 7.46 113.62 7.388C113.5 7.316 113.356 7.22 113.188 7.1ZM115.384 7.388L115.06 7.568L115.024 7.784L115.24 8.036L115.42 7.748L115.384 7.388ZM112.792 9.692C112.528 9.62 112.336 9.632 112.216 9.728C112.096 9.8 111.952 9.944 111.784 10.16C111.64 10.376 111.556 10.556 111.532 10.7C111.532 10.82 111.616 10.976 111.784 11.168C111.928 11.384 112.06 11.54 112.18 11.636C112.324 11.708 112.528 11.708 112.792 11.636C113.032 11.54 113.152 11.42 113.152 11.276C113.176 11.132 113.188 10.928 113.188 10.664C113.188 10.4 113.176 10.196 113.152 10.052C113.152 9.908 113.032 9.788 112.792 9.692ZM118.516 12.104C118.204 11.936 117.952 11.864 117.76 11.888C117.592 11.912 117.376 12.032 117.112 12.248C116.848 12.512 116.68 12.74 116.608 12.932C116.536 13.1 116.572 13.352 116.716 13.688C116.884 14.072 117.04 14.36 117.184 14.552C117.352 14.744 117.652 14.816 118.084 14.768C118.516 14.72 118.78 14.6 118.876 14.408C118.996 14.192 119.104 13.868 119.2 13.436C119.272 13.076 119.248 12.812 119.128 12.644C119.032 12.476 118.828 12.296 118.516 12.104ZM121.792 12.212C121.648 12.044 121.456 12.008 121.216 12.104C121.072 12.152 120.976 12.212 120.928 12.284C120.88 12.332 120.856 12.428 120.856 12.572C120.88 12.836 121.024 13.004 121.288 13.076C121.408 13.1 121.492 13.088 121.54 13.04C121.588 12.968 121.648 12.872 121.72 12.752C121.792 12.632 121.84 12.536 121.864 12.464C121.888 12.392 121.864 12.308 121.792 12.212ZM113.908 13.256C113.788 13.16 113.68 13.1 113.584 13.076C113.512 13.052 113.416 13.088 113.296 13.184C113.128 13.28 113.02 13.376 112.972 13.472C112.924 13.544 112.924 13.676 112.972 13.868C113.02 14.036 113.092 14.156 113.188 14.228C113.284 14.276 113.428 14.3 113.62 14.3C113.788 14.3 113.908 14.264 113.98 14.192C114.052 14.12 114.112 14 114.16 13.832C114.208 13.688 114.208 13.58 114.16 13.508C114.136 13.436 114.052 13.352 113.908 13.256ZM123.016 13.4L122.692 13.184L122.368 13.328L122.476 13.724H122.836L123.016 13.4ZM111.532 13.4L111.064 13.472L111.136 13.976L111.568 14.048L111.892 13.724L111.532 13.4ZM121.468 14.444C121.324 14.348 121.216 14.264 121.144 14.192C121.096 14.096 121 14.096 120.856 14.192C120.568 14.384 120.472 14.636 120.568 14.948C120.592 15.116 120.652 15.2 120.748 15.2C120.868 15.2 121.012 15.2 121.18 15.2C121.348 15.2 121.468 15.2 121.54 15.2C121.636 15.2 121.708 15.128 121.756 14.984C121.804 14.84 121.792 14.744 121.72 14.696C121.672 14.624 121.588 14.54 121.468 14.444ZM114.052 15.056L113.872 15.164L113.8 15.452L114.124 15.524L114.268 15.272L114.052 15.056ZM115.204 16.424C115.036 16.28 114.904 16.148 114.808 16.028C114.736 15.908 114.604 15.908 114.412 16.028C114.22 16.124 114.148 16.244 114.196 16.388C114.268 16.508 114.328 16.676 114.376 16.892C114.424 17.06 114.46 17.192 114.484 17.288C114.532 17.384 114.64 17.444 114.808 17.468C115.024 17.492 115.18 17.48 115.276 17.432C115.372 17.384 115.456 17.264 115.528 17.072C115.6 16.904 115.588 16.784 115.492 16.712C115.42 16.64 115.324 16.544 115.204 16.424ZM112.468 16.424C112.276 16.4 112.12 16.388 112 16.388C111.904 16.388 111.82 16.484 111.748 16.676C111.604 16.988 111.652 17.264 111.892 17.504C112.06 17.648 112.204 17.744 112.324 17.792C112.444 17.816 112.6 17.768 112.792 17.648C112.96 17.552 113.02 17.444 112.972 17.324C112.948 17.204 112.924 17.048 112.9 16.856C112.852 16.592 112.708 16.448 112.468 16.424ZM112.504 19.124C112.504 18.98 112.504 18.86 112.504 18.764C112.504 18.644 112.42 18.572 112.252 18.548C112.108 18.5 112.012 18.524 111.964 18.62C111.94 18.716 111.892 18.836 111.82 18.98C111.724 19.124 111.724 19.256 111.82 19.376C111.916 19.472 111.988 19.544 112.036 19.592C112.084 19.64 112.168 19.64 112.288 19.592C112.456 19.52 112.528 19.364 112.504 19.124ZM114.808 20.672C114.808 20.432 114.772 20.264 114.7 20.168C114.652 20.048 114.52 19.952 114.304 19.88C113.992 19.784 113.752 19.724 113.584 19.7C113.416 19.676 113.248 19.796 113.08 20.06C112.912 20.3 112.888 20.492 113.008 20.636C113.152 20.756 113.308 20.924 113.476 21.14C113.644 21.332 113.776 21.476 113.872 21.572C113.968 21.668 114.136 21.668 114.376 21.572C114.616 21.5 114.748 21.404 114.772 21.284C114.796 21.14 114.808 20.936 114.808 20.672ZM124.312 20.204C123.976 20.084 123.736 20.096 123.592 20.24C123.448 20.384 123.28 20.6 123.088 20.888C122.896 21.176 122.752 21.416 122.656 21.608C122.584 21.776 122.644 21.992 122.836 22.256C123.052 22.544 123.256 22.664 123.448 22.616C123.64 22.544 123.892 22.46 124.204 22.364C124.468 22.268 124.636 22.16 124.708 22.04C124.78 21.92 124.816 21.728 124.816 21.464C124.816 21.104 124.804 20.828 124.78 20.636C124.78 20.444 124.624 20.3 124.312 20.204ZM116.968 21.392L116.464 21.248L116.392 21.752L116.68 21.968L116.932 21.788L116.968 21.392ZM128.92 22.292C128.872 22.124 128.824 21.992 128.776 21.896C128.728 21.8 128.62 21.752 128.452 21.752C128.236 21.752 128.068 21.776 127.948 21.824C127.852 21.872 127.768 21.992 127.696 22.184C127.624 22.352 127.624 22.484 127.696 22.58C127.792 22.652 127.924 22.748 128.092 22.868C128.26 23.012 128.392 23.144 128.488 23.264C128.608 23.36 128.764 23.348 128.956 23.228C129.148 23.084 129.208 22.952 129.136 22.832C129.064 22.688 128.992 22.508 128.92 22.292ZM118.948 22.112L118.588 22.076L118.552 22.436L118.84 22.616L119.02 22.364L118.948 22.112ZM120.532 24.38H120.244L120.208 24.632L120.46 24.776L120.64 24.596L120.532 24.38ZM145.196 26.36C141.572 26.36 138.68 25.544 136.52 23.912C134.36 22.28 133.208 19.796 133.064 16.46C133.04 15.476 133.028 14.408 133.028 13.256C133.028 12.104 133.04 11.012 133.064 9.98C133.16 7.844 133.712 6.08 134.72 4.688C135.752 3.272 137.168 2.216 138.968 1.52C140.768 0.799999 142.844 0.439999 145.196 0.439999C147.74 0.439999 149.924 0.811999 151.748 1.556C153.596 2.276 155.024 3.248 156.032 4.472C157.04 5.672 157.556 7.004 157.58 8.468C157.58 8.684 157.496 8.876 157.328 9.044C157.184 9.188 157.004 9.26 156.788 9.26H148.832C148.352 9.26 148.004 9.128 147.788 8.864C147.692 8.744 147.548 8.576 147.356 8.36C147.188 8.12 146.936 7.916 146.6 7.748C146.264 7.556 145.796 7.46 145.196 7.46C143.42 7.46 142.496 8.36 142.424 10.16C142.352 12.152 142.352 14.192 142.424 16.28C142.472 17.36 142.748 18.14 143.252 18.62C143.756 19.1 144.452 19.34 145.34 19.34C146.252 19.34 146.984 19.148 147.536 18.764C148.112 18.356 148.4 17.684 148.4 16.748H146.708C146.444 16.748 146.216 16.652 146.024 16.46C145.832 16.268 145.736 16.04 145.736 15.776V11.78C145.736 11.516 145.832 11.288 146.024 11.096C146.216 10.904 146.444 10.808 146.708 10.808H156.608C156.872 10.808 157.1 10.904 157.292 11.096C157.484 11.288 157.58 11.516 157.58 11.78V16.46C157.58 18.62 157.052 20.432 155.996 21.896C154.94 23.36 153.476 24.476 151.604 25.244C149.756 25.988 147.62 26.36 145.196 26.36ZM140.264 1.988C140.12 1.964 140.012 1.988 139.94 2.06C139.892 2.108 139.832 2.204 139.76 2.348C139.664 2.468 139.604 2.564 139.58 2.636C139.556 2.708 139.592 2.804 139.688 2.924C139.784 3.044 139.868 3.104 139.94 3.104C140.036 3.08 140.156 3.044 140.3 2.996C140.492 2.924 140.576 2.768 140.552 2.528C140.552 2.384 140.54 2.276 140.516 2.204C140.492 2.108 140.408 2.036 140.264 1.988ZM147.032 2.492L146.564 2.384L146.312 2.564L146.384 2.852L146.816 2.996L147.032 2.492ZM150.992 3.5C150.968 3.212 150.932 2.984 150.884 2.816C150.836 2.624 150.668 2.504 150.38 2.456C150.068 2.384 149.852 2.42 149.732 2.564C149.636 2.684 149.504 2.876 149.336 3.14C149.216 3.38 149.18 3.56 149.228 3.68C149.276 3.8 149.384 3.956 149.552 4.148C149.696 4.316 149.828 4.412 149.948 4.436C150.068 4.46 150.236 4.424 150.452 4.328C150.668 4.232 150.812 4.136 150.884 4.04C150.98 3.944 151.016 3.764 150.992 3.5ZM142.64 3.212C142.232 3.068 141.908 2.996 141.668 2.996C141.428 2.996 141.176 3.164 140.912 3.5C140.648 3.836 140.552 4.112 140.624 4.328C140.696 4.544 140.852 4.832 141.092 5.192C141.284 5.48 141.476 5.636 141.668 5.66C141.86 5.684 142.136 5.648 142.496 5.552C142.784 5.456 142.976 5.336 143.072 5.192C143.168 5.048 143.216 4.82 143.216 4.508C143.216 4.148 143.204 3.872 143.18 3.68C143.156 3.488 142.976 3.332 142.64 3.212ZM147.68 4.04C147.632 3.896 147.596 3.788 147.572 3.716C147.572 3.62 147.5 3.56 147.356 3.536C147.068 3.512 146.864 3.62 146.744 3.86C146.696 4.004 146.708 4.1 146.78 4.148C146.852 4.196 146.936 4.268 147.032 4.364C147.152 4.484 147.296 4.496 147.464 4.4C147.632 4.28 147.704 4.16 147.68 4.04ZM138.5 3.788C138.068 3.548 137.732 3.488 137.492 3.608C137.252 3.704 136.952 3.908 136.592 4.22C136.304 4.508 136.172 4.76 136.196 4.976C136.244 5.192 136.352 5.48 136.52 5.84C136.688 6.2 136.844 6.452 136.988 6.596C137.156 6.716 137.432 6.752 137.816 6.704C138.176 6.656 138.416 6.548 138.536 6.38C138.656 6.212 138.752 5.936 138.824 5.552C138.92 5.12 138.98 4.772 139.004 4.508C139.052 4.244 138.884 4.004 138.5 3.788ZM147.572 5.66C147.524 5.54 147.488 5.444 147.464 5.372C147.44 5.276 147.356 5.228 147.212 5.228C147.068 5.228 146.972 5.264 146.924 5.336C146.9 5.384 146.864 5.48 146.816 5.624C146.768 5.768 146.732 5.888 146.708 5.984C146.684 6.056 146.732 6.14 146.852 6.236C147.092 6.404 147.32 6.404 147.536 6.236C147.656 6.164 147.692 6.092 147.644 6.02C147.62 5.924 147.596 5.804 147.572 5.66ZM153.836 6.02C153.716 5.78 153.608 5.6 153.512 5.48C153.416 5.36 153.224 5.312 152.936 5.336C152.624 5.384 152.384 5.456 152.216 5.552C152.048 5.624 151.94 5.828 151.892 6.164C151.82 6.452 151.868 6.644 152.036 6.74C152.204 6.812 152.42 6.92 152.684 7.064C152.9 7.184 153.068 7.256 153.188 7.28C153.332 7.28 153.5 7.196 153.692 7.028C153.884 6.86 153.98 6.716 153.98 6.596C153.98 6.452 153.932 6.26 153.836 6.02ZM155.528 5.948L155.24 6.056L155.168 6.488L155.6 6.416L155.924 6.164L155.528 5.948ZM150.776 6.704C150.728 6.536 150.692 6.404 150.668 6.308C150.644 6.188 150.536 6.116 150.344 6.092C150.128 6.068 149.96 6.08 149.84 6.128C149.744 6.152 149.648 6.272 149.552 6.488C149.456 6.68 149.432 6.836 149.48 6.956C149.528 7.052 149.624 7.184 149.768 7.352C149.936 7.496 150.068 7.58 150.164 7.604C150.284 7.628 150.44 7.58 150.632 7.46C150.8 7.364 150.872 7.268 150.848 7.172C150.824 7.052 150.8 6.896 150.776 6.704ZM140.984 7.82C140.696 7.7 140.456 7.76 140.264 8C140.072 8.216 140.072 8.456 140.264 8.72C140.336 8.864 140.42 8.936 140.516 8.936C140.612 8.936 140.744 8.924 140.912 8.9C141.032 8.852 141.092 8.792 141.092 8.72C141.116 8.648 141.128 8.552 141.128 8.432C141.128 8.264 141.14 8.132 141.164 8.036C141.188 7.94 141.128 7.868 140.984 7.82ZM137.132 9.26L136.952 9.08L136.628 9.152L136.736 9.476L137.06 9.548L137.132 9.26ZM138.32 9.908C138.104 9.908 137.936 9.896 137.816 9.872C137.696 9.848 137.6 9.932 137.528 10.124C137.456 10.316 137.456 10.46 137.528 10.556C137.624 10.628 137.756 10.724 137.924 10.844C138.068 10.964 138.176 11.036 138.248 11.06C138.344 11.084 138.476 11.048 138.644 10.952C138.812 10.856 138.908 10.76 138.932 10.664C138.98 10.568 138.98 10.424 138.932 10.232C138.884 10.064 138.812 9.968 138.716 9.944C138.62 9.92 138.488 9.908 138.32 9.908ZM140.696 11.348L140.3 11.636L140.264 12.104L140.696 12.068L140.948 11.78L140.696 11.348ZM136.628 12.14C136.556 11.9 136.424 11.78 136.232 11.78C136.064 11.78 135.932 11.792 135.836 11.816C135.74 11.816 135.668 11.9 135.62 12.068C135.548 12.26 135.512 12.416 135.512 12.536C135.536 12.632 135.632 12.74 135.8 12.86C135.944 12.956 136.052 12.956 136.124 12.86C136.196 12.764 136.304 12.668 136.448 12.572C136.616 12.452 136.676 12.308 136.628 12.14ZM149.948 12.104C149.66 12.104 149.492 12.188 149.444 12.356C149.396 12.5 149.324 12.704 149.228 12.968C149.156 13.184 149.12 13.364 149.12 13.508C149.12 13.628 149.204 13.76 149.372 13.904C149.588 14.072 149.756 14.168 149.876 14.192C150.02 14.192 150.2 14.12 150.416 13.976C150.632 13.832 150.74 13.7 150.74 13.58C150.764 13.436 150.74 13.244 150.668 13.004C150.596 12.716 150.524 12.5 150.452 12.356C150.404 12.188 150.236 12.104 149.948 12.104ZM148.04 13.472C147.848 13.376 147.692 13.316 147.572 13.292C147.452 13.268 147.32 13.34 147.176 13.508C147.032 13.652 146.972 13.784 146.996 13.904C147.02 14.024 147.08 14.168 147.176 14.336C147.248 14.504 147.332 14.588 147.428 14.588C147.524 14.564 147.656 14.54 147.824 14.516C147.992 14.492 148.112 14.468 148.184 14.444C148.256 14.396 148.304 14.288 148.328 14.12C148.352 13.952 148.352 13.82 148.328 13.724C148.304 13.628 148.208 13.544 148.04 13.472ZM153.728 13.688L153.404 13.796L153.476 14.12L153.836 13.976L153.728 13.688ZM138.752 14.876C138.752 14.612 138.716 14.42 138.644 14.3C138.596 14.18 138.44 14.072 138.176 13.976C137.888 13.904 137.672 13.88 137.528 13.904C137.384 13.904 137.228 14.024 137.06 14.264C136.868 14.504 136.772 14.708 136.772 14.876C136.796 15.02 136.892 15.212 137.06 15.452C137.228 15.692 137.384 15.812 137.528 15.812C137.672 15.788 137.876 15.74 138.14 15.668C138.38 15.596 138.536 15.512 138.608 15.416C138.704 15.296 138.752 15.116 138.752 14.876ZM152.252 14.948L151.928 15.092L151.856 15.416L152.144 15.488L152.324 15.308L152.252 14.948ZM135.296 15.74L134.864 15.524L134.612 15.92L134.792 16.244H135.26L135.296 15.74ZM139.4 17.864C138.944 17.504 138.56 17.372 138.248 17.468C137.96 17.564 137.576 17.768 137.096 18.08C136.688 18.344 136.448 18.596 136.376 18.836C136.304 19.076 136.328 19.436 136.448 19.916C136.592 20.444 136.712 20.864 136.808 21.176C136.928 21.464 137.276 21.632 137.852 21.68C138.476 21.728 138.92 21.656 139.184 21.464C139.448 21.272 139.7 20.888 139.94 20.312C140.18 19.736 140.264 19.292 140.192 18.98C140.12 18.644 139.856 18.272 139.4 17.864ZM156.14 18.08C155.948 17.744 155.744 17.552 155.528 17.504C155.336 17.456 155.048 17.468 154.664 17.54C154.328 17.612 154.1 17.72 153.98 17.864C153.86 18.008 153.776 18.26 153.728 18.62C153.704 18.956 153.74 19.196 153.836 19.34C153.932 19.484 154.136 19.628 154.448 19.772C154.76 19.916 155 19.988 155.168 19.988C155.36 19.988 155.576 19.856 155.816 19.592C156.08 19.304 156.248 19.064 156.32 18.872C156.392 18.68 156.332 18.416 156.14 18.08ZM151.532 18.62C151.124 18.572 150.812 18.584 150.596 18.656C150.404 18.704 150.224 18.908 150.056 19.268C149.912 19.628 149.876 19.916 149.948 20.132C150.02 20.324 150.212 20.552 150.524 20.816C150.764 21.032 150.968 21.104 151.136 21.032C151.328 20.96 151.568 20.84 151.856 20.672C152.144 20.504 152.36 20.36 152.504 20.24C152.672 20.12 152.72 19.904 152.648 19.592C152.576 19.208 152.456 18.968 152.288 18.872C152.144 18.752 151.892 18.668 151.532 18.62ZM141.524 20.096L140.984 20.276L141.128 20.816L141.596 20.78L141.776 20.42L141.524 20.096ZM143.468 21.14C143.252 21.02 143.084 21.008 142.964 21.104C142.868 21.176 142.736 21.308 142.568 21.5C142.4 21.644 142.304 21.764 142.28 21.86C142.256 21.956 142.292 22.1 142.388 22.292C142.532 22.556 142.628 22.772 142.676 22.94C142.748 23.084 142.928 23.144 143.216 23.12C143.504 23.072 143.648 22.964 143.648 22.796C143.648 22.604 143.672 22.364 143.72 22.076C143.744 21.836 143.756 21.644 143.756 21.5C143.78 21.356 143.684 21.236 143.468 21.14ZM148.508 22.652C148.316 22.532 148.16 22.496 148.04 22.544C147.944 22.568 147.824 22.652 147.68 22.796C147.512 22.916 147.404 23.036 147.356 23.156C147.308 23.252 147.332 23.396 147.428 23.588C147.524 23.828 147.608 23.996 147.68 24.092C147.776 24.188 147.944 24.224 148.184 24.2C148.448 24.176 148.628 24.116 148.724 24.02C148.82 23.924 148.892 23.744 148.94 23.48C149.012 23.264 149 23.108 148.904 23.012C148.832 22.892 148.7 22.772 148.508 22.652ZM139.472 23.336L139.076 23.408L139.184 23.588L139.436 23.66L139.472 23.336ZM161.79 26C161.526 26 161.298 25.904 161.106 25.712C160.914 25.52 160.818 25.292 160.818 25.028V1.772C160.818 1.508 160.914 1.28 161.106 1.088C161.298 0.895998 161.526 0.799998 161.79 0.799998H172.446C175.902 0.799998 178.602 1.58 180.546 3.14C182.49 4.7 183.462 6.836 183.462 9.548C183.462 11.156 183.09 12.56 182.346 13.76C181.626 14.936 180.702 15.884 179.574 16.604L184.002 24.812C184.074 24.956 184.11 25.088 184.11 25.208C184.11 25.424 184.026 25.616 183.858 25.784C183.714 25.928 183.534 26 183.318 26H175.938C175.458 26 175.098 25.88 174.858 25.64C174.618 25.4 174.462 25.196 174.39 25.028L171.294 18.152H169.818V25.028C169.818 25.292 169.722 25.52 169.53 25.712C169.338 25.904 169.11 26 168.846 26H161.79ZM168.198 2.24C168.126 2.072 168.054 1.964 167.982 1.916C167.91 1.844 167.79 1.82 167.622 1.844C167.43 1.868 167.286 1.904 167.19 1.952C167.094 2 167.022 2.12 166.974 2.312C166.95 2.504 166.974 2.636 167.046 2.708C167.142 2.756 167.274 2.828 167.442 2.924C167.562 2.996 167.658 3.02 167.73 2.996C167.802 2.972 167.898 2.912 168.018 2.816C168.114 2.696 168.174 2.6 168.198 2.528C168.246 2.456 168.246 2.36 168.198 2.24ZM171.906 2.888C171.642 2.672 171.414 2.564 171.222 2.564C171.03 2.564 170.79 2.66 170.502 2.852C170.214 3.044 170.022 3.224 169.926 3.392C169.83 3.536 169.83 3.776 169.926 4.112C170.022 4.544 170.106 4.88 170.178 5.12C170.274 5.36 170.55 5.492 171.006 5.516C171.414 5.54 171.642 5.432 171.69 5.192C171.762 4.928 171.882 4.592 172.05 4.184C172.17 3.896 172.23 3.668 172.23 3.5C172.254 3.308 172.146 3.104 171.906 2.888ZM179.07 4.724C179.022 4.052 178.89 3.584 178.674 3.32C178.458 3.056 178.038 2.84 177.414 2.672C176.838 2.528 176.43 2.564 176.19 2.78C175.95 2.996 175.662 3.356 175.326 3.86C175.038 4.292 174.906 4.652 174.93 4.94C174.954 5.204 175.134 5.54 175.47 5.948C175.83 6.38 176.142 6.68 176.406 6.848C176.67 7.016 177.066 6.992 177.594 6.776C178.194 6.56 178.59 6.32 178.782 6.056C178.998 5.792 179.094 5.348 179.07 4.724ZM166.542 5.696C166.206 5.24 165.918 4.892 165.678 4.652C165.438 4.412 165.042 4.388 164.49 4.58C163.962 4.748 163.71 5.012 163.734 5.372C163.782 5.708 163.806 6.152 163.806 6.704C163.806 7.112 163.77 7.472 163.698 7.784C163.65 8.096 163.662 8.36 163.734 8.576C163.806 8.768 164.034 8.936 164.418 9.08C165.09 9.296 165.594 9.332 165.93 9.188C166.266 9.02 166.65 8.648 167.082 8.072C167.418 7.592 167.502 7.208 167.334 6.92C167.166 6.608 166.902 6.2 166.542 5.696ZM168.99 5.084L168.774 5.228L168.666 5.516L169.026 5.66L169.098 5.336L168.99 5.084ZM181.122 6.236L180.834 6.02L180.546 6.344L180.798 6.632L181.122 6.56V6.236ZM169.818 11.312H172.446C172.998 11.312 173.406 11.132 173.67 10.772C173.958 10.388 174.102 9.956 174.102 9.476C174.102 8.996 173.97 8.552 173.706 8.144C173.466 7.712 173.046 7.496 172.446 7.496H169.818V11.312ZM178.674 9.476C178.674 9.092 178.602 8.828 178.458 8.684C178.314 8.516 178.062 8.384 177.702 8.288C177.366 8.168 177.126 8.18 176.982 8.324C176.838 8.444 176.67 8.648 176.478 8.936C176.286 9.2 176.166 9.416 176.118 9.584C176.07 9.752 176.142 9.968 176.334 10.232C176.526 10.52 176.718 10.676 176.91 10.7C177.102 10.724 177.354 10.676 177.666 10.556C178.026 10.436 178.278 10.328 178.422 10.232C178.59 10.112 178.674 9.86 178.674 9.476ZM180.834 9.908L180.402 10.124L180.474 10.628L181.014 10.736L181.086 10.232L180.834 9.908ZM166.47 11.492L166.11 11.708L166.326 12.068L166.65 12.104L166.902 11.708L166.47 11.492ZM165.138 11.816L164.814 11.888V12.248L165.174 12.464L165.354 12.068L165.138 11.816ZM174.318 12.32C174.102 12.224 173.922 12.248 173.778 12.392C173.634 12.56 173.622 12.74 173.742 12.932C173.79 13.052 173.85 13.112 173.922 13.112C173.994 13.112 174.09 13.1 174.21 13.076C174.354 13.052 174.462 13.028 174.534 13.004C174.606 12.98 174.654 12.908 174.678 12.788C174.702 12.644 174.678 12.548 174.606 12.5C174.534 12.428 174.438 12.368 174.318 12.32ZM178.422 13.652C178.326 13.292 178.17 13.112 177.954 13.112C177.738 13.088 177.45 13.076 177.09 13.076C176.778 13.076 176.526 13.088 176.334 13.112C176.142 13.136 175.998 13.316 175.902 13.652C175.758 14.06 175.662 14.384 175.614 14.624C175.566 14.864 175.722 15.128 176.082 15.416C176.418 15.68 176.694 15.752 176.91 15.632C177.15 15.512 177.45 15.332 177.81 15.092C178.122 14.852 178.326 14.648 178.422 14.48C178.542 14.288 178.542 14.012 178.422 13.652ZM169.89 13.544L169.566 13.616L169.674 13.94L170.034 14.156L170.106 13.724L169.89 13.544ZM168.09 14.12L167.694 14.264L167.514 14.696L167.982 14.804L168.198 14.516L168.09 14.12ZM173.958 15.2L173.634 15.452L173.67 15.74L173.958 15.92L174.102 15.596L173.958 15.2ZM165.462 16.172C165.438 15.836 165.33 15.644 165.138 15.596C164.946 15.548 164.694 15.488 164.382 15.416C164.094 15.344 163.866 15.308 163.698 15.308C163.554 15.284 163.398 15.392 163.23 15.632C163.038 15.92 162.93 16.16 162.906 16.352C162.882 16.544 162.978 16.772 163.194 17.036C163.434 17.324 163.638 17.504 163.806 17.576C163.998 17.648 164.274 17.624 164.634 17.504C164.994 17.36 165.222 17.204 165.318 17.036C165.438 16.844 165.486 16.556 165.462 16.172ZM168.81 16.424C168.714 16.208 168.63 16.04 168.558 15.92C168.486 15.8 168.33 15.752 168.09 15.776C167.874 15.8 167.742 15.884 167.694 16.028C167.67 16.148 167.634 16.316 167.586 16.532C167.514 16.82 167.598 17.036 167.838 17.18C168.03 17.324 168.186 17.432 168.306 17.504C168.426 17.576 168.582 17.54 168.774 17.396C168.942 17.228 169.002 17.084 168.954 16.964C168.93 16.82 168.882 16.64 168.81 16.424ZM175.326 18.224L175.038 17.9L174.822 18.26L174.858 18.656L175.326 18.62V18.224ZM177.63 18.692C177.198 18.644 176.886 18.68 176.694 18.8C176.502 18.896 176.322 19.136 176.154 19.52C175.962 19.952 175.854 20.3 175.83 20.564C175.83 20.804 176.01 21.08 176.37 21.392C176.754 21.728 177.078 21.932 177.342 22.004C177.606 22.076 177.966 21.98 178.422 21.716C178.83 21.476 179.01 21.224 178.962 20.96C178.938 20.696 178.878 20.324 178.782 19.844C178.71 19.46 178.602 19.184 178.458 19.016C178.314 18.848 178.038 18.74 177.63 18.692ZM168.414 19.916L167.946 19.988V20.276L168.27 20.24L168.414 19.916ZM166.506 22.148C166.458 21.644 166.422 21.248 166.398 20.96C166.374 20.672 166.122 20.468 165.642 20.348C165.138 20.252 164.79 20.312 164.598 20.528C164.43 20.744 164.214 21.068 163.95 21.5C163.734 21.86 163.638 22.16 163.662 22.4C163.686 22.616 163.842 22.88 164.13 23.192C164.418 23.528 164.67 23.732 164.886 23.804C165.102 23.852 165.402 23.792 165.786 23.624C166.17 23.456 166.386 23.276 166.434 23.084C166.506 22.868 166.53 22.556 166.506 22.148ZM173.886 20.6L173.598 20.78L173.67 21.104L173.922 21.032L174.138 20.816L173.886 20.6ZM175.002 22.148C174.882 22.004 174.75 21.944 174.606 21.968C174.486 22.016 174.39 22.052 174.318 22.076C174.246 22.1 174.21 22.172 174.21 22.292C174.21 22.508 174.318 22.664 174.534 22.76C174.654 22.808 174.738 22.808 174.786 22.76C174.834 22.712 174.894 22.64 174.966 22.544C175.062 22.424 175.074 22.292 175.002 22.148ZM181.842 23.336C181.794 22.976 181.698 22.736 181.554 22.616C181.434 22.472 181.194 22.376 180.834 22.328C180.522 22.304 180.33 22.376 180.258 22.544C180.186 22.712 180.078 22.928 179.934 23.192C179.814 23.456 179.718 23.672 179.646 23.84C179.574 23.984 179.646 24.164 179.862 24.38C180.102 24.62 180.306 24.764 180.474 24.812C180.666 24.86 180.918 24.8 181.23 24.632C181.542 24.464 181.734 24.296 181.806 24.128C181.902 23.96 181.914 23.696 181.842 23.336ZM185.61 26C185.394 26 185.202 25.928 185.034 25.784C184.89 25.616 184.818 25.424 184.818 25.208C184.818 25.112 184.83 25.028 184.854 24.956L192.882 1.988C192.954 1.724 193.122 1.46 193.386 1.196C193.65 0.931999 194.022 0.799998 194.502 0.799998H202.314C202.794 0.799998 203.166 0.931999 203.43 1.196C203.694 1.46 203.862 1.724 203.934 1.988L211.962 24.956C211.986 25.028 211.998 25.112 211.998 25.208C211.998 25.424 211.914 25.616 211.746 25.784C211.602 25.928 211.422 26 211.206 26H204.546C204.09 26 203.754 25.904 203.538 25.712C203.346 25.496 203.214 25.292 203.142 25.1L202.278 22.724H194.538L193.674 25.1C193.602 25.292 193.47 25.496 193.278 25.712C193.086 25.904 192.75 26 192.27 26H185.61ZM196.518 3.104C196.374 3.08 196.254 3.08 196.158 3.104C196.086 3.104 196.014 3.164 195.942 3.284C195.846 3.548 195.894 3.776 196.086 3.968C196.23 4.088 196.35 4.172 196.446 4.22C196.542 4.268 196.674 4.244 196.842 4.148C197.01 4.076 197.094 3.992 197.094 3.896C197.094 3.776 197.082 3.62 197.058 3.428C197.034 3.284 196.974 3.2 196.878 3.176C196.806 3.152 196.686 3.128 196.518 3.104ZM200.334 4.076C200.214 3.812 200.082 3.656 199.938 3.608C199.794 3.56 199.59 3.548 199.326 3.572C199.014 3.596 198.762 3.632 198.57 3.68C198.402 3.704 198.282 3.872 198.21 4.184C198.114 4.544 198.102 4.82 198.174 5.012C198.246 5.18 198.438 5.36 198.75 5.552C199.062 5.744 199.314 5.84 199.506 5.84C199.722 5.816 199.974 5.684 200.262 5.444C200.502 5.228 200.598 5.024 200.55 4.832C200.526 4.64 200.454 4.388 200.334 4.076ZM193.962 4.328C193.818 4.208 193.686 4.172 193.566 4.22C193.47 4.244 193.35 4.316 193.206 4.436C192.99 4.58 192.93 4.784 193.026 5.048C193.074 5.24 193.122 5.384 193.17 5.48C193.218 5.576 193.338 5.624 193.53 5.624C193.746 5.624 193.902 5.6 193.998 5.552C194.094 5.48 194.178 5.348 194.25 5.156C194.322 4.94 194.334 4.784 194.286 4.688C194.238 4.568 194.13 4.448 193.962 4.328ZM197.526 6.092C197.406 6.092 197.334 6.128 197.31 6.2C197.31 6.272 197.286 6.368 197.238 6.488C197.19 6.584 197.154 6.668 197.13 6.74C197.106 6.788 197.13 6.848 197.202 6.92C197.346 7.064 197.514 7.076 197.706 6.956C197.898 6.86 197.97 6.716 197.922 6.524C197.85 6.26 197.718 6.116 197.526 6.092ZM203.286 7.568C203.214 7.4 203.13 7.304 203.034 7.28C202.962 7.232 202.83 7.22 202.638 7.244C202.446 7.268 202.29 7.292 202.17 7.316C202.05 7.34 201.966 7.448 201.918 7.64C201.894 7.856 201.93 8 202.026 8.072C202.122 8.144 202.254 8.228 202.422 8.324C202.59 8.42 202.722 8.492 202.818 8.54C202.938 8.564 203.07 8.516 203.214 8.396C203.358 8.252 203.43 8.132 203.43 8.036C203.43 7.916 203.382 7.76 203.286 7.568ZM193.062 7.964C192.894 7.82 192.75 7.748 192.63 7.748C192.51 7.748 192.354 7.808 192.162 7.928C191.946 8.048 191.79 8.168 191.694 8.288C191.598 8.384 191.586 8.552 191.658 8.792C191.706 9.056 191.778 9.236 191.874 9.332C191.994 9.428 192.198 9.488 192.486 9.512C192.726 9.536 192.894 9.5 192.99 9.404C193.086 9.284 193.182 9.116 193.278 8.9C193.374 8.684 193.41 8.516 193.386 8.396C193.362 8.276 193.254 8.132 193.062 7.964ZM196.374 15.704H200.442L198.39 9.008L196.374 15.704ZM203.682 10.412C203.49 10.34 203.334 10.304 203.214 10.304C203.094 10.304 202.974 10.388 202.854 10.556C202.734 10.724 202.686 10.868 202.71 10.988C202.734 11.084 202.806 11.216 202.926 11.384C203.07 11.6 203.178 11.768 203.25 11.888C203.346 11.984 203.514 11.996 203.754 11.924C203.994 11.852 204.126 11.756 204.15 11.636C204.198 11.492 204.222 11.288 204.222 11.024C204.222 10.832 204.174 10.7 204.078 10.628C204.006 10.556 203.874 10.484 203.682 10.412ZM194.466 12.104C194.322 11.864 194.178 11.72 194.034 11.672C193.89 11.624 193.686 11.636 193.422 11.708C193.158 11.756 192.99 11.84 192.918 11.96C192.87 12.08 192.834 12.272 192.81 12.536C192.786 12.752 192.822 12.896 192.918 12.968C193.014 13.04 193.158 13.112 193.35 13.184C193.614 13.304 193.818 13.424 193.962 13.544C194.106 13.664 194.286 13.616 194.502 13.4C194.718 13.16 194.802 12.956 194.754 12.788C194.73 12.62 194.634 12.392 194.466 12.104ZM203.034 13.04C202.866 12.968 202.746 12.98 202.674 13.076C202.602 13.172 202.506 13.28 202.386 13.4C202.266 13.52 202.182 13.616 202.134 13.688C202.11 13.736 202.134 13.832 202.206 13.976C202.326 14.216 202.506 14.324 202.746 14.3C202.914 14.276 203.01 14.228 203.034 14.156C203.082 14.084 203.118 13.964 203.142 13.796C203.166 13.604 203.19 13.46 203.214 13.364C203.262 13.244 203.202 13.136 203.034 13.04ZM205.518 13.724L205.158 13.868L204.978 14.156L205.302 14.372L205.554 14.12L205.518 13.724ZM205.266 15.776C205.194 15.584 205.134 15.428 205.086 15.308C205.062 15.188 204.954 15.116 204.762 15.092C204.546 15.068 204.414 15.116 204.366 15.236C204.318 15.356 204.258 15.512 204.186 15.704C204.09 15.944 204.138 16.148 204.33 16.316C204.522 16.484 204.666 16.64 204.762 16.784C204.858 16.904 205.014 16.904 205.23 16.784C205.446 16.64 205.518 16.496 205.446 16.352C205.374 16.208 205.314 16.016 205.266 15.776ZM202.962 15.128L202.638 15.38L202.674 15.704L203.034 15.812L203.142 15.488L202.962 15.128ZM206.922 16.172C206.73 16.028 206.574 16.016 206.454 16.136C206.334 16.208 206.238 16.28 206.166 16.352C206.118 16.424 206.118 16.52 206.166 16.64C206.214 16.784 206.274 16.856 206.346 16.856C206.442 16.856 206.562 16.856 206.706 16.856C206.874 16.856 207.006 16.856 207.102 16.856C207.198 16.856 207.258 16.784 207.282 16.64C207.33 16.496 207.306 16.4 207.21 16.352C207.138 16.304 207.042 16.244 206.922 16.172ZM195.042 17.468C194.97 17.252 194.898 17.108 194.826 17.036C194.754 16.964 194.61 16.928 194.394 16.928C194.106 16.952 193.878 16.976 193.71 17C193.566 17 193.458 17.132 193.386 17.396C193.29 17.708 193.266 17.948 193.314 18.116C193.362 18.284 193.53 18.464 193.818 18.656C194.058 18.8 194.238 18.812 194.358 18.692C194.478 18.548 194.646 18.392 194.862 18.224C195.006 18.104 195.09 17.996 195.114 17.9C195.138 17.78 195.114 17.636 195.042 17.468ZM200.37 17.396C200.154 17.276 199.962 17.288 199.794 17.432C199.65 17.576 199.626 17.756 199.722 17.972C199.77 18.068 199.818 18.116 199.866 18.116C199.938 18.116 200.034 18.116 200.154 18.116C200.37 18.092 200.49 18.008 200.514 17.864C200.562 17.624 200.514 17.468 200.37 17.396ZM202.854 17.72C202.734 17.648 202.638 17.588 202.566 17.54C202.518 17.468 202.446 17.468 202.35 17.54C202.23 17.636 202.182 17.72 202.206 17.792C202.23 17.864 202.266 17.972 202.314 18.116C202.386 18.332 202.506 18.44 202.674 18.44C202.794 18.44 202.866 18.416 202.89 18.368C202.938 18.296 202.986 18.2 203.034 18.08C203.058 17.96 202.998 17.84 202.854 17.72ZM197.526 18.26L197.346 17.936L196.914 18.08L196.986 18.584L197.454 18.728L197.526 18.26ZM191.91 18.692C191.742 18.524 191.61 18.392 191.514 18.296C191.442 18.176 191.298 18.164 191.082 18.26C190.866 18.38 190.734 18.5 190.686 18.62C190.638 18.74 190.626 18.932 190.65 19.196C190.698 19.46 190.746 19.652 190.794 19.772C190.866 19.892 191.034 19.988 191.298 20.06C191.586 20.108 191.814 20.12 191.982 20.096C192.15 20.048 192.306 19.892 192.45 19.628C192.594 19.388 192.582 19.22 192.414 19.124C192.246 19.028 192.078 18.884 191.91 18.692ZM205.266 19.196C205.194 19.028 205.134 18.908 205.086 18.836C205.038 18.74 204.93 18.692 204.762 18.692C204.57 18.716 204.45 18.776 204.402 18.872C204.354 18.944 204.306 19.064 204.258 19.232C204.234 19.376 204.246 19.484 204.294 19.556C204.342 19.628 204.426 19.7 204.546 19.772C204.69 19.868 204.798 19.94 204.87 19.988C204.966 20.012 205.086 19.976 205.23 19.88C205.35 19.76 205.398 19.652 205.374 19.556C205.374 19.46 205.338 19.34 205.266 19.196ZM199.938 19.34L199.758 19.016L199.506 19.268V19.52L199.83 19.664L199.938 19.34ZM193.998 19.988C193.83 19.844 193.686 19.796 193.566 19.844C193.47 19.868 193.326 19.94 193.134 20.06C192.99 20.156 192.906 20.252 192.882 20.348C192.882 20.444 192.906 20.576 192.954 20.744C193.002 20.984 193.17 21.116 193.458 21.14C193.65 21.14 193.794 21.14 193.89 21.14C193.986 21.116 194.07 21.02 194.142 20.852C194.214 20.636 194.25 20.48 194.25 20.384C194.25 20.264 194.166 20.132 193.998 19.988ZM207.354 21.248C207.114 21.176 206.922 21.152 206.778 21.176C206.658 21.2 206.538 21.32 206.418 21.536C206.25 21.8 206.118 22.016 206.022 22.184C205.926 22.328 205.986 22.52 206.202 22.76C206.394 23.024 206.574 23.132 206.742 23.084C206.934 23.036 207.174 22.952 207.462 22.832C207.774 22.712 208.014 22.616 208.182 22.544C208.35 22.472 208.422 22.268 208.398 21.932C208.374 21.62 208.266 21.452 208.074 21.428C207.882 21.38 207.642 21.32 207.354 21.248ZM191.478 22.616C191.334 22.28 191.154 22.124 190.938 22.148C190.746 22.148 190.47 22.16 190.11 22.184C189.726 22.208 189.414 22.232 189.174 22.256C188.958 22.256 188.802 22.448 188.706 22.832C188.61 23.216 188.634 23.504 188.778 23.696C188.922 23.864 189.162 24.056 189.498 24.272C189.906 24.512 190.218 24.68 190.434 24.776C190.674 24.872 190.962 24.764 191.298 24.452C191.658 24.164 191.814 23.9 191.766 23.66C191.742 23.396 191.646 23.048 191.478 22.616ZM214.946 26C214.682 26 214.454 25.904 214.262 25.712C214.07 25.52 213.974 25.292 213.974 25.028V1.772C213.974 1.508 214.07 1.28 214.262 1.088C214.454 0.895998 214.682 0.799998 214.946 0.799998H220.634C221.114 0.799998 221.474 0.931999 221.714 1.196C221.954 1.46 222.11 1.652 222.182 1.772L227.402 10.412L232.622 1.772C232.694 1.652 232.85 1.46 233.09 1.196C233.33 0.931999 233.69 0.799998 234.17 0.799998H239.858C240.122 0.799998 240.35 0.895998 240.542 1.088C240.734 1.28 240.83 1.508 240.83 1.772V25.028C240.83 25.292 240.734 25.52 240.542 25.712C240.35 25.904 240.122 26 239.858 26H233.342C233.078 26 232.85 25.904 232.658 25.712C232.466 25.52 232.37 25.292 232.37 25.028V15.164L229.994 19.052C229.874 19.244 229.706 19.448 229.49 19.664C229.298 19.856 229.022 19.952 228.662 19.952H226.142C225.782 19.952 225.494 19.856 225.278 19.664C225.086 19.448 224.93 19.244 224.81 19.052L222.434 15.164V25.028C222.434 25.292 222.338 25.52 222.146 25.712C221.954 25.904 221.726 26 221.462 26H214.946ZM239.318 1.808C239.078 1.664 238.838 1.712 238.598 1.952C238.502 2.048 238.466 2.144 238.49 2.24C238.538 2.312 238.598 2.42 238.67 2.564C238.742 2.684 238.79 2.78 238.814 2.852C238.862 2.924 238.958 2.948 239.102 2.924C239.27 2.9 239.39 2.864 239.462 2.816C239.558 2.768 239.618 2.66 239.642 2.492C239.69 2.18 239.582 1.952 239.318 1.808ZM233.99 2.276C233.822 2.204 233.69 2.204 233.594 2.276C233.522 2.348 233.426 2.456 233.306 2.6C233.21 2.72 233.174 2.828 233.198 2.924C233.222 2.996 233.27 3.092 233.342 3.212C233.462 3.404 233.63 3.476 233.846 3.428C234.062 3.356 234.182 3.212 234.206 2.996C234.206 2.804 234.206 2.66 234.206 2.564C234.23 2.444 234.158 2.348 233.99 2.276ZM215.63 2.564L215.162 2.708L214.802 3.068L215.27 3.356L215.738 3.14L215.63 2.564ZM236.834 4.832C236.546 4.76 236.366 4.808 236.294 4.976C236.246 5.144 236.15 5.336 236.006 5.552C235.862 5.792 235.742 5.972 235.646 6.092C235.55 6.212 235.586 6.38 235.754 6.596C235.946 6.812 236.114 6.932 236.258 6.956C236.402 6.956 236.618 6.896 236.906 6.776C237.146 6.68 237.29 6.572 237.338 6.452C237.41 6.308 237.434 6.104 237.41 5.84C237.386 5.552 237.35 5.336 237.302 5.192C237.254 5.024 237.098 4.904 236.834 4.832ZM216.962 5.84C216.914 5.624 216.866 5.468 216.818 5.372C216.77 5.276 216.638 5.228 216.422 5.228C216.206 5.228 216.05 5.264 215.954 5.336C215.882 5.384 215.798 5.516 215.702 5.732C215.63 5.9 215.63 6.032 215.702 6.128C215.774 6.2 215.882 6.296 216.026 6.416C216.242 6.608 216.47 6.62 216.71 6.452C216.95 6.308 217.034 6.104 216.962 5.84ZM220.778 5.732C220.73 5.564 220.586 5.492 220.346 5.516C220.226 5.516 220.118 5.528 220.022 5.552C219.95 5.552 219.89 5.612 219.842 5.732C219.818 5.876 219.842 5.96 219.914 5.984C220.01 6.008 220.118 6.056 220.238 6.128C220.334 6.2 220.406 6.272 220.454 6.344C220.526 6.392 220.622 6.368 220.742 6.272C220.838 6.2 220.874 6.128 220.85 6.056C220.85 5.96 220.826 5.852 220.778 5.732ZM234.098 6.56C233.906 6.56 233.75 6.56 233.63 6.56C233.534 6.536 233.45 6.62 233.378 6.812C233.306 7.028 233.282 7.196 233.306 7.316C233.33 7.412 233.426 7.532 233.594 7.676C233.762 7.82 233.894 7.856 233.99 7.784C234.086 7.712 234.218 7.616 234.386 7.496C234.554 7.4 234.674 7.316 234.746 7.244C234.818 7.172 234.83 7.04 234.782 6.848C234.734 6.68 234.65 6.596 234.53 6.596C234.434 6.572 234.29 6.56 234.098 6.56ZM223.19 8.072C222.998 7.88 222.83 7.76 222.686 7.712C222.566 7.64 222.398 7.664 222.182 7.784C221.918 7.928 221.738 8.072 221.642 8.216C221.57 8.336 221.57 8.552 221.642 8.864C221.69 9.128 221.774 9.296 221.894 9.368C222.038 9.416 222.254 9.464 222.542 9.512C222.758 9.536 222.902 9.5 222.974 9.404C223.046 9.284 223.13 9.128 223.226 8.936C223.322 8.744 223.382 8.588 223.406 8.468C223.43 8.348 223.358 8.216 223.19 8.072ZM219.446 8.144C218.798 7.904 218.306 7.856 217.97 8C217.634 8.12 217.25 8.444 216.818 8.972C216.602 9.284 216.518 9.536 216.566 9.728C216.614 9.92 216.734 10.124 216.926 10.34C217.118 10.556 217.31 10.82 217.502 11.132C217.79 11.54 218.018 11.876 218.186 12.14C218.354 12.38 218.678 12.428 219.158 12.284C219.662 12.14 219.926 11.924 219.95 11.636C219.998 11.348 220.034 10.94 220.058 10.412C220.082 10.028 220.118 9.692 220.166 9.404C220.214 9.116 220.19 8.876 220.094 8.684C220.022 8.468 219.806 8.288 219.446 8.144ZM238.058 8.216C237.89 8.192 237.758 8.18 237.662 8.18C237.566 8.18 237.482 8.264 237.41 8.432C237.338 8.576 237.35 8.672 237.446 8.72C237.542 8.768 237.65 8.84 237.77 8.936C237.866 9.056 237.938 9.164 237.986 9.26C238.034 9.356 238.13 9.368 238.274 9.296C238.538 9.176 238.646 8.948 238.598 8.612C238.574 8.468 238.514 8.372 238.418 8.324C238.346 8.276 238.226 8.24 238.058 8.216ZM236.87 10.556C236.75 10.412 236.63 10.352 236.51 10.376C236.39 10.376 236.234 10.412 236.042 10.484C235.898 10.532 235.826 10.604 235.826 10.7C235.826 10.796 235.826 10.916 235.826 11.06C235.826 11.3 235.922 11.444 236.114 11.492C236.33 11.564 236.498 11.636 236.618 11.708C236.738 11.78 236.858 11.72 236.978 11.528C237.122 11.336 237.182 11.18 237.158 11.06C237.134 10.916 237.038 10.748 236.87 10.556ZM230.642 10.988C230.33 10.796 230.078 10.724 229.886 10.772C229.694 10.796 229.454 10.928 229.166 11.168C228.782 11.48 228.446 11.72 228.158 11.888C227.894 12.032 227.846 12.332 228.014 12.788C228.206 13.292 228.434 13.58 228.698 13.652C228.986 13.724 229.406 13.748 229.958 13.724C230.39 13.7 230.666 13.592 230.786 13.4C230.93 13.208 231.074 12.896 231.218 12.464C231.314 12.104 231.314 11.828 231.218 11.636C231.146 11.444 230.954 11.228 230.642 10.988ZM234.206 11.6C234.038 11.432 233.882 11.384 233.738 11.456C233.57 11.552 233.498 11.708 233.522 11.924C233.546 12.068 233.57 12.188 233.594 12.284C233.642 12.356 233.738 12.404 233.882 12.428C234.026 12.452 234.11 12.428 234.134 12.356C234.182 12.26 234.242 12.152 234.314 12.032C234.386 11.888 234.35 11.744 234.206 11.6ZM223.658 11.6C223.586 11.504 223.466 11.504 223.298 11.6C223.178 11.648 223.082 11.684 223.01 11.708C222.962 11.732 222.938 11.792 222.938 11.888C222.962 12.08 223.094 12.2 223.334 12.248C223.574 12.296 223.73 12.236 223.802 12.068C223.874 11.972 223.886 11.9 223.838 11.852C223.814 11.78 223.754 11.696 223.658 11.6ZM236.798 13.04C236.798 12.872 236.81 12.74 236.834 12.644C236.882 12.548 236.834 12.476 236.69 12.428C236.522 12.38 236.402 12.392 236.33 12.464C236.282 12.536 236.198 12.632 236.078 12.752C235.982 12.92 235.994 13.1 236.114 13.292C236.21 13.412 236.282 13.496 236.33 13.544C236.402 13.592 236.51 13.592 236.654 13.544C236.774 13.52 236.822 13.472 236.798 13.4C236.798 13.304 236.798 13.184 236.798 13.04ZM226.466 12.932C226.178 12.812 225.962 12.812 225.818 12.932C225.674 13.052 225.506 13.244 225.314 13.508C225.098 13.772 224.93 13.988 224.81 14.156C224.69 14.3 224.726 14.516 224.918 14.804C225.134 15.14 225.338 15.344 225.53 15.416C225.722 15.464 225.998 15.44 226.358 15.344C226.694 15.248 226.862 15.104 226.862 14.912C226.886 14.72 226.91 14.456 226.934 14.12C226.958 13.808 226.958 13.568 226.934 13.4C226.934 13.208 226.778 13.052 226.466 12.932ZM215.774 13.292L215.522 13.076L215.414 13.4L215.522 13.616L215.81 13.58L215.774 13.292ZM239.462 14.948C239.318 14.492 239.138 14.204 238.922 14.084C238.706 13.94 238.358 13.868 237.878 13.868C237.422 13.868 237.098 13.952 236.906 14.12C236.738 14.264 236.582 14.552 236.438 14.984C236.318 15.392 236.306 15.692 236.402 15.884C236.498 16.076 236.726 16.304 237.086 16.568C237.374 16.784 237.614 16.856 237.806 16.784C237.998 16.712 238.238 16.568 238.526 16.352C238.862 16.112 239.126 15.92 239.318 15.776C239.534 15.608 239.582 15.332 239.462 14.948ZM221.462 13.868L221.282 14.012L221.246 14.264L221.534 14.3L221.606 14.048L221.462 13.868ZM217.322 15.2C217.034 15.008 216.806 14.864 216.638 14.768C216.47 14.648 216.254 14.684 215.99 14.876C215.702 15.092 215.57 15.296 215.594 15.488C215.618 15.68 215.69 15.944 215.81 16.28C215.906 16.616 216.014 16.856 216.134 17C216.254 17.12 216.482 17.18 216.818 17.18C217.25 17.18 217.586 17.168 217.826 17.144C218.09 17.096 218.282 16.868 218.402 16.46C218.522 16.052 218.45 15.8 218.186 15.704C217.946 15.608 217.658 15.44 217.322 15.2ZM221.138 15.272L220.742 15.02L220.562 15.416L220.67 15.704L221.138 15.74V15.272ZM228.23 15.74C228.038 15.644 227.894 15.632 227.798 15.704C227.702 15.776 227.582 15.884 227.438 16.028C227.246 16.22 227.222 16.448 227.366 16.712C227.438 16.856 227.498 16.964 227.546 17.036C227.618 17.108 227.75 17.132 227.942 17.108C228.134 17.084 228.278 17.048 228.374 17C228.47 16.928 228.542 16.796 228.59 16.604C228.614 16.364 228.602 16.184 228.554 16.064C228.53 15.944 228.422 15.836 228.23 15.74ZM236.438 18.08C236.15 17.84 235.922 17.792 235.754 17.936C235.586 18.056 235.346 18.212 235.034 18.404C234.698 18.62 234.398 18.776 234.134 18.872C233.894 18.968 233.834 19.22 233.954 19.628C234.05 20.06 234.206 20.324 234.422 20.42C234.662 20.492 235.01 20.54 235.466 20.564C235.826 20.588 236.054 20.516 236.15 20.348C236.27 20.156 236.39 19.892 236.51 19.556C236.654 19.22 236.75 18.956 236.798 18.764C236.846 18.548 236.726 18.32 236.438 18.08ZM238.598 18.224L238.13 18.332L237.986 18.836L238.454 18.908L238.814 18.692L238.598 18.224ZM218.618 19.664C218.618 19.472 218.618 19.328 218.618 19.232C218.618 19.136 218.534 19.064 218.366 19.016C218.198 18.968 218.078 18.992 218.006 19.088C217.958 19.16 217.886 19.268 217.79 19.412C217.694 19.58 217.718 19.748 217.862 19.916C218.006 20.132 218.174 20.204 218.366 20.132C218.534 20.06 218.618 19.904 218.618 19.664ZM238.598 22.724C238.43 22.436 238.286 22.22 238.166 22.076C238.07 21.932 237.854 21.896 237.518 21.968C237.182 22.04 236.954 22.148 236.834 22.292C236.714 22.436 236.63 22.688 236.582 23.048C236.558 23.384 236.594 23.624 236.69 23.768C236.786 23.912 236.99 24.056 237.302 24.2C237.662 24.368 237.95 24.5 238.166 24.596C238.382 24.668 238.622 24.548 238.886 24.236C239.15 23.972 239.21 23.744 239.066 23.552C238.946 23.336 238.79 23.06 238.598 22.724ZM219.158 22.22L218.798 22.004L218.294 21.968L218.33 22.58H218.87L219.158 22.22ZM234.026 22.76L233.666 22.94V23.372L234.098 23.516L234.35 23.084L234.026 22.76Z" fill="#34D399"/>
</svg>
