<svg width="36" height="34" viewBox="0 0 36 34" fill="none" xmlns="http://www.w3.org/2000/svg">
<path d="M1.38131 34C1.02931 34 0.725313 33.872 0.469313 33.616C0.213313 33.36 0.0853127 33.056 0.0853127 32.704V1.696C0.0853127 1.344 0.213313 1.04 0.469313 0.783998C0.725313 0.527998 1.02931 0.399998 1.38131 0.399998H8.96531C9.60531 0.399998 10.0853 0.575998 10.4053 0.927999C10.7253 1.28 10.9333 1.536 11.0293 1.696L17.9893 13.216L24.9493 1.696C25.0453 1.536 25.2533 1.28 25.5733 0.927999C25.8933 0.575998 26.3733 0.399998 27.0133 0.399998H34.5973C34.9493 0.399998 35.2533 0.527998 35.5093 0.783998C35.7653 1.04 35.8933 1.344 35.8933 1.696V32.704C35.8933 33.056 35.7653 33.36 35.5093 33.616C35.2533 33.872 34.9493 34 34.5973 34H25.9093C25.5573 34 25.2533 33.872 24.9973 33.616C24.7413 33.36 24.6133 33.056 24.6133 32.704V19.552L21.4453 24.736C21.2853 24.992 21.0613 25.264 20.7733 25.552C20.5173 25.808 20.1493 25.936 19.6693 25.936H16.3093C15.8293 25.936 15.4453 25.808 15.1573 25.552C14.9013 25.264 14.6933 24.992 14.5333 24.736L11.3653 19.552V32.704C11.3653 33.056 11.2373 33.36 10.9813 33.616C10.7253 33.872 10.4213 34 10.0693 34H1.38131ZM33.8773 1.744C33.5573 1.552 33.2373 1.616 32.9173 1.936C32.7893 2.064 32.7413 2.192 32.7733 2.32C32.8373 2.416 32.9173 2.56 33.0133 2.752C33.1093 2.912 33.1733 3.04 33.2053 3.136C33.2693 3.232 33.3973 3.264 33.5893 3.232C33.8133 3.2 33.9733 3.152 34.0693 3.088C34.1973 3.024 34.2773 2.88 34.3093 2.656C34.3733 2.24 34.2293 1.936 33.8773 1.744ZM26.7733 2.368C26.5493 2.272 26.3733 2.272 26.2453 2.368C26.1493 2.464 26.0213 2.608 25.8613 2.8C25.7333 2.96 25.6853 3.104 25.7173 3.232C25.7493 3.328 25.8133 3.456 25.9093 3.616C26.0693 3.872 26.2933 3.968 26.5813 3.904C26.8693 3.808 27.0293 3.616 27.0613 3.328C27.0613 3.072 27.0613 2.88 27.0613 2.752C27.0933 2.592 26.9973 2.464 26.7733 2.368ZM2.29331 2.752L1.66931 2.944L1.18931 3.424L1.81331 3.808L2.43731 3.52L2.29331 2.752ZM30.5653 5.776C30.1813 5.68 29.9413 5.744 29.8453 5.968C29.7813 6.192 29.6533 6.448 29.4613 6.736C29.2693 7.056 29.1093 7.296 28.9813 7.456C28.8533 7.616 28.9013 7.84 29.1253 8.128C29.3813 8.416 29.6053 8.576 29.7973 8.608C29.9893 8.608 30.2773 8.528 30.6613 8.368C30.9813 8.24 31.1733 8.096 31.2373 7.936C31.3333 7.744 31.3653 7.472 31.3333 7.12C31.3013 6.736 31.2533 6.448 31.1893 6.256C31.1253 6.032 30.9173 5.872 30.5653 5.776ZM4.06931 7.12C4.00531 6.832 3.94131 6.624 3.87731 6.496C3.81331 6.368 3.63731 6.304 3.34931 6.304C3.06131 6.304 2.85331 6.352 2.72531 6.448C2.62931 6.512 2.51731 6.688 2.38931 6.976C2.29331 7.2 2.29331 7.376 2.38931 7.504C2.48531 7.6 2.62931 7.728 2.82131 7.888C3.10931 8.144 3.41331 8.16 3.73331 7.936C4.05331 7.744 4.16531 7.472 4.06931 7.12ZM9.15731 6.976C9.09331 6.752 8.90131 6.656 8.58131 6.688C8.42131 6.688 8.27731 6.704 8.14931 6.736C8.05331 6.736 7.97331 6.816 7.90931 6.976C7.87731 7.168 7.90931 7.28 8.00531 7.312C8.13331 7.344 8.27731 7.408 8.43731 7.504C8.56531 7.6 8.66131 7.696 8.72531 7.792C8.82131 7.856 8.94931 7.824 9.10931 7.696C9.23731 7.6 9.28531 7.504 9.25331 7.408C9.25331 7.28 9.22131 7.136 9.15731 6.976ZM26.9173 8.08C26.6613 8.08 26.4533 8.08 26.2933 8.08C26.1653 8.048 26.0533 8.16 25.9573 8.416C25.8613 8.704 25.8293 8.928 25.8613 9.088C25.8933 9.216 26.0213 9.376 26.2453 9.568C26.4693 9.76 26.6453 9.808 26.7733 9.712C26.9013 9.616 27.0773 9.488 27.3013 9.328C27.5253 9.2 27.6853 9.088 27.7813 8.992C27.8773 8.896 27.8933 8.72 27.8293 8.464C27.7653 8.24 27.6533 8.128 27.4933 8.128C27.3653 8.096 27.1733 8.08 26.9173 8.08ZM12.3733 10.096C12.1173 9.84 11.8933 9.68 11.7013 9.616C11.5413 9.52 11.3173 9.552 11.0293 9.712C10.6773 9.904 10.4373 10.096 10.3093 10.288C10.2133 10.448 10.2133 10.736 10.3093 11.152C10.3733 11.504 10.4853 11.728 10.6453 11.824C10.8373 11.888 11.1253 11.952 11.5093 12.016C11.7973 12.048 11.9893 12 12.0853 11.872C12.1813 11.712 12.2933 11.504 12.4213 11.248C12.5493 10.992 12.6293 10.784 12.6613 10.624C12.6933 10.464 12.5973 10.288 12.3733 10.096ZM7.38131 10.192C6.51731 9.872 5.86131 9.808 5.41331 10C4.96531 10.16 4.45331 10.592 3.87731 11.296C3.58931 11.712 3.47731 12.048 3.54131 12.304C3.60531 12.56 3.76531 12.832 4.02131 13.12C4.27731 13.408 4.53331 13.76 4.78931 14.176C5.17331 14.72 5.47731 15.168 5.70131 15.52C5.92531 15.84 6.35731 15.904 6.99731 15.712C7.66931 15.52 8.02131 15.232 8.05331 14.848C8.11731 14.464 8.16531 13.92 8.19731 13.216C8.22931 12.704 8.27731 12.256 8.34131 11.872C8.40531 11.488 8.37331 11.168 8.24531 10.912C8.14931 10.624 7.86131 10.384 7.38131 10.192ZM32.1973 10.288C31.9733 10.256 31.7973 10.24 31.6693 10.24C31.5413 10.24 31.4293 10.352 31.3333 10.576C31.2373 10.768 31.2533 10.896 31.3813 10.96C31.5093 11.024 31.6533 11.12 31.8133 11.248C31.9413 11.408 32.0373 11.552 32.1013 11.68C32.1653 11.808 32.2933 11.824 32.4853 11.728C32.8373 11.568 32.9813 11.264 32.9173 10.816C32.8853 10.624 32.8053 10.496 32.6773 10.432C32.5813 10.368 32.4213 10.32 32.1973 10.288ZM30.6133 13.408C30.4533 13.216 30.2933 13.136 30.1333 13.168C29.9733 13.168 29.7653 13.216 29.5093 13.312C29.3173 13.376 29.2213 13.472 29.2213 13.6C29.2213 13.728 29.2213 13.888 29.2213 14.08C29.2213 14.4 29.3493 14.592 29.6053 14.656C29.8933 14.752 30.1173 14.848 30.2773 14.944C30.4373 15.04 30.5973 14.96 30.7573 14.704C30.9493 14.448 31.0293 14.24 30.9973 14.08C30.9653 13.888 30.8373 13.664 30.6133 13.408ZM22.3093 13.984C21.8933 13.728 21.5573 13.632 21.3013 13.696C21.0453 13.728 20.7253 13.904 20.3413 14.224C19.8293 14.64 19.3813 14.96 18.9973 15.184C18.6453 15.376 18.5813 15.776 18.8053 16.384C19.0613 17.056 19.3653 17.44 19.7173 17.536C20.1013 17.632 20.6613 17.664 21.3973 17.632C21.9733 17.6 22.3413 17.456 22.5013 17.2C22.6933 16.944 22.8853 16.528 23.0773 15.952C23.2053 15.472 23.2053 15.104 23.0773 14.848C22.9813 14.592 22.7253 14.304 22.3093 13.984ZM27.0613 14.8C26.8373 14.576 26.6293 14.512 26.4373 14.608C26.2133 14.736 26.1173 14.944 26.1493 15.232C26.1813 15.424 26.2133 15.584 26.2453 15.712C26.3093 15.808 26.4373 15.872 26.6293 15.904C26.8213 15.936 26.9333 15.904 26.9653 15.808C27.0293 15.68 27.1093 15.536 27.2053 15.376C27.3013 15.184 27.2533 14.992 27.0613 14.8ZM12.9973 14.8C12.9013 14.672 12.7413 14.672 12.5173 14.8C12.3573 14.864 12.2293 14.912 12.1333 14.944C12.0693 14.976 12.0373 15.056 12.0373 15.184C12.0693 15.44 12.2453 15.6 12.5653 15.664C12.8853 15.728 13.0933 15.648 13.1893 15.424C13.2853 15.296 13.3013 15.2 13.2373 15.136C13.2053 15.04 13.1253 14.928 12.9973 14.8ZM30.5173 16.72C30.5173 16.496 30.5333 16.32 30.5653 16.192C30.6293 16.064 30.5653 15.968 30.3733 15.904C30.1493 15.84 29.9893 15.856 29.8933 15.952C29.8293 16.048 29.7173 16.176 29.5573 16.336C29.4293 16.56 29.4453 16.8 29.6053 17.056C29.7333 17.216 29.8293 17.328 29.8933 17.392C29.9893 17.456 30.1333 17.456 30.3253 17.392C30.4853 17.36 30.5493 17.296 30.5173 17.2C30.5173 17.072 30.5173 16.912 30.5173 16.72ZM16.7413 16.576C16.3573 16.416 16.0693 16.416 15.8773 16.576C15.6853 16.736 15.4613 16.992 15.2053 17.344C14.9173 17.696 14.6933 17.984 14.5333 18.208C14.3733 18.4 14.4213 18.688 14.6773 19.072C14.9653 19.52 15.2373 19.792 15.4933 19.888C15.7493 19.952 16.1173 19.92 16.5973 19.792C17.0453 19.664 17.2693 19.472 17.2693 19.216C17.3013 18.96 17.3333 18.608 17.3653 18.16C17.3973 17.744 17.3973 17.424 17.3653 17.2C17.3653 16.944 17.1573 16.736 16.7413 16.576ZM2.48531 17.056L2.14931 16.768L2.00531 17.2L2.14931 17.488L2.53331 17.44L2.48531 17.056ZM34.0693 19.264C33.8773 18.656 33.6373 18.272 33.3493 18.112C33.0613 17.92 32.5973 17.824 31.9573 17.824C31.3493 17.824 30.9173 17.936 30.6613 18.16C30.4373 18.352 30.2293 18.736 30.0373 19.312C29.8773 19.856 29.8613 20.256 29.9893 20.512C30.1173 20.768 30.4213 21.072 30.9013 21.424C31.2853 21.712 31.6053 21.808 31.8613 21.712C32.1173 21.616 32.4373 21.424 32.8213 21.136C33.2693 20.816 33.6213 20.56 33.8773 20.368C34.1653 20.144 34.2293 19.776 34.0693 19.264ZM10.0693 17.824L9.82931 18.016L9.78131 18.352L10.1653 18.4L10.2613 18.064L10.0693 17.824ZM4.54931 19.6C4.16531 19.344 3.86131 19.152 3.63731 19.024C3.41331 18.864 3.12531 18.912 2.77331 19.168C2.38931 19.456 2.21331 19.728 2.24531 19.984C2.27731 20.24 2.37331 20.592 2.53331 21.04C2.66131 21.488 2.80531 21.808 2.96531 22C3.12531 22.16 3.42931 22.24 3.87731 22.24C4.45331 22.24 4.90131 22.224 5.22131 22.192C5.57331 22.128 5.82931 21.824 5.98931 21.28C6.14931 20.736 6.05331 20.4 5.70131 20.272C5.38131 20.144 4.99731 19.92 4.54931 19.6ZM9.63731 19.696L9.10931 19.36L8.86931 19.888L9.01331 20.272L9.63731 20.32V19.696ZM19.0933 20.32C18.8373 20.192 18.6453 20.176 18.5173 20.272C18.3893 20.368 18.2293 20.512 18.0373 20.704C17.7813 20.96 17.7493 21.264 17.9413 21.616C18.0373 21.808 18.1173 21.952 18.1813 22.048C18.2773 22.144 18.4533 22.176 18.7093 22.144C18.9653 22.112 19.1573 22.064 19.2853 22C19.4133 21.904 19.5093 21.728 19.5733 21.472C19.6053 21.152 19.5893 20.912 19.5253 20.752C19.4933 20.592 19.3493 20.448 19.0933 20.32ZM30.0373 23.44C29.6533 23.12 29.3493 23.056 29.1253 23.248C28.9013 23.408 28.5813 23.616 28.1653 23.872C27.7173 24.16 27.3173 24.368 26.9653 24.496C26.6453 24.624 26.5653 24.96 26.7253 25.504C26.8533 26.08 27.0613 26.432 27.3493 26.56C27.6693 26.656 28.1333 26.72 28.7413 26.752C29.2213 26.784 29.5253 26.688 29.6533 26.464C29.8133 26.208 29.9733 25.856 30.1333 25.408C30.3253 24.96 30.4533 24.608 30.5173 24.352C30.5813 24.064 30.4213 23.76 30.0373 23.44ZM32.9173 23.632L32.2933 23.776L32.1013 24.448L32.7253 24.544L33.2053 24.256L32.9173 23.632ZM6.27731 25.552C6.27731 25.296 6.27731 25.104 6.27731 24.976C6.27731 24.848 6.16531 24.752 5.94131 24.688C5.71731 24.624 5.55731 24.656 5.46131 24.784C5.39731 24.88 5.30131 25.024 5.17331 25.216C5.04531 25.44 5.07731 25.664 5.26931 25.888C5.46131 26.176 5.68531 26.272 5.94131 26.176C6.16531 26.08 6.27731 25.872 6.27731 25.552ZM32.9173 29.632C32.6933 29.248 32.5013 28.96 32.3413 28.768C32.2133 28.576 31.9253 28.528 31.4773 28.624C31.0293 28.72 30.7253 28.864 30.5653 29.056C30.4053 29.248 30.2933 29.584 30.2293 30.064C30.1973 30.512 30.2453 30.832 30.3733 31.024C30.5013 31.216 30.7733 31.408 31.1893 31.6C31.6693 31.824 32.0533 32 32.3413 32.128C32.6293 32.224 32.9493 32.064 33.3013 31.648C33.6533 31.296 33.7333 30.992 33.5413 30.736C33.3813 30.448 33.1733 30.08 32.9173 29.632ZM6.99731 28.96L6.51731 28.672L5.84531 28.624L5.89331 29.44H6.61331L6.99731 28.96ZM26.8213 29.68L26.3413 29.92V30.496L26.9173 30.688L27.2533 30.112L26.8213 29.68Z" fill="#34D399"/>
</svg>
