<svg width="97" height="97" viewBox="0 0 97 97" fill="none" xmlns="http://www.w3.org/2000/svg">
<rect width="97" height="97" rx="6" fill="url(#paint0_linear_29_119)"/>
<g clip-path="url(#clip0_29_119)">
<path d="M46.3125 54.875H52.6875L51.4656 48.0219C52.174 47.6677 52.7318 47.1542 53.1391 46.4813C53.5464 45.8083 53.75 45.0646 53.75 44.25C53.75 43.0813 53.3339 42.0807 52.5016 41.2484C51.6693 40.4161 50.6688 40 49.5 40C48.3313 40 47.3307 40.4161 46.4984 41.2484C45.6661 42.0807 45.25 43.0813 45.25 44.25C45.25 45.0646 45.4536 45.8083 45.8609 46.4813C46.2682 47.1542 46.826 47.6677 47.5344 48.0219L46.3125 54.875ZM49.5 69.75C44.5771 68.5104 40.513 65.6859 37.3078 61.2766C34.1026 56.8672 32.5 51.9708 32.5 46.5875V33.625L49.5 27.25L66.5 33.625V46.5875C66.5 51.9708 64.8974 56.8672 61.6922 61.2766C58.487 65.6859 54.4229 68.5104 49.5 69.75ZM49.5 65.2875C53.1833 64.1188 56.2292 61.7813 58.6375 58.275C61.0458 54.7688 62.25 50.8729 62.25 46.5875V36.5469L49.5 31.7656L36.75 36.5469V46.5875C36.75 50.8729 37.9542 54.7688 40.3625 58.275C42.7708 61.7813 45.8167 64.1188 49.5 65.2875Z" fill="#171717"/>
</g>
<defs>
<linearGradient id="paint0_linear_29_119" x1="-3.11468" y1="2.66973" x2="93.8853" y2="94.3303" gradientUnits="userSpaceOnUse">
<stop stop-color="#EB6264"/>
<stop offset="1" stop-color="#4E05A8"/>
</linearGradient>
<clipPath id="clip0_29_119">
<rect width="51" height="51" fill="white" transform="translate(24 23)"/>
</clipPath>
</defs>
</svg>
