<svg width="97" height="97" viewBox="0 0 97 97" fill="none" xmlns="http://www.w3.org/2000/svg">
<rect width="97" height="97" rx="6" fill="url(#paint0_linear_29_120)"/>
<path d="M36.75 69.75C35.5812 69.75 34.5807 69.3339 33.7484 68.5016C32.9161 67.6693 32.5 66.6688 32.5 65.5V44.25C32.5 43.0813 32.9161 42.0807 33.7484 41.2484C34.5807 40.4161 35.5812 40 36.75 40H38.875V35.75C38.875 32.8104 39.9109 30.3047 41.9828 28.2328C44.0547 26.1609 46.5604 25.125 49.5 25.125C52.4396 25.125 54.9453 26.1609 57.0172 28.2328C59.0891 30.3047 60.125 32.8104 60.125 35.75V40H62.25C63.4187 40 64.4193 40.4161 65.2516 41.2484C66.0839 42.0807 66.5 43.0813 66.5 44.25V65.5C66.5 66.6688 66.0839 67.6693 65.2516 68.5016C64.4193 69.3339 63.4187 69.75 62.25 69.75H36.75ZM36.75 65.5H62.25V44.25H36.75V65.5ZM49.5 59.125C50.6687 59.125 51.6693 58.7089 52.5016 57.8766C53.3339 57.0443 53.75 56.0438 53.75 54.875C53.75 53.7063 53.3339 52.7057 52.5016 51.8734C51.6693 51.0411 50.6687 50.625 49.5 50.625C48.3312 50.625 47.3307 51.0411 46.4984 51.8734C45.6661 52.7057 45.25 53.7063 45.25 54.875C45.25 56.0438 45.6661 57.0443 46.4984 57.8766C47.3307 58.7089 48.3312 59.125 49.5 59.125ZM43.125 40H55.875V35.75C55.875 33.9792 55.2552 32.474 54.0156 31.2344C52.776 29.9948 51.2708 29.375 49.5 29.375C47.7292 29.375 46.224 29.9948 44.9844 31.2344C43.7448 32.474 43.125 33.9792 43.125 35.75V40Z" fill="#171717"/>
<defs>
<linearGradient id="paint0_linear_29_120" x1="-3.11468" y1="2.66973" x2="93.8853" y2="94.3303" gradientUnits="userSpaceOnUse">
<stop stop-color="#35C24F"/>
<stop offset="1" stop-color="#058AA8"/>
</linearGradient>
</defs>
</svg>
